<?xml version="1.0" encoding="UTF-8"?>
<svg width="315px" height="66px" viewBox="0 0 315 66" version="1.1" xmlns="http://www.w3.org/2000/svg" xmlns:xlink="http://www.w3.org/1999/xlink">
    <!-- Generator: Sketch 41.2 (35397) - http://www.bohemiancoding.com/sketch -->
    <title>iMover Inventory - SVG Sprite Sheet</title>
    <desc>Created with Sketch.</desc>
    <defs>
        <linearGradient x1="50%" y1="0%" x2="50%" y2="100%" id="linearGradient-1">
            <stop stop-color="#FFFFFF" offset="0%"></stop>
            <stop stop-color="#F3EFEF" offset="100%"></stop>
        </linearGradient>
        <circle id="path-2" cx="13" cy="13.7142857" r="12.8571429"></circle>
        <filter x="-50%" y="-50%" width="200%" height="200%" filterUnits="objectBoundingBox" id="filter-3">
            <feOffset dx="0" dy="2" in="SourceAlpha" result="shadowOffsetInner1"></feOffset>
            <feComposite in="shadowOffsetInner1" in2="SourceAlpha" operator="arithmetic" k2="-1" k3="1" result="shadowInnerInner1"></feComposite>
            <feColorMatrix values="0 0 0 0 1   0 0 0 0 0.999936521   0 0 0 0 1  0 0 0 1 0" type="matrix" in="shadowInnerInner1"></feColorMatrix>
        </filter>
        <mask id="mask-4" maskContentUnits="userSpaceOnUse" maskUnits="objectBoundingBox" x="0" y="0" width="25.7142857" height="25.7142857" fill="white">
            <use xlink:href="#path-2"></use>
        </mask>
        <circle id="path-5" cx="13" cy="13.7142857" r="12.8571429"></circle>
        <filter x="-50%" y="-50%" width="200%" height="200%" filterUnits="objectBoundingBox" id="filter-6">
            <feOffset dx="0" dy="2" in="SourceAlpha" result="shadowOffsetInner1"></feOffset>
            <feComposite in="shadowOffsetInner1" in2="SourceAlpha" operator="arithmetic" k2="-1" k3="1" result="shadowInnerInner1"></feComposite>
            <feColorMatrix values="0 0 0 0 1   0 0 0 0 0.999936521   0 0 0 0 1  0 0 0 1 0" type="matrix" in="shadowInnerInner1"></feColorMatrix>
        </filter>
        <mask id="mask-7" maskContentUnits="userSpaceOnUse" maskUnits="objectBoundingBox" x="0" y="0" width="25.7142857" height="25.7142857" fill="white">
            <use xlink:href="#path-5"></use>
        </mask>
        <polygon id="path-8" points="42.8121314 20.7347561 42.8121314 0.0146253039 1.13000868e-05 0.0146253039 1.13000868e-05 20.7347561"></polygon>
    </defs>
    <g id="Page-1" stroke="none" stroke-width="1" fill="none" fill-rule="evenodd">
        <g id="iMover-Inventory---SVG-Sprite-Sheet">
            <g id="facebook-icon" transform="translate(90.517001, 6.000000)" fill="#FFFFFF">
                <path d="M16.4995976,0.804878049 C7.84554878,0.804878049 0.804878049,7.84554878 0.804878049,16.5 C0.804878049,25.1540488 7.84554878,32.1947195 16.4995976,32.1947195 C25.1540488,32.1947195 32.195122,25.1540488 32.195122,16.5 C32.195122,7.84554878 25.1540488,0.804878049 16.4995976,0.804878049 M16.4995976,32.9995976 C7.40165854,32.9995976 0,25.597939 0,16.5 C0,7.40165854 7.40165854,0 16.4995976,0 C25.597939,0 33,7.40165854 33,16.5 C33,25.597939 25.597939,32.9995976 16.4995976,32.9995976" id="Fill-1"></path>
                <path d="M13.004978,14.0466512 L14.5024537,14.0466512 L14.5024537,12.5914317 C14.5024537,11.949139 14.5185512,10.959139 14.9845756,10.3462244 C15.4759537,9.6966878 16.1504415,9.25561463 17.3098683,9.25561463 C19.199722,9.25561463 19.9949415,9.52524878 19.9949415,9.52524878 L19.6206732,11.7442976 C19.6206732,11.7442976 18.9964902,11.5636024 18.414161,11.5636024 C17.8314293,11.5636024 17.3098683,11.7724683 17.3098683,12.3543951 L17.3098683,14.0466512 L19.6987463,14.0466512 L19.5321366,16.2141878 L17.3098683,16.2141878 L17.3098683,23.7434195 L14.5024537,23.7434195 L14.5024537,16.2141878 L13.004978,16.2141878 L13.004978,14.0466512 Z" id="Fill-3"></path>
            </g>
            <g id="twitter-icon" transform="translate(137.517001, 7.000000)" fill="#FFFFFF">
                <path d="M16.5,0.804878049 C7.84554878,0.804878049 0.804878049,7.84554878 0.804878049,16.5 C0.804878049,25.1540488 7.84554878,32.1947195 16.5,32.1947195 C25.1540488,32.1947195 32.1943171,25.1540488 32.1943171,16.5 C32.1943171,7.84554878 25.1540488,0.804878049 16.5,0.804878049 M16.5,32.9995976 C7.40206098,32.9995976 0,25.597939 0,16.5 C0,7.40165854 7.40206098,0 16.5,0 C25.597939,0 32.9991951,7.40165854 32.9991951,16.5 C32.9991951,25.597939 25.597939,32.9995976 16.5,32.9995976" id="Fill-1"></path>
                <path d="M23.7435402,12.7905988 C23.2103085,13.0268305 22.6372354,13.1865988 22.0363939,13.2586354 C22.6509183,12.8908061 23.1221744,12.3084768 23.3431134,11.614672 C22.7684305,11.9551354 22.1333817,12.2022329 21.4548695,12.3350378 C20.9143939,11.7575378 20.1409061,11.39655 19.2857232,11.39655 C17.6449793,11.39655 16.3141134,12.7278183 16.3141134,14.3685622 C16.3141134,14.6023793 16.3394671,14.82855 16.3909793,15.0458671 C13.921211,14.9215134 11.7311378,13.7391476 10.2638451,11.9398427 C10.0078939,12.380111 9.86221098,12.8908061 9.86221098,13.4353061 C9.86221098,14.46555 10.3869915,15.3754646 11.1838207,15.9095012 C10.6976744,15.8942085 10.2384915,15.7593915 9.83685732,15.53805 L9.83685732,15.574672 C9.83685732,17.0154037 10.8618695,18.2166841 12.2221134,18.4887329 C11.9730037,18.5587573 11.7110159,18.5937695 11.4389671,18.5937695 C11.2474061,18.5937695 11.0610768,18.5760622 10.8799793,18.54105 C11.258272,19.7214037 12.3549183,20.5810134 13.6560037,20.6039524 C12.6386378,21.401989 11.3564671,21.8768671 9.96483293,21.8768671 C9.72497927,21.8768671 9.48794268,21.8635866 9.25573537,21.8358183 C10.5709061,22.6781232 12.1335768,23.1707085 13.8113451,23.1707085 C19.280089,23.1707085 22.2686012,18.6424646 22.2686012,14.7138549 C22.2686012,14.584672 22.2661866,14.4558915 22.26015,14.3295256 C22.8416744,13.9097817 23.3467354,13.3862085 23.7435402,12.7905988" id="Fill-3"></path>
            </g>
            <g id="ig-icon" transform="translate(184.517001, 7.000000)" fill="#FFFFFF">
                <path d="M16.5,0.804878049 C7.84554878,0.804878049 0.804878049,7.84554878 0.804878049,16.5 C0.804878049,25.1544512 7.84554878,32.195122 16.5,32.195122 C25.1544512,32.195122 32.195122,25.1544512 32.195122,16.5 C32.195122,7.84554878 25.1544512,0.804878049 16.5,0.804878049 M16.5,33 C7.40206098,33 0,25.597939 0,16.5 C0,7.40206098 7.40206098,0 16.5,0 C25.597939,0 33,7.40206098 33,16.5 C33,25.597939 25.597939,33 16.5,33" id="Fill-1"></path>
                <path d="M22.3341585,20.9409951 C22.3341585,21.7064341 21.7115854,22.3278 20.9457439,22.3278 L12.057878,22.3278 C11.2920366,22.3278 10.6698659,21.7064341 10.6698659,20.9409951 L10.6698659,15.0134707 L12.8325732,15.0134707 C12.6462439,15.4734585 12.5404024,15.9744951 12.5404024,16.5000805 C12.5404024,18.6837146 14.3175732,20.4588732 16.5020122,20.4588732 C18.6864512,20.4588732 20.4632195,18.6837146 20.4632195,16.5000805 C20.4632195,15.9744951 20.3569756,15.4734585 20.1714512,15.0134707 L22.3341585,15.0134707 L22.3341585,20.9409951 Z M14.4346829,15.0134707 C14.8974878,14.3719829 15.6508537,13.9510317 16.5020122,13.9510317 C17.3531707,13.9510317 18.1057317,14.3719829 18.568939,15.0134707 C18.8711707,15.4324098 19.0530732,15.9443122 19.0530732,16.5000805 C19.0530732,17.9053976 17.9081341,19.0475195 16.5020122,19.0475195 C15.0954878,19.0475195 13.9517561,17.9053976 13.9517561,16.5000805 C13.9517561,15.9443122 14.1328537,15.4324098 14.4346829,15.0134707 L14.4346829,15.0134707 Z M21.7486098,10.9303244 L22.0685488,10.9287146 L22.0685488,11.2478488 L22.0685488,13.3823854 L19.6213171,13.391239 L19.6124634,10.9371659 L21.7486098,10.9303244 Z M20.9457439,9.26100732 L12.057878,9.26100732 C10.5145244,9.26100732 9.25810976,10.5162146 9.25810976,12.0591659 L9.25810976,15.0134707 L9.25810976,20.9409951 C9.25810976,22.4839463 10.5145244,23.7387512 12.057878,23.7387512 L20.9457439,23.7387512 C22.4890976,23.7387512 23.7459146,22.4839463 23.7459146,20.9409951 L23.7459146,15.0134707 L23.7459146,12.0591659 C23.7459146,10.5162146 22.4890976,9.26100732 20.9457439,9.26100732 L20.9457439,9.26100732 Z" id="Fill-3"></path>
            </g>
            <polygon id="close-icon" fill="#2F2F2F" opacity="0.599999964" points="12.84 29.18 7.44 21.41 12.78 14 11.04 14 6.45 20.42 1.89 14 0.09 14 5.4 21.41 0 29.18 1.77 29.18 6.42 22.49 11.04 29.18"></polygon>
            <g id="delete-icon" transform="translate(37.000000, 9.000000)">
                <g id="Oval-5-Copy">
                    <use fill="url(#linearGradient-1)" fill-rule="evenodd" xlink:href="#path-2"></use>
                    <use fill="black" fill-opacity="1" filter="url(#filter-3)" xlink:href="#path-2"></use>
                    <use stroke="#DADADA" mask="url(#mask-4)" stroke-width="4" xlink:href="#path-2"></use>
                </g>
                <polygon id="Page-1-Copy" stroke="#2E2E2E" stroke-width="0.5" fill="#2E2E2E" points="18 9.725 16.9892857 8.71428571 13 12.7035714 9.01071429 8.71428571 8 9.725 11.9892857 13.7142857 8 17.7035714 9.01071429 18.7142857 13 14.725 16.9892857 18.7142857 18 17.7035714 14.0107143 13.7142857"></polygon>
            </g>
            <g id="delete-icon-copy" transform="translate(37.000000, 37.000000)">
                <g id="Oval-5-Copy">
                    <use fill="#141414" fill-rule="evenodd" xlink:href="#path-5"></use>
                    <use fill="black" fill-opacity="1" filter="url(#filter-6)" xlink:href="#path-5"></use>
                    <use stroke="#FDFDFD" mask="url(#mask-7)" stroke-width="4" xlink:href="#path-5"></use>
                </g>
                <polygon id="Page-1-Copy" stroke="#FFFFFF" stroke-width="0.5" fill="#FFFFFF" points="18 9.725 16.9892857 8.71428571 13 12.7035714 9.01071429 8.71428571 8 9.725 11.9892857 13.7142857 8 17.7035714 9.01071429 18.7142857 13 14.725 16.9892857 18.7142857 18 17.7035714 14.0107143 13.7142857"></polygon>
            </g>
            <g id="iMover-app-icon" transform="translate(241.517001, 0.000000)">
                <g id="iMover-Marketing-Site---Mobile">
                    <g>
                        <g id="Homepage---New-Visitor---2">
                            <g id="iMover-app-icon">
                                <rect id="Rectangle-7" fill="#273045" x="0" y="0" width="62.3076923" height="62.3076923" rx="10"></rect>
                                <g id="mark" transform="translate(9.692308, 15.230769)">
                                    <path d="M19.1719537,17.3654983 C19.2450088,17.4412533 19.3099278,17.5214472 19.3676148,17.6048533 C19.5375115,17.7866183 19.7163354,17.9592132 19.9048209,18.1219957 C20.2884588,18.4109389 20.5611865,18.7255815 20.7224387,19.1769567 C20.7348688,19.1462926 20.7479204,19.1160375 20.761876,19.0864832 C20.6987651,18.7671095 20.6410216,18.4465677 20.5914142,18.1248577 C20.5814701,18.1192506 20.5713565,18.1142274 20.561469,18.1083867 C20.0943799,17.8338702 19.6194372,17.5748318 19.1380535,17.3294024 C19.1494666,17.341376 19.1604841,17.3535832 19.1719537,17.3654983" id="Fill-1" fill="#61AF7D"></path>
                                    <g id="Group-5" transform="translate(0.000000, 14.235081)">
                                        <g id="Fill-3-Clipped">
                                            <mask id="mask-9" fill="white">
                                                <use xlink:href="#path-8"></use>
                                            </mask>
                                            <g id="path-1"></g>
                                            <path d="M32.3208594,2.01701866 L32.3440811,4.75318875 C32.3440811,5.72176469 31.4866304,6.46412736 30.6160718,6.63905862 C30.5236371,6.7261446 30.4244223,6.79956315 30.3209135,6.85195492 C29.4404106,7.29801501 28.4880394,7.62982952 27.5007507,7.37657345 C27.0036035,7.2490109 26.5426164,6.96065177 26.1896016,6.57159765 C25.8947259,6.5637126 25.5942565,6.4839276 25.3072343,6.32628505 C25.1157543,6.22115107 24.9402075,6.08914952 24.7783903,5.93915839 C24.8009339,6.57825614 24.5658356,7.1549744 24.1102727,7.54408692 C24.0258045,9.79301945 24.1373364,12.2574766 22.1004957,13.5977012 C21.2222528,14.1755876 20.0841081,13.7561614 19.555038,12.9077303 C19.0218999,12.0528742 19.3672871,10.925546 20.1125843,10.3550774 C20.1255229,10.3320063 20.138405,10.3088184 20.1506656,10.2853385 C20.2218562,10.0600013 20.2728761,9.82905703 20.3116918,9.59519235 C20.4053695,8.64244491 20.3738988,7.67573802 20.4335068,6.71942771 C20.191911,7.04014473 19.8101375,7.29451055 19.4526593,7.39625687 C19.0320135,7.51599278 18.387626,7.47861181 18.0190736,7.2024015 C17.4743529,6.79413124 17.0019529,6.36401646 16.5699505,5.87893998 C16.2746227,5.57422668 16.0128562,5.27523735 15.8261788,4.93547939 C15.796742,4.88186106 15.7703563,4.82760025 15.7463436,4.77287216 C15.7510897,4.82748343 15.7538017,4.88238672 15.7534626,4.93740684 C15.7515416,5.2373307 15.7355521,5.53702094 15.7461177,5.83624392 C16.2930419,6.11116926 16.7927882,6.46149902 17.1860878,6.90668299 C17.5395545,7.30677618 17.7161749,7.79173584 17.7143104,8.27628664 C17.8594599,8.84529507 17.7474761,9.47668299 17.3880204,9.95767093 C16.825389,10.7104886 15.7683223,11.4621965 15.8139746,10.5001622 C15.9458466,7.7215297 12.8262316,9.14539417 12.8262316,9.14539417 C12.8891166,8.86001383 11.8552152,6.33148334 12.0519497,6.11140288 C12.0248295,5.72234878 12.0300275,5.32716185 12.0325135,4.93740684 C12.0393501,3.85908271 12.8794551,3.06105743 13.8929598,3.01409759 C14.629217,2.97998745 15.2927017,3.49327488 15.5892725,4.16776774 C15.5214719,3.44356988 15.864034,2.72363579 16.4936184,2.30403441 C16.6391636,2.20701912 16.8116594,2.13821477 16.9935908,2.09604437 C16.6557747,1.92041222 16.3855331,1.69688571 16.1651814,1.34357715 C15.976922,1.04178423 13.324622,0.369744506 13.3404986,0.0146253039 L-0.368131938,7.72421658 L21.4060778,20.4011868 L43.180286,7.72421658 L32.3208594,2.01701866 Z" id="Fill-3" fill="#93CEC8" mask="url(#mask-9)"></path>
                                        </g>
                                    </g>
                                    <polygon id="Fill-26" fill="#5BABA3" points="20.7927489 28.1156821 26.8248722 31.497013 37.1939208 25.4566638 32.2544494 22.6683613"></polygon>
                                    <path d="M21.7224852,27.9699828 L21.6947999,17.7395709 L27.6987057,20.9266489 C27.7630596,20.9608175 27.8335722,20.9779894 27.9040283,20.9779894 C27.9690037,20.9779894 28.0341487,20.9634458 28.0945477,20.9341835 L32.3201023,18.8904959 L32.2533753,22.6689526" id="Fill-6" fill="#FFFFFF"></path>
                                    <polygon id="Fill-8" fill="#FFFFFF" points="21.0820357 12.6894663 17.6135304 14.8320382 11.3984826 11.4743512 21.2627807 6.04762746"></polygon>
                                    <polygon id="Fill-10" fill="#FFFFFF" points="18.5175148 15.2638469 21.5078004 13.5079343 24.3664399 15.0712181 21.262758 16.6142344"></polygon>
                                    <polygon id="Fill-12" fill="#FFFFFF" points="21.9040831 12.8023685 25.3007198 14.6598522 31.9253394 11.3926971 22.0904216 5.95750427"></polygon>
                                    <polygon id="Fill-14" fill="#FFFFFF" points="15.1369412 0 4.77719092 5.29075044 10.4097193 10.870853 20.6467507 5.23362765"></polygon>
                                    <path d="M18.6623028,20.7403456 L17.1925571,19.9619454 C17.0826072,19.9037128 17.0140722,19.7860796 17.0157672,19.6583418 L17.0380284,17.9768992 C17.0413618,17.7268555 17.2983258,17.5680449 17.512971,17.6834585 L18.9381945,18.4497101 C19.0443588,18.5067744 19.1115378,18.6195597 19.1131764,18.7432091 L19.1354375,20.4368005 C19.1387711,20.6899398 18.8802816,20.8558178 18.6623028,20.7403456 L18.6623028,20.7403456 Z M20.756435,17.4063722 L10.4920574,11.9433772 L10.4920574,22.1494038 L12.7990832,23.494476 L12.8249039,19.2142092 C12.8269944,18.9283616 12.9920887,18.6434485 13.294253,18.7753332 L14.715013,19.5285599 C15.1369582,19.7682653 15.1353762,20.0885735 15.1369582,20.3133849 L15.1369582,24.8575381 L20.7851937,28.150743 L20.756435,17.4063722 Z" id="Fill-16" fill="#FFFFFF"></path>
                                    <polygon id="Fill-18" fill="#FFFFFF" points="32.6761284 11.9988003 22.2338874 17.148788 27.7055027 17.6485249 38.4049336 12.4736554"></polygon>
                                    <g id="Fill-20"></g>
                                    <g id="Fill-22"></g>
                                    <polygon id="Fill-24" fill="#FFFFFF" points="38.4177084 5.75557111 32.8123001 10.6187767 22.5550416 5.02097667 28.1564382 0.457461285"></polygon>
                                </g>
                            </g>
                        </g>
                    </g>
                </g>
            </g>
        </g>
    </g>
</svg>