<?xml version="1.0" standalone="no"?>
<!DOCTYPE svg PUBLIC "-//W3C//DTD SVG 1.1//EN" "http://www.w3.org/Graphics/SVG/1.1/DTD/svg11.dtd" >
<svg>
<metadata>
Created by FontForge 20120731 at Fri Dec 30 20:46:33 2016
 By www-data
Copyright (c) 2012 by Process Type Foundry, LLC. All rights reserved.
</metadata>
<defs>
<font id="Colfax-Bold" horiz-adv-x="298" >
  <font-face 
    font-family="Colfax Bold"
    font-weight="700"
    font-stretch="normal"
    units-per-em="1000"
    panose-1="2 0 0 0 0 0 0 0 0 0"
    ascent="750"
    descent="-250"
    x-height="524"
    cap-height="700"
    bbox="-58 -250 1271 966"
    underline-thickness="90"
    underline-position="-10"
    stemh="133"
    stemv="168"
    unicode-range="U+0020-FB02"
  />
<missing-glyph horiz-adv-x="696" 
d="M95 0v700h506v-700h-506zM114 18h468v664h-468v-664zM486 435l-84 -85l84 -83l-54 -54l-84 84l-83 -84l-54 54l84 83l-84 85l53 53l84 -84l85 84z" />
    <glyph glyph-name=".notdef" horiz-adv-x="696" 
d="M95 0v700h506v-700h-506zM114 18h468v664h-468v-664zM486 435l-84 -85l84 -83l-54 -54l-84 84l-83 -84l-54 54l84 83l-84 85l53 53l84 -84l85 84z" />
    <glyph glyph-name="space" unicode=" " horiz-adv-x="220" 
 />
    <glyph glyph-name="exclam" unicode="!" horiz-adv-x="316" 
d="M246 430l-40 -205h-96l-40 205v270h176v-270zM64 85c0 53 39 93 94 93s94 -40 94 -93s-39 -93 -94 -93s-94 40 -94 93z" />
    <glyph glyph-name="quotedbl" unicode="&#x22;" horiz-adv-x="510" 
d="M65 412v288h145v-288h-145zM300 412v288h145v-288h-145z" />
    <glyph glyph-name="numbersign" unicode="#" horiz-adv-x="694" 
d="M384 0l19 182h-140l-19 -182h-126l19 182h-97v113h109l13 121h-101v113h113l19 171h126l-19 -171h140l19 171h126l-19 -171h93v-113h-105l-13 -121h97v-113h-109l-19 -182h-126zM288 416l-13 -121h140l13 121h-140z" />
    <glyph glyph-name="dollar" unicode="$" horiz-adv-x="597" 
d="M557 217c0 -103 -71 -181 -172 -207v-120h-165v119c-111 24 -172 99 -172 207v15h162v-16c0 -56 35 -84 93 -84c52 0 88 26 88 74c0 32 -17 53 -52 65l-121 41c-105 36 -165 78 -165 187c0 108 69 171 163 193v119h165v-120c95 -24 158 -91 158 -193v-17h-160v14
c0 46 -29 72 -82 72c-48 0 -79 -19 -79 -59c0 -32 22 -43 52 -54l114 -40c93 -33 173 -77 173 -196z" />
    <glyph glyph-name="percent" unicode="%" horiz-adv-x="906" 
d="M216 0l359 700h120l-359 -700h-120zM382 550v-79c0 -95 -65 -160 -171 -160s-171 65 -171 160v79c0 95 65 160 171 160s171 -65 171 -160zM265 461v99c0 32 -20 52 -54 52s-54 -20 -54 -52v-99c0 -32 20 -52 54 -52s54 20 54 52zM871 229v-79c0 -95 -65 -160 -171 -160
s-171 65 -171 160v79c0 95 65 160 171 160s171 -65 171 -160zM754 140v99c0 32 -20 52 -54 52s-54 -20 -54 -52v-99c0 -32 20 -52 54 -52s54 20 54 52z" />
    <glyph glyph-name="ampersand" unicode="&#x26;" horiz-adv-x="695" 
d="M688 85l-97 -99l-66 64c-50 -41 -118 -64 -200 -64c-160 0 -285 83 -285 225c0 105 56 161 121 192c-36 39 -58 76 -58 133c0 110 90 178 213 178s210 -72 210 -179v-34h-140v31c0 38 -20 69 -68 69c-45 0 -70 -24 -70 -59c0 -26 15 -44 37 -66l209 -203v82h126v-81
c0 -39 -5 -76 -17 -108zM332 99c48 0 84 11 110 31l-197 191c-28 -21 -55 -55 -55 -107c0 -70 55 -115 142 -115z" />
    <glyph glyph-name="quotesingle" unicode="'" horiz-adv-x="275" 
d="M65 412v288h145v-288h-145z" />
    <glyph glyph-name="parenleft" unicode="(" horiz-adv-x="353" 
d="M182 782h161c-71 -175 -111 -312 -111 -458s40 -283 111 -458h-161c-79 146 -122 298 -122 458s43 312 122 458z" />
    <glyph glyph-name="parenright" unicode=")" horiz-adv-x="353" 
d="M10 782h161c79 -146 122 -298 122 -458s-43 -312 -122 -458h-161c71 175 111 312 111 458s-40 283 -111 458z" />
    <glyph glyph-name="asterisk" unicode="*" horiz-adv-x="445" 
d="M50 581l34 59l105 -61v121h68v-120l104 60l34 -59l-105 -61l105 -60l-34 -59l-104 60v-120h-68v120l-105 -60l-34 59l104 60z" />
    <glyph glyph-name="plus" unicode="+" horiz-adv-x="600" 
d="M535 289h-155v-175h-158v175h-157v142h157v175h158v-175h155v-142z" />
    <glyph glyph-name="comma" unicode="," horiz-adv-x="288" 
d="M18 -137l52 287h191l-101 -287h-142z" />
    <glyph glyph-name="hyphen" unicode="-" horiz-adv-x="406" 
d="M358 249h-310v150h310v-150z" />
    <glyph glyph-name="period" unicode="." horiz-adv-x="278" 
d="M45 85c0 53 39 93 94 93s94 -40 94 -93s-39 -93 -94 -93s-94 40 -94 93z" />
    <glyph glyph-name="slash" unicode="/" horiz-adv-x="498" 
d="M25 -105l282 855h166l-282 -855h-166z" />
    <glyph glyph-name="zero" unicode="0" horiz-adv-x="644" 
d="M322 -14c-164 0 -274 101 -274 250v228c0 149 110 250 274 250s274 -101 274 -250v-228c0 -149 -110 -250 -274 -250zM426 464c0 77 -41 111 -104 111s-104 -34 -104 -111v-228c0 -77 41 -111 104 -111s104 34 104 111v228z" />
    <glyph glyph-name="one" unicode="1" horiz-adv-x="421" 
d="M346 0h-170v529l-151 -49v150l180 70h141v-700z" />
    <glyph glyph-name="two" unicode="2" horiz-adv-x="611" 
d="M222 472h-163v21c0 145 95 221 245 221c151 0 252 -84 252 -214c0 -108 -73 -174 -149 -238l-145 -123h287v-139h-497v129l276 264c36 35 58 66 58 106c0 49 -34 76 -81 76c-57 0 -83 -34 -83 -90v-13z" />
    <glyph glyph-name="three" unicode="3" horiz-adv-x="618" 
d="M82 564v136h457v-137l-155 -145c96 -15 186 -73 186 -205s-120 -227 -268 -227c-143 0 -258 76 -260 227h159c3 -55 41 -91 102 -91c62 0 99 38 99 86c0 52 -32 84 -100 84h-106v133l136 139h-250z" />
    <glyph glyph-name="four" unicode="4" horiz-adv-x="620" 
d="M245 700h154l-194 -434h144v141h156v-141h85v-128h-85v-138h-156v138h-309v123z" />
    <glyph glyph-name="five" unicode="5" horiz-adv-x="627" 
d="M584 236c0 -138 -113 -250 -276 -250c-126 0 -242 66 -258 208h162c7 -42 44 -70 96 -70c68 0 108 46 108 107c0 59 -38 105 -106 105c-47 0 -80 -19 -94 -50h-156l67 414h392v-135h-258l-21 -124c29 22 67 32 115 32c122 0 229 -86 229 -237z" />
    <glyph glyph-name="six" unicode="6" horiz-adv-x="621" 
d="M285 700h182l-183 -251c23 15 47 21 83 21c116 0 219 -85 219 -236c0 -141 -117 -248 -269 -248c-169 0 -275 103 -275 249c0 81 28 154 69 213zM315 341c-66 0 -105 -44 -105 -109c0 -63 34 -111 105 -111c63 0 105 50 105 110c0 64 -37 110 -105 110z" />
    <glyph glyph-name="seven" unicode="7" horiz-adv-x="562" 
d="M527 700v-121l-281 -579h-174l279 561h-306v139h482z" />
    <glyph glyph-name="eight" unicode="8" horiz-adv-x="632" 
d="M316 -14c-163 0 -266 85 -266 215c0 97 58 144 109 164c-46 30 -80 76 -80 151c0 129 104 198 237 198s237 -69 237 -198c0 -75 -34 -121 -80 -151c51 -20 109 -67 109 -164c0 -130 -103 -215 -266 -215zM316 115c57 0 101 30 101 87c0 58 -40 89 -101 89
s-101 -31 -101 -89c0 -57 44 -87 101 -87zM316 420c49 0 78 33 78 83c0 52 -27 82 -78 82s-78 -30 -78 -82c0 -50 29 -83 78 -83z" />
    <glyph glyph-name="nine" unicode="9" horiz-adv-x="621" 
d="M337 0h-185l183 251c-23 -15 -45 -21 -81 -21c-116 0 -219 85 -219 236c0 147 108 248 269 248c167 0 275 -97 275 -249c0 -88 -28 -159 -62 -207zM306 359c66 0 105 44 105 109c0 63 -34 111 -105 111c-63 0 -105 -44 -105 -110c0 -64 37 -110 105 -110z" />
    <glyph glyph-name="colon" unicode=":" horiz-adv-x="278" 
d="M45 376c0 53 39 93 94 93s94 -40 94 -93s-39 -93 -94 -93s-94 40 -94 93zM45 85c0 53 39 93 94 93s94 -40 94 -93s-39 -93 -94 -93s-94 40 -94 93z" />
    <glyph glyph-name="semicolon" unicode=";" horiz-adv-x="288" 
d="M0 -137l52 287h191l-101 -287h-142zM60 376c0 53 39 93 94 93s94 -40 94 -93s-39 -93 -94 -93s-94 40 -94 93z" />
    <glyph glyph-name="less" unicode="&#x3c;" horiz-adv-x="585" 
d="M50 413l470 203v-149l-265 -107l265 -107v-149l-470 203v106z" />
    <glyph glyph-name="equal" unicode="=" horiz-adv-x="620" 
d="M545 420h-470v132h470v-132zM545 168h-470v132h470v-132z" />
    <glyph glyph-name="greater" unicode="&#x3e;" horiz-adv-x="585" 
d="M65 616l470 -203v-106l-470 -203v149l265 107l-265 107v149z" />
    <glyph glyph-name="question" unicode="?" horiz-adv-x="537" 
d="M178 228v46c0 71 20 117 61 147l43 32c34 25 57 36 57 70s-31 56 -78 56c-53 0 -82 -22 -82 -69v-20h-154v22c0 144 100 202 239 202c137 0 243 -74 243 -191c0 -76 -32 -116 -78 -148l-50 -35c-35 -24 -52 -44 -52 -89v-23h-149zM159 85c0 53 39 93 94 93s94 -40 94 -93
s-39 -93 -94 -93s-94 40 -94 93z" />
    <glyph glyph-name="at" unicode="@" horiz-adv-x="934" 
d="M562 491h116l-39 -219c-2 -11 -3 -19 -3 -27c0 -40 20 -68 59 -68c71 0 95 108 95 186c0 151 -112 262 -293 262c-191 0 -346 -119 -346 -354c0 -172 118 -301 314 -301c67 0 136 10 191 26l-14 -90c-48 -14 -124 -26 -189 -26c-251 0 -408 175 -408 389
c0 274 182 445 458 445c245 0 391 -160 391 -350c0 -127 -63 -270 -212 -270c-62 0 -115 32 -129 84c-13 -29 -61 -71 -135 -71c-94 0 -158 65 -158 150c0 10 1 21 3 32l9 51c18 104 82 157 173 157c58 0 93 -28 109 -50zM394 329l-8 -45c-1 -6 -2 -12 -2 -18
c0 -37 22 -62 61 -62c40 0 64 31 71 73l8 46c1 6 2 12 2 17c0 35 -22 61 -61 61c-43 0 -63 -25 -71 -72z" />
    <glyph glyph-name="A" unicode="A" horiz-adv-x="716" 
d="M524 0l-40 130h-253l-39 -130h-172l250 700h176l250 -700h-172zM358 545l-85 -277h169z" />
    <glyph glyph-name="B" unicode="B" horiz-adv-x="686" 
d="M650 196c0 -120 -103 -196 -241 -196h-339v700h335c132 0 202 -80 202 -179c0 -74 -30 -126 -92 -159c76 -21 135 -68 135 -166zM480 212c0 47 -30 75 -80 75h-162v-152h165c49 0 77 32 77 77zM238 421h128c45 0 70 29 70 75c0 43 -27 69 -72 69h-126v-144z" />
    <glyph glyph-name="C" unicode="C" horiz-adv-x="708" 
d="M220 296c0 -99 42 -168 146 -168c92 0 136 60 139 130h159c-2 -148 -111 -272 -296 -272c-216 0 -320 136 -320 318v92c0 182 104 318 320 318c185 0 294 -124 296 -272h-159c-3 70 -47 130 -139 130c-104 0 -146 -69 -146 -168v-108z" />
    <glyph glyph-name="D" unicode="D" horiz-adv-x="716" 
d="M70 700h306c193 0 292 -117 292 -278v-144c0 -161 -99 -278 -292 -278h-306v700zM496 277v146c0 89 -47 136 -151 136h-104v-418h104c104 0 151 47 151 136z" />
    <glyph glyph-name="E" unicode="E" horiz-adv-x="626" 
d="M70 0v700h507v-143h-335v-131h305v-143h-305v-140h336v-143h-508z" />
    <glyph glyph-name="F" unicode="F" horiz-adv-x="597" 
d="M242 0h-172v700h492v-143h-320v-151h290v-143h-290v-263z" />
    <glyph glyph-name="G" unicode="G" horiz-adv-x="717" 
d="M662 458h-164c-3 59 -49 114 -133 114c-96 0 -145 -53 -145 -164v-110c0 -101 40 -174 145 -174c81 0 132 46 135 111h-136v139h305v-99c0 -175 -128 -289 -308 -289c-208 0 -313 140 -313 316v98c0 195 122 314 312 314c187 0 298 -107 302 -256z" />
    <glyph glyph-name="H" unicode="H" horiz-adv-x="728" 
d="M658 0h-172v274h-244v-274h-172v700h172v-272h244v272h172v-700z" />
    <glyph glyph-name="I" unicode="I" horiz-adv-x="322" 
d="M247 700v-700h-172v700h172z" />
    <glyph glyph-name="J" unicode="J" horiz-adv-x="621" 
d="M381 700h172v-485c0 -134 -107 -229 -261 -229c-159 0 -257 91 -257 231v9h164v-9c0 -51 26 -88 91 -88c61 0 91 35 91 86v485z" />
    <glyph glyph-name="K" unicode="K" horiz-adv-x="674" 
d="M242 0h-172v700h172v-334l209 334h198l-231 -347l238 -353h-202l-212 340v-340z" />
    <glyph glyph-name="L" unicode="L" horiz-adv-x="586" 
d="M70 700h172v-557h309v-143h-481v700z" />
    <glyph glyph-name="M" unicode="M" horiz-adv-x="825" 
d="M412 319l185 381h158v-700h-165v370l-110 -214h-136l-109 214v-370h-165v700h158z" />
    <glyph glyph-name="N" unicode="N" horiz-adv-x="734" 
d="M664 0h-164l-262 409v-409h-168v700h163l263 -409v409h168v-700z" />
    <glyph glyph-name="O" unicode="O" horiz-adv-x="738" 
d="M690 305c0 -183 -109 -319 -321 -319s-321 136 -321 319v90c0 183 109 319 321 319s321 -136 321 -319v-90zM518 404c0 100 -49 167 -149 167s-149 -67 -149 -167v-108c0 -100 49 -167 149 -167s149 67 149 167v108z" />
    <glyph glyph-name="P" unicode="P" horiz-adv-x="665" 
d="M369 211h-127v-211h-172v700h299c165 0 272 -95 272 -242s-109 -247 -272 -247zM469 458c0 60 -34 99 -110 99h-117v-203h117c76 0 110 44 110 104z" />
    <glyph glyph-name="Q" unicode="Q" horiz-adv-x="738" 
d="M690 305c0 -102 -34 -190 -101 -247l50 -77l-119 -75l-58 90c-24 -6 -59 -10 -93 -10c-212 0 -321 136 -321 319v90c0 183 109 319 321 319s321 -136 321 -319v-90zM518 404c0 100 -49 167 -149 167s-149 -67 -149 -167v-108c0 -100 49 -167 149 -167h8l-43 68l115 77
l48 -75c14 27 21 59 21 97v108z" />
    <glyph glyph-name="R" unicode="R" horiz-adv-x="709" 
d="M474 0l-119 208h-113v-208h-172v700h329c170 0 262 -104 262 -247c0 -100 -49 -178 -130 -217l143 -236h-200zM489 451c0 67 -38 111 -110 111h-137v-218h137c72 0 110 43 110 107z" />
    <glyph glyph-name="S" unicode="S" horiz-adv-x="655" 
d="M615 215c0 -140 -124 -229 -286 -229c-168 0 -281 80 -281 221v19h165v-14c0 -59 38 -95 117 -95c71 0 118 29 118 83c0 31 -13 53 -48 62l-175 44c-109 27 -165 75 -165 189c0 139 99 219 265 219c157 0 257 -85 257 -213v-17h-159v12c0 47 -26 86 -98 86
c-60 0 -98 -21 -98 -71c0 -33 17 -50 45 -57l186 -50c112 -30 157 -92 157 -189z" />
    <glyph glyph-name="T" unicode="T" horiz-adv-x="600" 
d="M25 700h550v-145h-189v-555h-172v555h-189v145z" />
    <glyph glyph-name="U" unicode="U" horiz-adv-x="726" 
d="M489 257v443h172v-439c0 -164 -115 -275 -298 -275s-298 111 -298 275v439h172v-443c0 -84 50 -128 126 -128s126 44 126 128z" />
    <glyph glyph-name="V" unicode="V" horiz-adv-x="672" 
d="M660 700l-232 -700h-184l-232 700h178l146 -511l146 511h178z" />
    <glyph glyph-name="W" unicode="W" horiz-adv-x="974" 
d="M567 700l131 -459l87 459h169l-168 -700h-161l-138 489l-138 -489h-161l-168 700h169l87 -459l131 459h160z" />
    <glyph glyph-name="X" unicode="X" horiz-adv-x="696" 
d="M659 700l-221 -344l230 -356h-180l-140 217l-139 -217h-181l230 357l-220 343h178l132 -205l132 205h179z" />
    <glyph glyph-name="Y" unicode="Y" horiz-adv-x="654" 
d="M648 700l-235 -455v-245h-172v245l-235 455h187l134 -291l134 291h187z" />
    <glyph glyph-name="Z" unicode="Z" horiz-adv-x="648" 
d="M74 557v143h508v-143l-323 -414h331v-143h-530v143l322 414h-308z" />
    <glyph glyph-name="bracketleft" unicode="[" horiz-adv-x="395" 
d="M370 -134h-305v916h305v-138h-137v-640h137v-138z" />
    <glyph glyph-name="backslash" unicode="\" horiz-adv-x="498" 
d="M191 750l282 -855h-166l-282 855h166z" />
    <glyph glyph-name="bracketright" unicode="]" horiz-adv-x="395" 
d="M330 -134h-305v138h137v640h-137v138h305v-916z" />
    <glyph glyph-name="asciicircum" unicode="^" horiz-adv-x="556" 
d="M350 700l171 -290h-164l-79 147l-79 -147h-164l171 290h144z" />
    <glyph glyph-name="underscore" unicode="_" horiz-adv-x="529" 
d="M530 -145h-531v90h531v-90z" />
    <glyph glyph-name="grave" unicode="`" horiz-adv-x="416" 
d="M346 578h-167l-109 160h208z" />
    <glyph glyph-name="a" unicode="a" horiz-adv-x="605" 
d="M550 0h-161v44c-30 -35 -87 -56 -155 -56c-120 0 -192 69 -192 165c0 108 81 163 203 163c63 0 111 -18 137 -39v61c0 39 -26 68 -73 68c-35 0 -62 -12 -76 -38h-153c22 105 111 168 234 168c149 0 236 -81 236 -210v-326zM290 95c51 0 92 26 92 61s-38 61 -90 61
c-57 0 -93 -20 -93 -61c0 -40 38 -61 91 -61z" />
    <glyph glyph-name="b" unicode="b" horiz-adv-x="624" 
d="M228 730v-250c22 27 73 56 136 56c148 0 222 -108 222 -229v-90c0 -121 -74 -229 -222 -229c-72 0 -128 38 -144 67v-55h-160v730h168zM418 296c0 62 -30 102 -96 102c-50 0 -94 -33 -94 -99v-74c0 -66 44 -99 94 -99c66 0 96 42 96 102v68z" />
    <glyph glyph-name="c" unicode="c" horiz-adv-x="576" 
d="M294 -12c-165 0 -256 101 -256 240v68c0 139 91 240 256 240c144 0 243 -89 246 -214h-152c-3 43 -32 81 -91 81c-62 0 -91 -39 -91 -97v-88c0 -58 29 -97 91 -97c59 0 88 38 91 81h152c-3 -125 -102 -214 -246 -214z" />
    <glyph glyph-name="d" unicode="d" horiz-adv-x="624" 
d="M564 730v-730h-160v55c-16 -29 -72 -67 -144 -67c-148 0 -222 112 -222 231v86c0 119 74 231 222 231c63 0 113 -29 136 -56v250h168zM396 225v74c0 66 -44 99 -94 99c-66 0 -96 -40 -96 -102v-68c0 -60 30 -102 96 -102c50 0 94 33 94 99z" />
    <glyph glyph-name="e" unicode="e" horiz-adv-x="568" 
d="M526 209h-326v-12c0 -52 31 -91 90 -91c47 0 74 24 85 50h148c-18 -97 -114 -168 -233 -168c-151 0 -252 87 -252 237v65c0 146 89 246 248 246s240 -106 240 -231v-96zM200 318v-11h172v19c0 52 -26 91 -85 91c-61 0 -87 -39 -87 -99z" />
    <glyph glyph-name="f" unicode="f" horiz-adv-x="372" 
d="M257 0h-168v394h-61v130h61v37c0 115 45 169 170 169h98v-132h-55c-33 0 -45 -13 -45 -43v-31h94v-130h-94v-394z" />
    <glyph glyph-name="g" unicode="g" horiz-adv-x="619" 
d="M559 524v-508c0 -114 -107 -202 -262 -202c-128 0 -236 63 -254 168h163c13 -29 48 -43 91 -43c59 0 94 34 94 82v62c-25 -30 -79 -57 -137 -57c-145 0 -216 106 -216 219v72c0 116 72 219 217 219c72 0 128 -38 144 -67v55h160zM391 309c0 60 -44 91 -94 91
c-63 0 -93 -40 -93 -94v-50c0 -55 30 -94 92 -94c57 0 95 34 95 91v56z" />
    <glyph glyph-name="h" unicode="h" horiz-adv-x="606" 
d="M228 0h-168v730h168v-262c24 40 78 68 139 68c120 0 184 -77 184 -198v-338h-168v312c0 48 -25 78 -76 78c-43 0 -79 -20 -79 -80v-310z" />
    <glyph glyph-name="i" unicode="i" 
d="M233 0h-168v524h168v-524zM56 658c0 53 37 87 93 87s93 -34 93 -87s-37 -87 -93 -87s-93 34 -93 87z" />
    <glyph glyph-name="j" unicode="j" 
d="M65 524h168v-567c0 -88 -50 -131 -143 -131h-83v127h30c17 0 28 6 28 25v546zM56 658c0 53 37 87 93 87s93 -34 93 -87s-37 -87 -93 -87s-93 34 -93 87z" />
    <glyph glyph-name="k" unicode="k" horiz-adv-x="572" 
d="M228 0h-168v730h168v-449l134 243h187l-150 -257l155 -267h-187l-139 252v-252z" />
    <glyph glyph-name="l" unicode="l" 
d="M233 0h-168v730h168v-730z" />
    <glyph glyph-name="m" unicode="m" horiz-adv-x="919" 
d="M623 390c-41 0 -77 -22 -77 -80v-310h-168v312c0 48 -22 78 -73 78c-43 0 -77 -22 -77 -80v-310h-168v524h161v-61c20 45 74 73 141 73c71 0 122 -27 152 -74c39 46 89 74 166 74c120 0 184 -77 184 -198v-338h-168v312c0 48 -22 78 -73 78z" />
    <glyph glyph-name="n" unicode="n" horiz-adv-x="606" 
d="M228 0h-168v524h161v-61c27 48 79 73 146 73c120 0 184 -77 184 -198v-338h-168v312c0 48 -25 78 -76 78c-43 0 -79 -20 -79 -80v-310z" />
    <glyph glyph-name="o" unicode="o" horiz-adv-x="586" 
d="M548 297v-70c0 -138 -92 -239 -255 -239s-255 101 -255 239v70c0 138 92 239 255 239s255 -101 255 -239zM385 306c0 53 -28 97 -92 97s-92 -44 -92 -97v-88c0 -53 28 -97 92 -97s92 44 92 97v88z" />
    <glyph glyph-name="p" unicode="p" horiz-adv-x="624" 
d="M60 -174v698h160v-55c16 29 72 67 144 67c148 0 222 -112 222 -231v-86c0 -119 -74 -231 -222 -231c-63 0 -114 29 -136 55v-217h-168zM228 299v-74c0 -66 44 -99 94 -99c66 0 96 40 96 102v68c0 60 -30 102 -96 102c-50 0 -94 -33 -94 -99z" />
    <glyph glyph-name="q" unicode="q" horiz-adv-x="624" 
d="M564 524v-698h-168v217c-23 -26 -73 -55 -136 -55c-148 0 -222 112 -222 231v86c0 119 74 231 222 231c72 0 128 -38 144 -67v55h160zM396 225v74c0 66 -44 99 -94 99c-66 0 -96 -42 -96 -102v-68c0 -62 30 -102 96 -102c50 0 94 33 94 99z" />
    <glyph glyph-name="r" unicode="r" horiz-adv-x="392" 
d="M370 528v-165h-22c-78 0 -120 -32 -120 -123v-240h-168v524h159v-92c16 78 68 96 143 96h8z" />
    <glyph glyph-name="s" unicode="s" horiz-adv-x="533" 
d="M503 171c0 -105 -94 -183 -234 -183c-139 0 -231 62 -231 168v11h148v-7c0 -37 34 -56 84 -56c45 0 79 16 79 46c0 19 -9 30 -35 36l-145 33c-81 18 -123 67 -123 141c0 113 90 176 217 176c124 0 213 -64 213 -169v-9h-145v9c0 32 -19 53 -66 53c-43 0 -63 -14 -63 -43
c0 -20 10 -30 33 -35l153 -37c71 -17 115 -62 115 -134z" />
    <glyph glyph-name="t" unicode="t" horiz-adv-x="395" 
d="M93 665h168v-141h101v-130h-101v-223c0 -24 12 -35 38 -35h55v-136h-111c-100 0 -150 59 -150 155v239h-68v130h68v141z" />
    <glyph glyph-name="u" unicode="u" horiz-adv-x="601" 
d="M373 524h168v-524h-161v61c-27 -48 -79 -73 -146 -73c-117 0 -179 77 -179 198v338h168v-317c0 -48 24 -78 72 -78c43 0 78 20 78 80v315z" />
    <glyph glyph-name="v" unicode="v" horiz-adv-x="532" 
d="M349 0h-166l-178 524h166l95 -352l95 352h166z" />
    <glyph glyph-name="w" unicode="w" horiz-adv-x="796" 
d="M470 524l96 -318l59 318h163l-135 -524h-152l-103 317l-103 -317h-152l-135 524h163l59 -318l96 318h144z" />
    <glyph glyph-name="x" unicode="x" horiz-adv-x="554" 
d="M535 524l-173 -258l180 -266h-171l-94 140l-94 -140h-171l180 266l-173 258h169l89 -132l89 132h169z" />
    <glyph glyph-name="y" unicode="y" horiz-adv-x="529" 
d="M306 -174h-164l51 174l-188 524h167l100 -354l84 354h168z" />
    <glyph glyph-name="z" unicode="z" horiz-adv-x="521" 
d="M481 0h-436v117l230 282h-221v125h420v-117l-231 -282h238v-125z" />
    <glyph glyph-name="braceleft" unicode="{" horiz-adv-x="435" 
d="M295 573v-124c0 -67 -33 -109 -109 -125c76 -16 109 -58 109 -125v-124c0 -50 21 -71 70 -71h45v-138h-79c-145 0 -204 63 -204 195v123c0 51 -30 71 -79 71h-28v138h28c49 0 79 20 79 71v123c0 132 59 195 204 195h79v-138h-45c-49 0 -70 -21 -70 -71z" />
    <glyph glyph-name="bar" unicode="|" horiz-adv-x="344" 
d="M244 -150h-144v950h144v-950z" />
    <glyph glyph-name="braceright" unicode="}" horiz-adv-x="435" 
d="M140 449v124c0 50 -21 71 -70 71h-45v138h79c145 0 204 -63 204 -195v-123c0 -51 30 -71 79 -71h28v-138h-28c-49 0 -79 -20 -79 -71v-123c0 -132 -59 -195 -204 -195h-79v138h45c49 0 70 21 70 71v124c0 67 33 109 109 125c-76 16 -109 58 -109 125z" />
    <glyph glyph-name="asciitilde" unicode="~" horiz-adv-x="664" 
d="M483 475l141 -48c-26 -103 -67 -187 -165 -187c-82 0 -153 71 -208 71c-45 0 -52 -37 -59 -72l-147 41c21 129 72 202 179 202c79 0 166 -71 204 -71c36 0 43 25 55 64z" />
    <glyph glyph-name="uni00A0" unicode="&#xa0;" horiz-adv-x="220" 
 />
    <glyph glyph-name="exclamdown" unicode="&#xa1;" horiz-adv-x="316" 
d="M70 270l40 205h96l40 -205v-270h-176v270zM252 615c0 -53 -39 -93 -94 -93s-94 40 -94 93s39 93 94 93s94 -40 94 -93z" />
    <glyph glyph-name="cent" unicode="&#xa2;" horiz-adv-x="584" 
d="M534 399h-156c-2 36 -30 67 -82 67c-55 0 -83 -35 -83 -91v-50c0 -56 28 -91 83 -91c52 0 80 31 82 67h156c-2 -89 -61 -165 -158 -192v-109h-166v110c-100 28 -160 106 -160 215v50c0 108 60 186 160 214v111h166v-110c97 -27 156 -102 158 -191z" />
    <glyph glyph-name="sterling" unicode="&#xa3;" horiz-adv-x="678" 
d="M339 402h177v-135h-177v-132h252v-135h-531v135h111v132h-98v135h98v103c0 142 100 209 234 209c144 0 233 -83 233 -209v-22h-155v24c0 37 -20 69 -72 69c-45 0 -72 -20 -72 -69v-105z" />
    <glyph glyph-name="currency" unicode="&#xa4;" horiz-adv-x="638" 
d="M108 325v44c0 39 11 80 32 104l-85 136h168l34 -59c14 4 40 7 62 7c21 0 44 -2 61 -7l35 59h168l-85 -135c21 -27 33 -66 33 -105v-44c0 -40 -12 -80 -33 -105l85 -135h-168l-35 59c-19 -5 -40 -7 -61 -7c-22 0 -43 2 -62 7l-34 -59h-168l85 135c-21 28 -32 65 -32 105z
M388 316v62c0 35 -24 63 -69 63s-68 -28 -68 -63v-62c0 -35 23 -63 68 -63s69 28 69 63z" />
    <glyph glyph-name="yen" unicode="&#xa5;" horiz-adv-x="636" 
d="M76 122v124h157l-30 70h-127v124h74l-110 260h182l96 -289l96 289h182l-111 -260h75v-124h-128l-30 -70h158v-124h-158v-122h-168v122h-158z" />
    <glyph glyph-name="brokenbar" unicode="&#xa6;" horiz-adv-x="344" 
d="M244 800v-390h-144v390h144zM244 -150h-144v390h144v-390z" />
    <glyph glyph-name="section" unicode="&#xa7;" horiz-adv-x="630" 
d="M580 280c0 -59 -32 -112 -62 -143c19 -23 29 -53 29 -94c0 -102 -91 -183 -236 -183c-133 0 -237 67 -237 188v14h147v-7c0 -45 28 -73 90 -73c46 0 83 17 83 52c0 28 -18 39 -47 48l-160 52c-85 28 -132 70 -132 162c0 59 28 105 64 137c-20 24 -31 54 -31 97
c0 119 87 184 231 184c147 0 233 -70 233 -190v-12h-145v14c0 38 -22 66 -85 66c-51 0 -81 -17 -81 -51c0 -28 13 -38 47 -49l148 -49c89 -28 144 -73 144 -163zM266 356l-35 12c-9 -11 -22 -27 -22 -56c0 -26 10 -45 43 -56l117 -38l34 -11c12 13 23 35 23 56
c0 26 -12 44 -52 57z" />
    <glyph glyph-name="dieresis" unicode="&#xa8;" horiz-adv-x="510" 
d="M70 657c0 44 33 78 83 78c48 0 81 -34 81 -78s-33 -78 -81 -78c-50 0 -83 34 -83 78zM276 657c0 44 33 78 83 78c48 0 81 -34 81 -78s-33 -78 -81 -78c-50 0 -83 34 -83 78z" />
    <glyph glyph-name="copyright" unicode="&#xa9;" horiz-adv-x="829" 
d="M50 350c0 200 148 362 364 362c218 0 365 -162 365 -362s-147 -362 -365 -362c-216 0 -364 162 -364 362zM731 350c0 168 -121 321 -317 321c-194 0 -316 -153 -316 -321s122 -321 316 -321c196 0 317 153 317 321zM571 392h-86c-5 33 -23 61 -68 61
c-50 0 -68 -36 -68 -78v-50c0 -42 18 -78 68 -78c45 0 63 28 68 61h86c-4 -78 -65 -139 -154 -139c-109 0 -160 74 -160 157v48c0 83 51 157 160 157c89 0 150 -61 154 -139z" />
    <glyph glyph-name="ordfeminine" unicode="&#xaa;" horiz-adv-x="435" 
d="M56 212v98h329v-98h-329zM379 364h-108v31c-16 -21 -52 -38 -95 -38c-79 0 -126 44 -126 107c0 74 55 108 133 108c37 0 65 -10 83 -23v30c0 28 -19 43 -47 43c-24 0 -38 -10 -46 -22h-99c17 72 74 110 153 110c97 0 152 -58 152 -139v-207zM212 432c30 0 54 15 54 37
c0 21 -20 37 -52 37c-34 0 -54 -13 -54 -37c0 -23 20 -37 52 -37z" />
    <glyph glyph-name="guillemotleft" unicode="&#xab;" horiz-adv-x="711" 
d="M368 496l-157 -218l157 -218h-195l-158 218l158 218h195zM671 496l-157 -218l157 -218h-195l-158 218l158 218h195z" />
    <glyph glyph-name="logicalnot" unicode="&#xac;" horiz-adv-x="580" 
d="M45 289v142h470v-317h-158v175h-312z" />
    <glyph glyph-name="registered" unicode="&#xae;" horiz-adv-x="528" 
d="M40 494c0 117 83 218 224 218s224 -101 224 -218c0 -114 -83 -218 -224 -218s-224 104 -224 218zM81 494c0 -102 73 -183 183 -183s183 81 183 183c0 103 -73 183 -183 183s-183 -80 -183 -183zM297 405l-30 57h-25v-57h-51v192h88c47 0 72 -28 72 -68
c0 -26 -13 -47 -33 -58l38 -66h-59zM242 502h28c20 0 30 11 30 27s-10 26 -30 26h-28v-53z" />
    <glyph glyph-name="macron" unicode="&#xaf;" horiz-adv-x="483" 
d="M413 598h-343v127h343v-127z" />
    <glyph glyph-name="degree" unicode="&#xb0;" horiz-adv-x="406" 
d="M203 710c98 0 163 -71 163 -160s-65 -160 -163 -160s-163 71 -163 160s65 160 163 160zM203 636c-51 0 -80 -38 -80 -86s29 -86 80 -86s80 38 80 86s-29 86 -80 86z" />
    <glyph glyph-name="plusminus" unicode="&#xb1;" horiz-adv-x="610" 
d="M540 0h-470v132h157v157h-157v142h157v175h158v-175h155v-142h-155v-157h155v-132z" />
    <glyph glyph-name="twosuperior" unicode="&#xb2;" horiz-adv-x="417" 
d="M166 710h-106v7c0 82 64 130 147 130c89 0 155 -50 155 -127c0 -56 -36 -92 -83 -123l-69 -45h150v-94h-305v86l162 132c16 14 28 23 28 42c0 20 -16 33 -39 33c-26 0 -40 -14 -40 -37v-4z" />
    <glyph glyph-name="threesuperior" unicode="&#xb3;" horiz-adv-x="417" 
d="M76 750v87h262v-87l-76 -59c51 -7 100 -40 100 -109c0 -75 -73 -131 -161 -131c-75 0 -150 46 -151 129h101c2 -27 23 -43 52 -43s48 17 48 40c0 20 -16 35 -43 35h-72v80l66 58h-126z" />
    <glyph glyph-name="acute" unicode="&#xb4;" horiz-adv-x="416" 
d="M237 578h-167l68 160h208z" />
    <glyph glyph-name="mu" unicode="&#xb5;" horiz-adv-x="606" 
d="M378 524h168v-524h-161v61c-27 -48 -79 -73 -146 -73h-11v-162h-168v698h168v-317c0 -48 24 -78 72 -78c43 0 78 20 78 80v315z" />
    <glyph glyph-name="paragraph" unicode="&#xb6;" horiz-adv-x="632" 
d="M557 -174h-113v773h-106v-454c-164 0 -293 94 -293 275s115 280 293 280h219v-874z" />
    <glyph glyph-name="periodcentered" unicode="&#xb7;" horiz-adv-x="288" 
d="M55 286c0 53 39 93 94 93s94 -40 94 -93s-39 -93 -94 -93s-94 40 -94 93z" />
    <glyph glyph-name="cedilla" unicode="&#xb8;" horiz-adv-x="334" 
d="M264 -105c0 -48 -47 -81 -121 -81c-24 0 -53 2 -73 6v61c13 -2 27 -4 40 -4c23 0 35 7 35 21c0 13 -14 17 -35 19l-27 3l19 80h74l-6 -33l17 -2c46 -5 77 -27 77 -70z" />
    <glyph glyph-name="onesuperior" unicode="&#xb9;" horiz-adv-x="328" 
d="M131 458v269l-91 -24v98l112 36h96v-379h-117z" />
    <glyph glyph-name="ordmasculine" unicode="&#xba;" horiz-adv-x="432" 
d="M382 552v-42c0 -91 -63 -154 -166 -154s-166 63 -166 154v42c0 91 63 154 166 154s166 -63 166 -154zM60 212v98h313v-98h-313zM275 506v50c0 36 -16 62 -59 62s-59 -26 -59 -62v-50c0 -36 16 -62 59 -62s59 26 59 62z" />
    <glyph glyph-name="guillemotright" unicode="&#xbb;" horiz-adv-x="711" 
d="M500 278l-157 218h195l158 -218l-158 -218h-195zM197 278l-157 218h195l158 -218l-158 -218h-195z" />
    <glyph glyph-name="onequarter" unicode="&#xbc;" horiz-adv-x="855" 
d="M169 0l359 700h120l-359 -700h-120zM579 379h108l-110 -225h73v70h107v-70h48v-87h-48v-67h-107v67h-189v83zM141 321v269l-91 -24v98l112 36h96v-379h-117z" />
    <glyph glyph-name="onehalf" unicode="&#xbd;" horiz-adv-x="868" 
d="M617 252h-106v7c0 82 64 130 147 130c89 0 155 -50 155 -127c0 -56 -36 -92 -83 -123l-69 -45h150v-94h-305v86l162 132c16 14 28 23 28 42c0 20 -16 33 -39 33c-26 0 -40 -14 -40 -37v-4zM169 0l359 700h120l-359 -700h-120zM141 321v269l-91 -24v98l112 36h96v-379
h-117z" />
    <glyph glyph-name="threequarters" unicode="&#xbe;" horiz-adv-x="900" 
d="M81 613v87h262v-87l-76 -59c51 -7 100 -40 100 -109c0 -75 -73 -131 -161 -131c-75 0 -150 46 -151 129h101c2 -27 23 -43 52 -43s48 17 48 40c0 20 -16 35 -43 35h-72v80l66 58h-126zM214 0l359 700h120l-359 -700h-120zM624 379h108l-110 -225h73v70h107v-70h48v-87
h-48v-67h-107v67h-189v83z" />
    <glyph glyph-name="questiondown" unicode="&#xbf;" horiz-adv-x="537" 
d="M359 472v-46c0 -71 -20 -117 -61 -147l-43 -32c-34 -25 -57 -36 -57 -70s31 -56 78 -56c53 0 82 22 82 69v20h154v-22c0 -144 -100 -202 -239 -202c-137 0 -243 74 -243 191c0 76 32 116 78 148l50 35c35 24 52 44 52 89v23h149zM378 615c0 -53 -39 -93 -94 -93
s-94 40 -94 93s39 93 94 93s94 -40 94 -93z" />
    <glyph glyph-name="Agrave" unicode="&#xc0;" horiz-adv-x="716" 
d="M524 0l-40 130h-253l-39 -130h-172l250 700h176l250 -700h-172zM358 545l-85 -277h169zM437 750h-170l-103 148h206z" />
    <glyph glyph-name="grave.case" horiz-adv-x="413" 
d="M343 750h-170l-103 148h206z" />
    <glyph glyph-name="Aacute" unicode="&#xc1;" horiz-adv-x="716" 
d="M524 0l-40 130h-253l-39 -130h-172l250 700h176l250 -700h-172zM358 545l-85 -277h169zM451 750h-170l67 148h206z" />
    <glyph glyph-name="acute.case" horiz-adv-x="413" 
d="M240 750h-170l67 148h206z" />
    <glyph glyph-name="Acircumflex" unicode="&#xc2;" horiz-adv-x="716" 
d="M524 0l-40 130h-253l-39 -130h-172l250 700h176l250 -700h-172zM358 545l-85 -277h169zM441 898l119 -148h-158l-44 58l-44 -58h-158l119 148h166z" />
    <glyph glyph-name="circumflex.case" horiz-adv-x="544" 
d="M355 898l119 -148h-158l-44 58l-44 -58h-158l119 148h166z" />
    <glyph glyph-name="Atilde" unicode="&#xc3;" horiz-adv-x="716" 
d="M524 0l-40 130h-253l-39 -130h-172l250 700h176l250 -700h-172zM358 545l-85 -277h169zM450 750c-53 0 -120 31 -167 31c-21 0 -31 -13 -38 -37l-97 25c19 95 45 141 126 141c64 0 139 -31 171 -31c28 0 33 21 40 37l96 -29c-17 -83 -47 -137 -131 -137z" />
    <glyph glyph-name="tilde.case" horiz-adv-x="573" 
d="M372 750c-53 0 -120 31 -167 31c-21 0 -31 -13 -38 -37l-97 25c19 95 45 141 126 141c64 0 139 -31 171 -31c28 0 33 21 40 37l96 -29c-17 -83 -47 -137 -131 -137z" />
    <glyph glyph-name="Adieresis" unicode="&#xc4;" horiz-adv-x="716" 
d="M524 0l-40 130h-253l-39 -130h-172l250 700h176l250 -700h-172zM358 545l-85 -277h169zM162 828c0 44 33 78 83 78c48 0 81 -34 81 -78s-33 -78 -81 -78c-50 0 -83 34 -83 78zM390 828c0 44 33 78 83 78c48 0 81 -34 81 -78s-33 -78 -81 -78c-50 0 -83 34 -83 78z" />
    <glyph glyph-name="dieresis.case" horiz-adv-x="519" 
d="M63 828c0 44 33 78 83 78c48 0 81 -34 81 -78s-33 -78 -81 -78c-50 0 -83 34 -83 78zM291 828c0 44 33 78 83 78c48 0 81 -34 81 -78s-33 -78 -81 -78c-50 0 -83 34 -83 78z" />
    <glyph glyph-name="Aring" unicode="&#xc5;" horiz-adv-x="716" 
d="M469 741c0 -20 -6 -39 -18 -55l245 -686h-172l-40 130h-253l-39 -130h-172l245 685c-13 16 -19 36 -19 56c0 51 42 97 112 97s111 -46 111 -97zM358 545l-85 -277h169zM313 741c0 -24 17 -41 45 -41s46 17 46 41c0 25 -18 41 -46 41s-45 -16 -45 -41z" />
    <glyph glyph-name="AE" unicode="&#xc6;" horiz-adv-x="1091" 
d="M535 0v130h-269l-81 -130h-185l464 700h578v-143h-335v-131h305v-143h-305v-140h336v-143h-508zM353 268h182v289z" />
    <glyph glyph-name="Ccedilla" unicode="&#xc7;" horiz-adv-x="708" 
d="M487 -105c0 -48 -47 -81 -121 -81c-24 0 -53 2 -73 6v61c13 -2 27 -4 40 -4c23 0 35 7 35 21c0 13 -14 17 -35 19l-27 3l16 69c-185 17 -274 146 -274 315v92c0 182 104 318 320 318c185 0 294 -124 296 -272h-159c-3 70 -47 130 -139 130c-104 0 -146 -69 -146 -168
v-108c0 -99 42 -168 146 -168c92 0 136 60 139 130h159c-2 -140 -100 -259 -268 -271l-3 -20l17 -2c46 -5 77 -27 77 -70z" />
    <glyph glyph-name="Egrave" unicode="&#xc8;" horiz-adv-x="626" 
d="M70 0v700h507v-143h-335v-131h305v-143h-305v-140h336v-143h-508zM424 750h-170l-103 148h206z" />
    <glyph glyph-name="Eacute" unicode="&#xc9;" horiz-adv-x="626" 
d="M70 0v700h507v-143h-335v-131h305v-143h-305v-140h336v-143h-508zM396 750h-170l67 148h206z" />
    <glyph glyph-name="Ecircumflex" unicode="&#xca;" horiz-adv-x="626" 
d="M70 0v700h507v-143h-335v-131h305v-143h-305v-140h336v-143h-508zM407 898l119 -148h-158l-44 58l-44 -58h-158l119 148h166z" />
    <glyph glyph-name="Edieresis" unicode="&#xcb;" horiz-adv-x="626" 
d="M70 0v700h507v-143h-335v-131h305v-143h-305v-140h336v-143h-508zM128 828c0 44 33 78 83 78c48 0 81 -34 81 -78s-33 -78 -81 -78c-50 0 -83 34 -83 78zM356 828c0 44 33 78 83 78c48 0 81 -34 81 -78s-33 -78 -81 -78c-50 0 -83 34 -83 78z" />
    <glyph glyph-name="Igrave" unicode="&#xcc;" horiz-adv-x="322" 
d="M247 700v-700h-172v700h172zM247 750h-170l-103 148h206z" />
    <glyph glyph-name="Iacute" unicode="&#xcd;" horiz-adv-x="322" 
d="M247 700v-700h-172v700h172zM246 750h-170l67 148h206z" />
    <glyph glyph-name="Icircumflex" unicode="&#xce;" horiz-adv-x="322" 
d="M247 700v-700h-172v700h172zM244 898l119 -148h-158l-44 58l-44 -58h-158l119 148h166z" />
    <glyph glyph-name="Idieresis" unicode="&#xcf;" horiz-adv-x="322" 
d="M247 700v-700h-172v700h172zM-35 828c0 44 33 78 83 78c48 0 81 -34 81 -78s-33 -78 -81 -78c-50 0 -83 34 -83 78zM193 828c0 44 33 78 83 78c48 0 81 -34 81 -78s-33 -78 -81 -78c-50 0 -83 34 -83 78z" />
    <glyph glyph-name="Eth" unicode="&#xd0;" horiz-adv-x="747" 
d="M30 279v143h71v278h306c193 0 292 -117 292 -278v-144c0 -161 -99 -278 -292 -278h-306v279h-71zM527 277v146c0 89 -47 136 -151 136h-104v-137h135v-143h-135v-138h104c104 0 151 47 151 136z" />
    <glyph glyph-name="Ntilde" unicode="&#xd1;" horiz-adv-x="734" 
d="M664 0h-164l-262 409v-409h-168v700h163l263 -409v409h168v-700zM450 750c-53 0 -120 31 -167 31c-21 0 -31 -13 -38 -37l-97 25c19 95 45 141 126 141c64 0 139 -31 171 -31c28 0 33 21 40 37l96 -29c-17 -83 -47 -137 -131 -137z" />
    <glyph glyph-name="Ograve" unicode="&#xd2;" horiz-adv-x="738" 
d="M690 305c0 -183 -109 -319 -321 -319s-321 136 -321 319v90c0 183 109 319 321 319s321 -136 321 -319v-90zM518 404c0 100 -49 167 -149 167s-149 -67 -149 -167v-108c0 -100 49 -167 149 -167s149 67 149 167v108zM450 750h-170l-103 148h206z" />
    <glyph glyph-name="Oacute" unicode="&#xd3;" horiz-adv-x="738" 
d="M690 305c0 -183 -109 -319 -321 -319s-321 136 -321 319v90c0 183 109 319 321 319s321 -136 321 -319v-90zM518 404c0 100 -49 167 -149 167s-149 -67 -149 -167v-108c0 -100 49 -167 149 -167s149 67 149 167v108zM450 750h-170l67 148h206z" />
    <glyph glyph-name="Ocircumflex" unicode="&#xd4;" horiz-adv-x="738" 
d="M690 305c0 -183 -109 -319 -321 -319s-321 136 -321 319v90c0 183 109 319 321 319s321 -136 321 -319v-90zM518 404c0 100 -49 167 -149 167s-149 -67 -149 -167v-108c0 -100 49 -167 149 -167s149 67 149 167v108zM452 898l119 -148h-158l-44 58l-44 -58h-158l119 148
h166z" />
    <glyph glyph-name="Otilde" unicode="&#xd5;" horiz-adv-x="738" 
d="M690 305c0 -183 -109 -319 -321 -319s-321 136 -321 319v90c0 183 109 319 321 319s321 -136 321 -319v-90zM518 404c0 100 -49 167 -149 167s-149 -67 -149 -167v-108c0 -100 49 -167 149 -167s149 67 149 167v108zM454 750c-53 0 -120 31 -167 31
c-21 0 -31 -13 -38 -37l-97 25c19 95 45 141 126 141c64 0 139 -31 171 -31c28 0 33 21 40 37l96 -29c-17 -83 -47 -137 -131 -137z" />
    <glyph glyph-name="Odieresis" unicode="&#xd6;" horiz-adv-x="738" 
d="M690 305c0 -183 -109 -319 -321 -319s-321 136 -321 319v90c0 183 109 319 321 319s321 -136 321 -319v-90zM518 404c0 100 -49 167 -149 167s-149 -67 -149 -167v-108c0 -100 49 -167 149 -167s149 67 149 167v108zM173 828c0 44 33 78 83 78c48 0 81 -34 81 -78
s-33 -78 -81 -78c-50 0 -83 34 -83 78zM401 828c0 44 33 78 83 78c48 0 81 -34 81 -78s-33 -78 -81 -78c-50 0 -83 34 -83 78z" />
    <glyph glyph-name="multiply" unicode="&#xd7;" horiz-adv-x="624" 
d="M453 111l-141 141l-141 -141l-106 106l141 141l-141 141l106 106l141 -141l141 141l106 -106l-141 -141l141 -141z" />
    <glyph glyph-name="Oslash" unicode="&#xd8;" horiz-adv-x="738" 
d="M690 305c0 -183 -109 -319 -321 -319c-61 0 -114 11 -157 31l-44 -67h-120l82 126c-55 57 -82 137 -82 229v90c0 183 109 319 321 319c61 0 113 -11 157 -32l44 68h120l-82 -126c54 -57 82 -137 82 -229v-90zM220 296c0 -25 3 -48 9 -69l214 328c-21 10 -45 16 -74 16
c-100 0 -149 -67 -149 -167v-108zM518 404c0 25 -3 48 -9 68l-214 -327c20 -11 45 -16 74 -16c100 0 149 67 149 167v108z" />
    <glyph glyph-name="Ugrave" unicode="&#xd9;" horiz-adv-x="726" 
d="M489 257v443h172v-439c0 -164 -115 -275 -298 -275s-298 111 -298 275v439h172v-443c0 -84 50 -128 126 -128s126 44 126 128zM466 750h-170l-103 148h206z" />
    <glyph glyph-name="Uacute" unicode="&#xda;" horiz-adv-x="726" 
d="M489 257v443h172v-439c0 -164 -115 -275 -298 -275s-298 111 -298 275v439h172v-443c0 -84 50 -128 126 -128s126 44 126 128zM431 750h-170l67 148h206z" />
    <glyph glyph-name="Ucircumflex" unicode="&#xdb;" horiz-adv-x="726" 
d="M489 257v443h172v-439c0 -164 -115 -275 -298 -275s-298 111 -298 275v439h172v-443c0 -84 50 -128 126 -128s126 44 126 128zM446 898l119 -148h-158l-44 58l-44 -58h-158l119 148h166z" />
    <glyph glyph-name="Udieresis" unicode="&#xdc;" horiz-adv-x="726" 
d="M489 257v443h172v-439c0 -164 -115 -275 -298 -275s-298 111 -298 275v439h172v-443c0 -84 50 -128 126 -128s126 44 126 128zM167 828c0 44 33 78 83 78c48 0 81 -34 81 -78s-33 -78 -81 -78c-50 0 -83 34 -83 78zM395 828c0 44 33 78 83 78c48 0 81 -34 81 -78
s-33 -78 -81 -78c-50 0 -83 34 -83 78z" />
    <glyph glyph-name="Yacute" unicode="&#xdd;" horiz-adv-x="654" 
d="M648 700l-235 -455v-245h-172v245l-235 455h187l134 -291l134 291h187zM409 750h-170l67 148h206z" />
    <glyph glyph-name="Thorn" unicode="&#xde;" horiz-adv-x="665" 
d="M369 114h-127v-114h-172v700h172v-97h127c165 0 272 -95 272 -242s-109 -247 -272 -247zM469 361c0 60 -34 99 -110 99h-117v-203h117c76 0 110 44 110 104z" />
    <glyph glyph-name="germandbls" unicode="&#xdf;" horiz-adv-x="631" 
d="M308 599c-50 0 -80 -26 -80 -82v-517h-168v509c0 150 96 225 247 225c153 0 254 -80 254 -201c0 -73 -34 -130 -89 -162c74 -21 129 -73 129 -168c0 -134 -96 -203 -257 -203h-32v133h25c64 0 96 27 96 83c0 46 -35 75 -93 75h-29v127c52 4 82 45 82 95
c0 52 -26 86 -85 86z" />
    <glyph glyph-name="agrave" unicode="&#xe0;" horiz-adv-x="605" 
d="M550 0h-161v44c-30 -35 -87 -56 -155 -56c-120 0 -192 69 -192 165c0 108 81 163 203 163c63 0 111 -18 137 -39v61c0 39 -26 68 -73 68c-35 0 -62 -12 -76 -38h-153c22 105 111 168 234 168c149 0 236 -81 236 -210v-326zM290 95c51 0 92 26 92 61s-38 61 -90 61
c-57 0 -93 -20 -93 -61c0 -40 38 -61 91 -61zM399 578h-167l-109 160h208z" />
    <glyph glyph-name="aacute" unicode="&#xe1;" horiz-adv-x="605" 
d="M550 0h-161v44c-30 -35 -87 -56 -155 -56c-120 0 -192 69 -192 165c0 108 81 163 203 163c63 0 111 -18 137 -39v61c0 39 -26 68 -73 68c-35 0 -62 -12 -76 -38h-153c22 105 111 168 234 168c149 0 236 -81 236 -210v-326zM290 95c51 0 92 26 92 61s-38 61 -90 61
c-57 0 -93 -20 -93 -61c0 -40 38 -61 91 -61zM393 578h-167l68 160h208z" />
    <glyph glyph-name="acircumflex" unicode="&#xe2;" horiz-adv-x="605" 
d="M550 0h-161v44c-30 -35 -87 -56 -155 -56c-120 0 -192 69 -192 165c0 108 81 163 203 163c63 0 111 -18 137 -39v61c0 39 -26 68 -73 68c-35 0 -62 -12 -76 -38h-153c22 105 111 168 234 168c149 0 236 -81 236 -210v-326zM290 95c51 0 92 26 92 61s-38 61 -90 61
c-57 0 -93 -20 -93 -61c0 -40 38 -61 91 -61zM407 738l113 -160h-152l-42 65l-42 -65h-152l113 160h162z" />
    <glyph glyph-name="circumflex" unicode="&#x2c6;" horiz-adv-x="528" 
d="M345 738l113 -160h-152l-42 65l-42 -65h-152l113 160h162z" />
    <glyph glyph-name="atilde" unicode="&#xe3;" horiz-adv-x="605" 
d="M550 0h-161v44c-30 -35 -87 -56 -155 -56c-120 0 -192 69 -192 165c0 108 81 163 203 163c63 0 111 -18 137 -39v61c0 39 -26 68 -73 68c-35 0 -62 -12 -76 -38h-153c22 105 111 168 234 168c149 0 236 -81 236 -210v-326zM290 95c51 0 92 26 92 61s-38 61 -90 61
c-57 0 -93 -20 -93 -61c0 -40 38 -61 91 -61zM402 578c-45 0 -106 32 -151 32c-21 0 -29 -13 -38 -38l-93 25c13 85 43 141 120 141c54 0 125 -34 152 -34c25 0 32 20 39 38l92 -29c-17 -72 -41 -135 -121 -135z" />
    <glyph glyph-name="tilde" unicode="&#x2dc;" horiz-adv-x="543" 
d="M352 578c-45 0 -106 32 -151 32c-21 0 -29 -13 -38 -38l-93 25c13 85 43 141 120 141c54 0 125 -34 152 -34c25 0 32 20 39 38l92 -29c-17 -72 -41 -135 -121 -135z" />
    <glyph glyph-name="adieresis" unicode="&#xe4;" horiz-adv-x="605" 
d="M550 0h-161v44c-30 -35 -87 -56 -155 -56c-120 0 -192 69 -192 165c0 108 81 163 203 163c63 0 111 -18 137 -39v61c0 39 -26 68 -73 68c-35 0 -62 -12 -76 -38h-153c22 105 111 168 234 168c149 0 236 -81 236 -210v-326zM290 95c51 0 92 26 92 61s-38 61 -90 61
c-57 0 -93 -20 -93 -61c0 -40 38 -61 91 -61zM135 657c0 44 33 78 83 78c48 0 81 -34 81 -78s-33 -78 -81 -78c-50 0 -83 34 -83 78zM341 657c0 44 33 78 83 78c48 0 81 -34 81 -78s-33 -78 -81 -78c-50 0 -83 34 -83 78z" />
    <glyph glyph-name="aring" unicode="&#xe5;" horiz-adv-x="605" 
d="M550 0h-161v44c-30 -35 -87 -56 -155 -56c-120 0 -192 69 -192 165c0 108 81 163 203 163c63 0 111 -18 137 -39v61c0 39 -26 68 -73 68c-35 0 -62 -12 -76 -38h-153c22 105 111 168 234 168c149 0 236 -81 236 -210v-326zM290 95c51 0 92 26 92 61s-38 61 -90 61
c-57 0 -93 -20 -93 -61c0 -40 38 -61 91 -61zM430 675c0 -51 -41 -97 -111 -97s-112 46 -112 97s42 97 112 97s111 -46 111 -97zM274 675c0 -24 17 -41 45 -41s46 17 46 41c0 25 -18 41 -46 41s-45 -16 -45 -41z" />
    <glyph glyph-name="ring" unicode="&#x2da;" horiz-adv-x="363" 
d="M293 675c0 -51 -41 -97 -111 -97s-112 46 -112 97s42 97 112 97s111 -46 111 -97zM137 675c0 -24 17 -41 45 -41s46 17 46 41c0 25 -18 41 -46 41s-45 -16 -45 -41z" />
    <glyph glyph-name="ae" unicode="&#xe6;" horiz-adv-x="923" 
d="M876 209h-326v-12c0 -52 31 -91 90 -91c47 0 74 24 85 50h148c-18 -97 -114 -168 -233 -168c-80 0 -145 23 -186 70c-34 -42 -112 -70 -192 -70c-105 0 -220 42 -220 166c0 111 92 163 203 163c63 0 107 -15 137 -36v51c0 44 -27 74 -75 74c-39 0 -61 -16 -74 -39h-154
c26 111 110 169 235 169c63 0 122 -23 154 -53c35 31 94 53 168 53c159 0 240 -106 240 -231v-96zM287 95c53 0 95 22 95 59c0 35 -35 63 -89 63c-62 0 -96 -20 -96 -61c0 -38 35 -61 90 -61zM550 318v-11h172v19c0 52 -26 91 -85 91c-61 0 -87 -39 -87 -99z" />
    <glyph glyph-name="ccedilla" unicode="&#xe7;" horiz-adv-x="576" 
d="M412 -105c0 -48 -47 -81 -121 -81c-24 0 -53 2 -73 6v61c13 -2 27 -4 40 -4c23 0 35 7 35 21c0 13 -14 17 -35 19l-27 3l17 71c-136 17 -210 111 -210 237v68c0 139 91 240 256 240c144 0 243 -89 246 -214h-152c-3 43 -32 81 -91 81c-62 0 -91 -39 -91 -97v-88
c0 -58 29 -97 91 -97c59 0 88 38 91 81h152c-3 -117 -89 -202 -218 -213l-4 -22l17 -2c46 -5 77 -27 77 -70z" />
    <glyph glyph-name="egrave" unicode="&#xe8;" horiz-adv-x="568" 
d="M526 209h-326v-12c0 -52 31 -91 90 -91c47 0 74 24 85 50h148c-18 -97 -114 -168 -233 -168c-151 0 -252 87 -252 237v65c0 146 89 246 248 246s240 -106 240 -231v-96zM200 318v-11h172v19c0 52 -26 91 -85 91c-61 0 -87 -39 -87 -99zM370 578h-167l-109 160h208z" />
    <glyph glyph-name="eacute" unicode="&#xe9;" horiz-adv-x="568" 
d="M526 209h-326v-12c0 -52 31 -91 90 -91c47 0 74 24 85 50h148c-18 -97 -114 -168 -233 -168c-151 0 -252 87 -252 237v65c0 146 89 246 248 246s240 -106 240 -231v-96zM200 318v-11h172v19c0 52 -26 91 -85 91c-61 0 -87 -39 -87 -99zM367 578h-167l68 160h208z" />
    <glyph glyph-name="ecircumflex" unicode="&#xea;" horiz-adv-x="568" 
d="M526 209h-326v-12c0 -52 31 -91 90 -91c47 0 74 24 85 50h148c-18 -97 -114 -168 -233 -168c-151 0 -252 87 -252 237v65c0 146 89 246 248 246s240 -106 240 -231v-96zM200 318v-11h172v19c0 52 -26 91 -85 91c-61 0 -87 -39 -87 -99zM368 738l113 -160h-152l-42 65
l-42 -65h-152l113 160h162z" />
    <glyph glyph-name="edieresis" unicode="&#xeb;" horiz-adv-x="568" 
d="M526 209h-326v-12c0 -52 31 -91 90 -91c47 0 74 24 85 50h148c-18 -97 -114 -168 -233 -168c-151 0 -252 87 -252 237v65c0 146 89 246 248 246s240 -106 240 -231v-96zM200 318v-11h172v19c0 52 -26 91 -85 91c-61 0 -87 -39 -87 -99zM103 657c0 44 33 78 83 78
c48 0 81 -34 81 -78s-33 -78 -81 -78c-50 0 -83 34 -83 78zM309 657c0 44 33 78 83 78c48 0 81 -34 81 -78s-33 -78 -81 -78c-50 0 -83 34 -83 78z" />
    <glyph glyph-name="igrave" unicode="&#xec;" 
d="M233 0h-168v524h168v-524zM233 578h-167l-109 160h208z" />
    <glyph glyph-name="dotlessi" unicode="&#x131;" 
d="M233 0h-168v524h168v-524z" />
    <glyph glyph-name="iacute" unicode="&#xed;" 
d="M233 0h-168v524h168v-524zM236 578h-167l68 160h208z" />
    <glyph glyph-name="icircumflex" unicode="&#xee;" 
d="M233 0h-168v524h168v-524zM230 738l113 -160h-152l-42 65l-42 -65h-152l113 160h162z" />
    <glyph glyph-name="idieresis" unicode="&#xef;" 
d="M233 0h-168v524h168v-524zM-36 657c0 44 33 78 83 78c48 0 81 -34 81 -78s-33 -78 -81 -78c-50 0 -83 34 -83 78zM170 657c0 44 33 78 83 78c48 0 81 -34 81 -78s-33 -78 -81 -78c-50 0 -83 34 -83 78z" />
    <glyph glyph-name="eth" unicode="&#xf0;" horiz-adv-x="584" 
d="M147 521l-34 89l87 33c-39 30 -83 59 -130 87h198c20 -11 41 -24 61 -38l110 42l35 -89l-63 -24c79 -82 135 -191 135 -317v-78c0 -137 -104 -240 -259 -240c-151 0 -249 101 -249 234v62c0 143 84 228 211 228c53 0 86 -16 112 -40c-21 35 -48 69 -80 101zM292 387
c-62 0 -90 -38 -90 -102v-80c0 -51 31 -89 88 -89c61 0 92 37 92 90v80c0 62 -27 101 -90 101z" />
    <glyph glyph-name="ntilde" unicode="&#xf1;" horiz-adv-x="606" 
d="M228 0h-168v524h161v-61c27 48 79 73 146 73c120 0 184 -77 184 -198v-338h-168v312c0 48 -25 78 -76 78c-43 0 -79 -20 -79 -80v-310zM386 578c-45 0 -106 32 -151 32c-21 0 -29 -13 -38 -38l-93 25c13 85 43 141 120 141c54 0 125 -34 152 -34c25 0 32 20 39 38l92 -29
c-17 -72 -41 -135 -121 -135z" />
    <glyph glyph-name="ograve" unicode="&#xf2;" horiz-adv-x="586" 
d="M548 297v-70c0 -138 -92 -239 -255 -239s-255 101 -255 239v70c0 138 92 239 255 239s255 -101 255 -239zM385 306c0 53 -28 97 -92 97s-92 -44 -92 -97v-88c0 -53 28 -97 92 -97s92 44 92 97v88zM376 578h-167l-109 160h208z" />
    <glyph glyph-name="oacute" unicode="&#xf3;" horiz-adv-x="586" 
d="M548 297v-70c0 -138 -92 -239 -255 -239s-255 101 -255 239v70c0 138 92 239 255 239s255 -101 255 -239zM385 306c0 53 -28 97 -92 97s-92 -44 -92 -97v-88c0 -53 28 -97 92 -97s92 44 92 97v88zM370 578h-167l68 160h208z" />
    <glyph glyph-name="ocircumflex" unicode="&#xf4;" horiz-adv-x="586" 
d="M548 297v-70c0 -138 -92 -239 -255 -239s-255 101 -255 239v70c0 138 92 239 255 239s255 -101 255 -239zM385 306c0 53 -28 97 -92 97s-92 -44 -92 -97v-88c0 -53 28 -97 92 -97s92 44 92 97v88zM374 738l113 -160h-152l-42 65l-42 -65h-152l113 160h162z" />
    <glyph glyph-name="otilde" unicode="&#xf5;" horiz-adv-x="586" 
d="M548 297v-70c0 -138 -92 -239 -255 -239s-255 101 -255 239v70c0 138 92 239 255 239s255 -101 255 -239zM385 306c0 53 -28 97 -92 97s-92 -44 -92 -97v-88c0 -53 28 -97 92 -97s92 44 92 97v88zM374 578c-45 0 -106 32 -151 32c-21 0 -29 -13 -38 -38l-93 25
c13 85 43 141 120 141c54 0 125 -34 152 -34c25 0 32 20 39 38l92 -29c-17 -72 -41 -135 -121 -135z" />
    <glyph glyph-name="odieresis" unicode="&#xf6;" horiz-adv-x="586" 
d="M548 297v-70c0 -138 -92 -239 -255 -239s-255 101 -255 239v70c0 138 92 239 255 239s255 -101 255 -239zM385 306c0 53 -28 97 -92 97s-92 -44 -92 -97v-88c0 -53 28 -97 92 -97s92 44 92 97v88zM108 657c0 44 33 78 83 78c48 0 81 -34 81 -78s-33 -78 -81 -78
c-50 0 -83 34 -83 78zM314 657c0 44 33 78 83 78c48 0 81 -34 81 -78s-33 -78 -81 -78c-50 0 -83 34 -83 78z" />
    <glyph glyph-name="divide" unicode="&#xf7;" horiz-adv-x="600" 
d="M65 289v142h470v-142h-470zM214 153c0 48 36 85 86 85s86 -37 86 -85s-36 -85 -86 -85s-86 37 -86 85zM214 567c0 48 36 85 86 85s86 -37 86 -85s-36 -85 -86 -85s-86 37 -86 85z" />
    <glyph glyph-name="oslash" unicode="&#xf8;" horiz-adv-x="586" 
d="M548 297v-70c0 -138 -92 -239 -255 -239c-49 0 -91 9 -126 25l-43 -63h-86l70 102c-46 43 -70 104 -70 175v70c0 138 92 239 255 239c49 0 91 -9 127 -26l43 64h85l-70 -103c46 -42 70 -104 70 -174zM201 218c0 -7 1 -18 2 -26l137 201c-13 6 -29 10 -47 10
c-64 0 -92 -44 -92 -97v-88zM385 306c0 8 -1 18 -2 25l-136 -200c12 -7 28 -10 46 -10c64 0 92 44 92 97v88z" />
    <glyph glyph-name="ugrave" unicode="&#xf9;" horiz-adv-x="601" 
d="M373 524h168v-524h-161v61c-27 -48 -79 -73 -146 -73c-117 0 -179 77 -179 198v338h168v-317c0 -48 24 -78 72 -78c43 0 78 20 78 80v315zM398 578h-167l-109 160h208z" />
    <glyph glyph-name="uacute" unicode="&#xfa;" horiz-adv-x="601" 
d="M373 524h168v-524h-161v61c-27 -48 -79 -73 -146 -73c-117 0 -179 77 -179 198v338h168v-317c0 -48 24 -78 72 -78c43 0 78 20 78 80v315zM383 578h-167l68 160h208z" />
    <glyph glyph-name="ucircumflex" unicode="&#xfb;" horiz-adv-x="601" 
d="M373 524h168v-524h-161v61c-27 -48 -79 -73 -146 -73c-117 0 -179 77 -179 198v338h168v-317c0 -48 24 -78 72 -78c43 0 78 20 78 80v315zM379 738l113 -160h-152l-42 65l-42 -65h-152l113 160h162z" />
    <glyph glyph-name="udieresis" unicode="&#xfc;" horiz-adv-x="601" 
d="M373 524h168v-524h-161v61c-27 -48 -79 -73 -146 -73c-117 0 -179 77 -179 198v338h168v-317c0 -48 24 -78 72 -78c43 0 78 20 78 80v315zM113 657c0 44 33 78 83 78c48 0 81 -34 81 -78s-33 -78 -81 -78c-50 0 -83 34 -83 78zM319 657c0 44 33 78 83 78
c48 0 81 -34 81 -78s-33 -78 -81 -78c-50 0 -83 34 -83 78z" />
    <glyph glyph-name="yacute" unicode="&#xfd;" horiz-adv-x="529" 
d="M306 -174h-164l51 174l-188 524h167l100 -354l84 354h168zM348 578h-167l68 160h208z" />
    <glyph glyph-name="thorn" unicode="&#xfe;" horiz-adv-x="624" 
d="M60 -174v904h168v-250c22 27 73 56 136 56c148 0 222 -112 222 -231v-86c0 -119 -74 -231 -222 -231c-63 0 -114 29 -136 55v-217h-168zM228 304v-79c0 -66 44 -99 94 -99c66 0 96 40 96 102v68c0 60 -30 102 -96 102c-49 0 -94 -32 -94 -94z" />
    <glyph glyph-name="ydieresis" unicode="&#xff;" horiz-adv-x="529" 
d="M306 -174h-164l51 174l-188 524h167l100 -354l84 354h168zM84 657c0 44 33 78 83 78c48 0 81 -34 81 -78s-33 -78 -81 -78c-50 0 -83 34 -83 78zM290 657c0 44 33 78 83 78c48 0 81 -34 81 -78s-33 -78 -81 -78c-50 0 -83 34 -83 78z" />
    <glyph glyph-name="Amacron" unicode="&#x100;" horiz-adv-x="716" 
d="M524 0l-40 130h-253l-39 -130h-172l250 700h176l250 -700h-172zM358 545l-85 -277h169zM543 759h-369v130h369v-130z" />
    <glyph glyph-name="macron.case" horiz-adv-x="509" 
d="M439 759h-369v130h369v-130z" />
    <glyph glyph-name="amacron" unicode="&#x101;" horiz-adv-x="605" 
d="M550 0h-161v44c-30 -35 -87 -56 -155 -56c-120 0 -192 69 -192 165c0 108 81 163 203 163c63 0 111 -18 137 -39v61c0 39 -26 68 -73 68c-35 0 -62 -12 -76 -38h-153c22 105 111 168 234 168c149 0 236 -81 236 -210v-326zM290 95c51 0 92 26 92 61s-38 61 -90 61
c-57 0 -93 -20 -93 -61c0 -40 38 -61 91 -61zM494 598h-343v127h343v-127z" />
    <glyph glyph-name="Abreve" unicode="&#x102;" horiz-adv-x="716" 
d="M524 0l-40 130h-253l-39 -130h-172l250 700h176l250 -700h-172zM358 545l-85 -277h169zM548 898c0 -101 -91 -148 -190 -148s-190 47 -190 148h129c0 -32 25 -52 61 -52s61 20 61 52h129z" />
    <glyph glyph-name="breve.case" horiz-adv-x="520" 
d="M450 898c0 -101 -91 -148 -190 -148s-190 47 -190 148h129c0 -32 25 -52 61 -52s61 20 61 52h129z" />
    <glyph glyph-name="abreve" unicode="&#x103;" horiz-adv-x="605" 
d="M550 0h-161v44c-30 -35 -87 -56 -155 -56c-120 0 -192 69 -192 165c0 108 81 163 203 163c63 0 111 -18 137 -39v61c0 39 -26 68 -73 68c-35 0 -62 -12 -76 -38h-153c22 105 111 168 234 168c149 0 236 -81 236 -210v-326zM290 95c51 0 92 26 92 61s-38 61 -90 61
c-57 0 -93 -20 -93 -61c0 -40 38 -61 91 -61zM503 738c0 -106 -78 -160 -186 -160c-107 0 -185 54 -185 160h120c0 -40 22 -64 65 -64c44 0 66 24 66 64h120z" />
    <glyph glyph-name="breve" unicode="&#x2d8;" horiz-adv-x="511" 
d="M441 738c0 -106 -78 -160 -186 -160c-107 0 -185 54 -185 160h120c0 -40 22 -64 65 -64c44 0 66 24 66 64h120z" />
    <glyph glyph-name="Aogonek" unicode="&#x104;" horiz-adv-x="716" 
d="M693 -90v-85c-19 -5 -46 -11 -86 -11c-73 0 -112 42 -112 102c0 35 12 60 29 84l-40 130h-253l-39 -130h-172l250 700h176l250 -700c-22 -16 -50 -38 -50 -69c0 -17 10 -24 26 -24c8 0 15 1 21 3zM358 545l-85 -277h169z" />
    <glyph glyph-name="aogonek" unicode="&#x105;" horiz-adv-x="605" 
d="M550 0c-22 -16 -50 -38 -50 -69c0 -17 10 -24 26 -24c8 0 15 1 21 3v-85c-19 -5 -49 -11 -89 -11c-69 0 -109 36 -109 94c0 49 25 77 40 92v44c-30 -35 -87 -56 -155 -56c-120 0 -192 69 -192 165c0 108 81 163 203 163c63 0 111 -18 137 -39v61c0 39 -26 68 -73 68
c-35 0 -62 -12 -76 -38h-153c22 105 111 168 234 168c149 0 236 -81 236 -210v-326zM290 95c51 0 92 26 92 61s-38 61 -90 61c-57 0 -93 -20 -93 -61c0 -40 38 -61 91 -61z" />
    <glyph glyph-name="Cacute" unicode="&#x106;" horiz-adv-x="708" 
d="M220 296c0 -99 42 -168 146 -168c92 0 136 60 139 130h159c-2 -148 -111 -272 -296 -272c-216 0 -320 136 -320 318v92c0 182 104 318 320 318c185 0 294 -124 296 -272h-159c-3 70 -47 130 -139 130c-104 0 -146 -69 -146 -168v-108zM444 750h-170l67 148h206z" />
    <glyph glyph-name="cacute" unicode="&#x107;" horiz-adv-x="576" 
d="M294 -12c-165 0 -256 101 -256 240v68c0 139 91 240 256 240c144 0 243 -89 246 -214h-152c-3 43 -32 81 -91 81c-62 0 -91 -39 -91 -97v-88c0 -58 29 -97 91 -97c59 0 88 38 91 81h152c-3 -125 -102 -214 -246 -214zM374 578h-167l68 160h208z" />
    <glyph glyph-name="Ccircumflex" unicode="&#x108;" horiz-adv-x="708" 
d="M220 296c0 -99 42 -168 146 -168c92 0 136 60 139 130h159c-2 -148 -111 -272 -296 -272c-216 0 -320 136 -320 318v92c0 182 104 318 320 318c185 0 294 -124 296 -272h-159c-3 70 -47 130 -139 130c-104 0 -146 -69 -146 -168v-108zM448 898l119 -148h-158l-44 58
l-44 -58h-158l119 148h166z" />
    <glyph glyph-name="ccircumflex" unicode="&#x109;" horiz-adv-x="576" 
d="M294 -12c-165 0 -256 101 -256 240v68c0 139 91 240 256 240c144 0 243 -89 246 -214h-152c-3 43 -32 81 -91 81c-62 0 -91 -39 -91 -97v-88c0 -58 29 -97 91 -97c59 0 88 38 91 81h152c-3 -125 -102 -214 -246 -214zM374 738l113 -160h-152l-42 65l-42 -65h-152l113 160
h162z" />
    <glyph glyph-name="Cdotaccent" unicode="&#x10a;" horiz-adv-x="708" 
d="M220 296c0 -99 42 -168 146 -168c92 0 136 60 139 130h159c-2 -148 -111 -272 -296 -272c-216 0 -320 136 -320 318v92c0 182 104 318 320 318c185 0 294 -124 296 -272h-159c-3 70 -47 130 -139 130c-104 0 -146 -69 -146 -168v-108zM270 837c0 53 37 87 93 87
s93 -34 93 -87s-37 -87 -93 -87s-93 34 -93 87z" />
    <glyph glyph-name="dotaccent.case" horiz-adv-x="308" 
d="M61 837c0 53 37 87 93 87s93 -34 93 -87s-37 -87 -93 -87s-93 34 -93 87z" />
    <glyph glyph-name="cdotaccent" unicode="&#x10b;" horiz-adv-x="576" 
d="M294 -12c-165 0 -256 101 -256 240v68c0 139 91 240 256 240c144 0 243 -89 246 -214h-152c-3 43 -32 81 -91 81c-62 0 -91 -39 -91 -97v-88c0 -58 29 -97 91 -97c59 0 88 38 91 81h152c-3 -125 -102 -214 -246 -214zM200 665c0 53 37 87 93 87s93 -34 93 -87
s-37 -87 -93 -87s-93 34 -93 87z" />
    <glyph glyph-name="dotaccent" unicode="&#x2d9;" horiz-adv-x="308" 
d="M61 665c0 53 37 87 93 87s93 -34 93 -87s-37 -87 -93 -87s-93 34 -93 87z" />
    <glyph glyph-name="Ccaron" unicode="&#x10c;" horiz-adv-x="708" 
d="M220 296c0 -99 42 -168 146 -168c92 0 136 60 139 130h159c-2 -148 -111 -272 -296 -272c-216 0 -320 136 -320 318v92c0 182 104 318 320 318c185 0 294 -124 296 -272h-159c-3 70 -47 130 -139 130c-104 0 -146 -69 -146 -168v-108zM566 898l-119 -148h-166l-119 148
h158l44 -58l44 58h158z" />
    <glyph glyph-name="caron.case" horiz-adv-x="544" 
d="M474 898l-119 -148h-166l-119 148h158l44 -58l44 58h158z" />
    <glyph glyph-name="ccaron" unicode="&#x10d;" horiz-adv-x="576" 
d="M294 -12c-165 0 -256 101 -256 240v68c0 139 91 240 256 240c144 0 243 -89 246 -214h-152c-3 43 -32 81 -91 81c-62 0 -91 -39 -91 -97v-88c0 -58 29 -97 91 -97c59 0 88 38 91 81h152c-3 -125 -102 -214 -246 -214zM488 738l-113 -160h-162l-113 160h152l42 -65l42 65
h152z" />
    <glyph glyph-name="caron" unicode="&#x2c7;" horiz-adv-x="528" 
d="M458 738l-113 -160h-162l-113 160h152l42 -65l42 65h152z" />
    <glyph glyph-name="Dcaron" unicode="&#x10e;" horiz-adv-x="716" 
d="M70 700h306c193 0 292 -117 292 -278v-144c0 -161 -99 -278 -292 -278h-306v700zM496 277v146c0 89 -47 136 -151 136h-104v-418h104c104 0 151 47 151 136zM539 898l-119 -148h-166l-119 148h158l44 -58l44 58h158z" />
    <glyph glyph-name="dcaron" unicode="&#x10f;" horiz-adv-x="823" 
d="M564 730v-730h-160v55c-16 -29 -72 -67 -144 -67c-148 0 -222 112 -222 231v86c0 119 74 231 222 231c63 0 113 -29 136 -56v250h168zM396 225v74c0 66 -44 99 -94 99c-66 0 -96 -40 -96 -102v-68c0 -60 30 -102 96 -102c50 0 94 33 94 99zM631 492l40 238h182l-87 -238
h-135z" />
    <glyph glyph-name="uni0315" unicode="&#x315;" horiz-adv-x="362" 
d="M70 492l40 238h182l-87 -238h-135z" />
    <glyph glyph-name="Dcroat" unicode="&#x110;" horiz-adv-x="747" 
d="M30 279v143h71v278h306c193 0 292 -117 292 -278v-144c0 -161 -99 -278 -292 -278h-306v279h-71zM527 277v146c0 89 -47 136 -151 136h-104v-137h135v-143h-135v-138h104c104 0 151 47 151 136z" />
    <glyph glyph-name="dcroat" unicode="&#x111;" horiz-adv-x="649" 
d="M564 730v-65h50v-112h-50v-553h-160v55c-16 -29 -72 -67 -144 -67c-148 0 -222 112 -222 231v86c0 119 74 231 222 231c63 0 113 -29 136 -56v73h-83v112h83v65h168zM396 225v74c0 66 -44 99 -94 99c-66 0 -96 -40 -96 -102v-68c0 -60 30 -102 96 -102c50 0 94 33 94 99z
" />
    <glyph glyph-name="Emacron" unicode="&#x112;" horiz-adv-x="626" 
d="M70 0v700h507v-143h-335v-131h305v-143h-305v-140h336v-143h-508zM509 759h-369v130h369v-130z" />
    <glyph glyph-name="emacron" unicode="&#x113;" horiz-adv-x="568" 
d="M526 209h-326v-12c0 -52 31 -91 90 -91c47 0 74 24 85 50h148c-18 -97 -114 -168 -233 -168c-151 0 -252 87 -252 237v65c0 146 89 246 248 246s240 -106 240 -231v-96zM200 318v-11h172v19c0 52 -26 91 -85 91c-61 0 -87 -39 -87 -99zM462 598h-343v127h343v-127z" />
    <glyph glyph-name="Ebreve" unicode="&#x114;" horiz-adv-x="626" 
d="M70 0v700h507v-143h-335v-131h305v-143h-305v-140h336v-143h-508zM523 898c0 -101 -91 -148 -190 -148s-190 47 -190 148h129c0 -32 25 -52 61 -52s61 20 61 52h129z" />
    <glyph glyph-name="ebreve" unicode="&#x115;" horiz-adv-x="568" 
d="M526 209h-326v-12c0 -52 31 -91 90 -91c47 0 74 24 85 50h148c-18 -97 -114 -168 -233 -168c-151 0 -252 87 -252 237v65c0 146 89 246 248 246s240 -106 240 -231v-96zM200 318v-11h172v19c0 52 -26 91 -85 91c-61 0 -87 -39 -87 -99zM477 738
c0 -106 -78 -160 -186 -160c-107 0 -185 54 -185 160h120c0 -40 22 -64 65 -64c44 0 66 24 66 64h120z" />
    <glyph glyph-name="Edotaccent" unicode="&#x116;" horiz-adv-x="626" 
d="M70 0v700h507v-143h-335v-131h305v-143h-305v-140h336v-143h-508zM231 837c0 53 37 87 93 87s93 -34 93 -87s-37 -87 -93 -87s-93 34 -93 87z" />
    <glyph glyph-name="edotaccent" unicode="&#x117;" horiz-adv-x="568" 
d="M526 209h-326v-12c0 -52 31 -91 90 -91c47 0 74 24 85 50h148c-18 -97 -114 -168 -233 -168c-151 0 -252 87 -252 237v65c0 146 89 246 248 246s240 -106 240 -231v-96zM200 318v-11h172v19c0 52 -26 91 -85 91c-61 0 -87 -39 -87 -99zM196 665c0 53 37 87 93 87
s93 -34 93 -87s-37 -87 -93 -87s-93 34 -93 87z" />
    <glyph glyph-name="Eogonek" unicode="&#x118;" horiz-adv-x="626" 
d="M70 0v700h507v-143h-335v-131h305v-143h-305v-140h336v-143c-20 -15 -50 -38 -50 -69c0 -17 10 -24 26 -24c8 0 15 1 21 3v-85c-19 -5 -49 -11 -89 -11c-69 0 -109 35 -109 93c0 50 24 77 40 93h-347z" />
    <glyph glyph-name="eogonek" unicode="&#x119;" horiz-adv-x="568" 
d="M428 -90v-85c-19 -5 -49 -11 -89 -11c-69 0 -109 35 -109 93c0 40 30 74 53 85c-147 4 -245 88 -245 233v65c0 146 89 246 248 246s240 -106 240 -231v-96h-326v-12c0 -52 31 -91 90 -91c47 0 74 24 85 50h148c-11 -47 -35 -82 -70 -114s-72 -63 -72 -111
c0 -17 10 -24 26 -24c8 0 15 1 21 3zM200 318v-11h172v19c0 52 -26 91 -85 91c-61 0 -87 -39 -87 -99z" />
    <glyph glyph-name="Ecaron" unicode="&#x11a;" horiz-adv-x="626" 
d="M70 0v700h507v-143h-335v-131h305v-143h-305v-140h336v-143h-508zM526 898l-119 -148h-166l-119 148h158l44 -58l44 58h158z" />
    <glyph glyph-name="ecaron" unicode="&#x11b;" horiz-adv-x="568" 
d="M526 209h-326v-12c0 -52 31 -91 90 -91c47 0 74 24 85 50h148c-18 -97 -114 -168 -233 -168c-151 0 -252 87 -252 237v65c0 146 89 246 248 246s240 -106 240 -231v-96zM200 318v-11h172v19c0 52 -26 91 -85 91c-61 0 -87 -39 -87 -99zM483 738l-113 -160h-162l-113 160
h152l42 -65l42 65h152z" />
    <glyph glyph-name="Gcircumflex" unicode="&#x11c;" horiz-adv-x="717" 
d="M662 458h-164c-3 59 -49 114 -133 114c-96 0 -145 -53 -145 -164v-110c0 -101 40 -174 145 -174c81 0 132 46 135 111h-136v139h305v-99c0 -175 -128 -289 -308 -289c-208 0 -313 140 -313 316v98c0 195 122 314 312 314c187 0 298 -107 302 -256zM441 898l119 -148h-158
l-44 58l-44 -58h-158l119 148h166z" />
    <glyph glyph-name="gcircumflex" unicode="&#x11d;" horiz-adv-x="619" 
d="M559 524v-508c0 -114 -107 -202 -262 -202c-128 0 -236 63 -254 168h163c13 -29 48 -43 91 -43c59 0 94 34 94 82v62c-25 -30 -79 -57 -137 -57c-145 0 -216 106 -216 219v72c0 116 72 219 217 219c72 0 128 -38 144 -67v55h160zM391 309c0 60 -44 91 -94 91
c-63 0 -93 -40 -93 -94v-50c0 -55 30 -94 92 -94c57 0 95 34 95 91v56zM398 738l113 -160h-152l-42 65l-42 -65h-152l113 160h162z" />
    <glyph glyph-name="Gbreve" unicode="&#x11e;" horiz-adv-x="717" 
d="M662 458h-164c-3 59 -49 114 -133 114c-96 0 -145 -53 -145 -164v-110c0 -101 40 -174 145 -174c81 0 132 46 135 111h-136v139h305v-99c0 -175 -128 -289 -308 -289c-208 0 -313 140 -313 316v98c0 195 122 314 312 314c187 0 298 -107 302 -256zM551 898
c0 -101 -91 -148 -190 -148s-190 47 -190 148h129c0 -32 25 -52 61 -52s61 20 61 52h129z" />
    <glyph glyph-name="gbreve" unicode="&#x11f;" horiz-adv-x="619" 
d="M559 524v-508c0 -114 -107 -202 -262 -202c-128 0 -236 63 -254 168h163c13 -29 48 -43 91 -43c59 0 94 34 94 82v62c-25 -30 -79 -57 -137 -57c-145 0 -216 106 -216 219v72c0 116 72 219 217 219c72 0 128 -38 144 -67v55h160zM391 309c0 60 -44 91 -94 91
c-63 0 -93 -40 -93 -94v-50c0 -55 30 -94 92 -94c57 0 95 34 95 91v56zM503 738c0 -106 -78 -160 -186 -160c-107 0 -185 54 -185 160h120c0 -40 22 -64 65 -64c44 0 66 24 66 64h120z" />
    <glyph glyph-name="Gdotaccent" unicode="&#x120;" horiz-adv-x="717" 
d="M662 458h-164c-3 59 -49 114 -133 114c-96 0 -145 -53 -145 -164v-110c0 -101 40 -174 145 -174c81 0 132 46 135 111h-136v139h305v-99c0 -175 -128 -289 -308 -289c-208 0 -313 140 -313 316v98c0 195 122 314 312 314c187 0 298 -107 302 -256zM265 837
c0 53 37 87 93 87s93 -34 93 -87s-37 -87 -93 -87s-93 34 -93 87z" />
    <glyph glyph-name="gdotaccent" unicode="&#x121;" horiz-adv-x="619" 
d="M559 524v-508c0 -114 -107 -202 -262 -202c-128 0 -236 63 -254 168h163c13 -29 48 -43 91 -43c59 0 94 34 94 82v62c-25 -30 -79 -57 -137 -57c-145 0 -216 106 -216 219v72c0 116 72 219 217 219c72 0 128 -38 144 -67v55h160zM391 309c0 60 -44 91 -94 91
c-63 0 -93 -40 -93 -94v-50c0 -55 30 -94 92 -94c57 0 95 34 95 91v56zM217 665c0 53 37 87 93 87s93 -34 93 -87s-37 -87 -93 -87s-93 34 -93 87z" />
    <glyph glyph-name="Gcommaaccent" unicode="&#x122;" horiz-adv-x="717" 
d="M662 458h-164c-3 59 -49 114 -133 114c-96 0 -145 -53 -145 -164v-110c0 -101 40 -174 145 -174c81 0 132 46 135 111h-136v139h305v-99c0 -175 -128 -289 -308 -289c-208 0 -313 140 -313 316v98c0 195 122 314 312 314c187 0 298 -107 302 -256zM253 -250l27 180h191
l-76 -180h-142z" />
    <glyph glyph-name="uni0326" unicode="&#x326;" horiz-adv-x="358" 
d="M70 -250l27 180h191l-76 -180h-142z" />
    <glyph glyph-name="gcommaaccent" unicode="&#x123;" horiz-adv-x="619" 
d="M559 524v-508c0 -114 -107 -202 -262 -202c-128 0 -236 63 -254 168h163c13 -29 48 -43 91 -43c59 0 94 34 94 82v62c-25 -30 -79 -57 -137 -57c-145 0 -216 106 -216 219v72c0 116 72 219 217 219c72 0 128 -38 144 -67v55h160zM391 309c0 60 -44 91 -94 91
c-63 0 -93 -40 -93 -94v-50c0 -55 30 -94 92 -94c57 0 95 34 95 91v56zM289 738h167l-43 -160h-208z" />
    <glyph glyph-name="uni0312" unicode="&#x312;" horiz-adv-x="391" 
d="M154 738h167l-43 -160h-208z" />
    <glyph glyph-name="Hcircumflex" unicode="&#x124;" horiz-adv-x="728" 
d="M658 0h-172v274h-244v-274h-172v700h172v-272h244v272h172v-700zM447 898l119 -148h-158l-44 58l-44 -58h-158l119 148h166z" />
    <glyph glyph-name="hcircumflex" unicode="&#x125;" horiz-adv-x="606" 
d="M228 0h-168v730h168v-262c24 40 78 68 139 68c120 0 184 -77 184 -198v-338h-168v312c0 48 -25 78 -76 78c-43 0 -79 -20 -79 -80v-310zM227 929l119 -148h-158l-44 58l-44 -58h-158l119 148h166z" />
    <glyph glyph-name="Hbar" unicode="&#x126;" horiz-adv-x="794" 
d="M691 0h-172v274h-244v-274h-172v502h-73v103h73v95h172v-95h244v95h172v-95h73v-103h-73v-502zM275 428h244v74h-244v-74z" />
    <glyph glyph-name="hbar" unicode="&#x127;" horiz-adv-x="631" 
d="M253 0h-168v553h-50v112h50v65h168v-65h83v-112h-83v-85c24 40 78 68 139 68c120 0 184 -77 184 -198v-338h-168v312c0 48 -25 78 -76 78c-43 0 -79 -20 -79 -80v-310z" />
    <glyph glyph-name="Itilde" unicode="&#x128;" horiz-adv-x="322" 
d="M247 700v-700h-172v700h172zM250 750c-53 0 -120 31 -167 31c-21 0 -31 -13 -38 -37l-97 25c19 95 45 141 126 141c64 0 139 -31 171 -31c28 0 33 21 40 37l96 -29c-17 -83 -47 -137 -131 -137z" />
    <glyph glyph-name="itilde" unicode="&#x129;" 
d="M233 0h-168v524h168v-524zM232 578c-45 0 -106 32 -151 32c-21 0 -29 -13 -38 -38l-93 25c13 85 43 141 120 141c54 0 125 -34 152 -34c25 0 32 20 39 38l92 -29c-17 -72 -41 -135 -121 -135z" />
    <glyph glyph-name="uni012A" unicode="&#x12a;" horiz-adv-x="322" 
d="M247 700v-700h-172v700h172zM346 759h-369v130h369v-130z" />
    <glyph glyph-name="imacron" unicode="&#x12b;" 
d="M233 0h-168v524h168v-524zM321 598h-343v127h343v-127z" />
    <glyph glyph-name="Ibreve" unicode="&#x12c;" horiz-adv-x="322" 
d="M247 700v-700h-172v700h172zM351 898c0 -101 -91 -148 -190 -148s-190 47 -190 148h129c0 -32 25 -52 61 -52s61 20 61 52h129z" />
    <glyph glyph-name="uni012D" unicode="&#x12d;" 
d="M233 0h-168v524h168v-524zM335 738c0 -106 -78 -160 -186 -160c-107 0 -185 54 -185 160h120c0 -40 22 -64 65 -64c44 0 66 24 66 64h120z" />
    <glyph glyph-name="Iogonek" unicode="&#x12e;" horiz-adv-x="322" 
d="M247 700v-700c-15 -12 -45 -37 -45 -67c0 -16 9 -26 26 -26c6 0 12 1 16 2v-86c-15 -4 -45 -9 -75 -9c-72 0 -118 38 -118 106c0 34 11 60 24 80v700h172z" />
    <glyph glyph-name="iogonek" unicode="&#x12f;" 
d="M233 0c-15 -12 -45 -37 -45 -67c0 -16 9 -26 26 -26c6 0 12 1 16 2v-86c-15 -4 -45 -9 -75 -9c-72 0 -118 34 -118 96c0 38 14 69 28 90v524h168v-524zM56 658c0 53 37 87 93 87s93 -34 93 -87s-37 -87 -93 -87s-93 34 -93 87z" />
    <glyph glyph-name="Idotaccent" unicode="&#x130;" horiz-adv-x="322" 
d="M247 700v-700h-172v700h172zM68 837c0 53 37 87 93 87s93 -34 93 -87s-37 -87 -93 -87s-93 34 -93 87z" />
    <glyph glyph-name="IJ" unicode="&#x132;" horiz-adv-x="943" 
d="M247 700v-700h-172v700h172zM703 700h172v-485c0 -134 -107 -229 -261 -229c-159 0 -257 91 -257 231v9h164v-9c0 -51 26 -88 91 -88c61 0 91 35 91 86v485z" />
    <glyph glyph-name="ij" unicode="&#x133;" horiz-adv-x="596" 
d="M233 0h-168v524h168v-524zM56 658c0 53 37 87 93 87s93 -34 93 -87s-37 -87 -93 -87s-93 34 -93 87zM363 524h168v-567c0 -88 -50 -131 -143 -131h-83v127h30c17 0 28 6 28 25v546zM354 658c0 53 37 87 93 87s93 -34 93 -87s-37 -87 -93 -87s-93 34 -93 87z" />
    <glyph glyph-name="Jcircumflex" unicode="&#x134;" horiz-adv-x="621" 
d="M381 700h172v-485c0 -134 -107 -229 -261 -229c-159 0 -257 91 -257 231v9h164v-9c0 -51 26 -88 91 -88c61 0 91 35 91 86v485zM548 898l119 -148h-158l-44 58l-44 -58h-158l119 148h166z" />
    <glyph glyph-name="jcircumflex" unicode="&#x135;" 
d="M65 524h168v-567c0 -88 -50 -131 -143 -131h-83v127h30c17 0 28 6 28 25v546zM230 738l113 -160h-152l-42 65l-42 -65h-152l113 160h162z" />
    <glyph glyph-name="Kcommaaccent" unicode="&#x136;" horiz-adv-x="674" 
d="M242 0h-172v700h172v-334l209 334h198l-231 -347l238 -353h-202l-212 340v-340zM239 -250l27 180h191l-76 -180h-142z" />
    <glyph glyph-name="kcommaaccent" unicode="&#x137;" horiz-adv-x="572" 
d="M228 0h-168v730h168v-449l134 243h187l-150 -257l155 -267h-187l-139 252v-252zM182 -250l27 180h191l-76 -180h-142z" />
    <glyph glyph-name="kgreenlandic" unicode="&#x138;" horiz-adv-x="572" 
d="M228 0h-168v524h168v-243l134 243h187l-150 -257l155 -267h-187l-139 252v-252z" />
    <glyph glyph-name="Lacute" unicode="&#x139;" horiz-adv-x="586" 
d="M70 700h172v-557h309v-143h-481v700zM245 750h-170l67 148h206z" />
    <glyph glyph-name="lacute" unicode="&#x13a;" 
d="M229 784h-158l55 138h199zM233 0h-168v730h168v-730z" />
    <glyph glyph-name="Lcommaaccent" unicode="&#x13b;" horiz-adv-x="586" 
d="M70 700h172v-557h309v-143h-481v700zM198 -250l27 180h191l-76 -180h-142z" />
    <glyph glyph-name="lcommaaccent" unicode="&#x13c;" 
d="M233 0h-168v730h168v-730zM26 -250l27 180h191l-76 -180h-142z" />
    <glyph glyph-name="Lcaron" unicode="&#x13d;" horiz-adv-x="586" 
d="M70 700h172v-557h309v-143h-481v700zM326 462l40 238h182l-87 -238h-135z" />
    <glyph glyph-name="lcaron" unicode="&#x13e;" horiz-adv-x="477" 
d="M233 0h-168v730h168v-730zM300 492l40 238h182l-87 -238h-135z" />
    <glyph glyph-name="Ldot" unicode="&#x13f;" horiz-adv-x="586" 
d="M70 700h172v-557h309v-143h-481v700zM318 355c0 53 39 93 94 93s94 -40 94 -93s-39 -93 -94 -93s-94 40 -94 93z" />
    <glyph glyph-name="ldot" unicode="&#x140;" horiz-adv-x="468" 
d="M233 0h-168v730h168v-730zM285 291c0 53 39 93 94 93s94 -40 94 -93s-39 -93 -94 -93s-94 40 -94 93z" />
    <glyph glyph-name="Lslash" unicode="&#x141;" horiz-adv-x="602" 
d="M86 700h172v-237l118 71v-153l-118 -71v-167h309v-143h-481v207l-64 -38v153l64 38v340z" />
    <glyph glyph-name="lslash" unicode="&#x142;" horiz-adv-x="315" 
d="M237 0h-168v202l-44 -35v155l44 35v373h168v-239l53 43v-155l-53 -43v-336z" />
    <glyph glyph-name="Nacute" unicode="&#x143;" horiz-adv-x="734" 
d="M664 0h-164l-262 409v-409h-168v700h163l263 -409v409h168v-700zM430 750h-170l67 148h206z" />
    <glyph glyph-name="nacute" unicode="&#x144;" horiz-adv-x="606" 
d="M228 0h-168v524h161v-61c27 48 79 73 146 73c120 0 184 -77 184 -198v-338h-168v312c0 48 -25 78 -76 78c-43 0 -79 -20 -79 -80v-310zM379 578h-167l68 160h208z" />
    <glyph glyph-name="Ncommaaccent" unicode="&#x145;" horiz-adv-x="734" 
d="M664 0h-164l-262 409v-409h-168v700h163l263 -409v409h168v-700zM258 -250l27 180h191l-76 -180h-142z" />
    <glyph glyph-name="ncommaaccent" unicode="&#x146;" horiz-adv-x="606" 
d="M228 0h-168v524h161v-61c27 48 79 73 146 73c120 0 184 -77 184 -198v-338h-168v312c0 48 -25 78 -76 78c-43 0 -79 -20 -79 -80v-310zM190 -250l27 180h191l-76 -180h-142z" />
    <glyph glyph-name="Ncaron" unicode="&#x147;" horiz-adv-x="734" 
d="M664 0h-164l-262 409v-409h-168v700h163l263 -409v409h168v-700zM569 898l-119 -148h-166l-119 148h158l44 -58l44 58h158z" />
    <glyph glyph-name="ncaron" unicode="&#x148;" horiz-adv-x="606" 
d="M228 0h-168v524h161v-61c27 48 79 73 146 73c120 0 184 -77 184 -198v-338h-168v312c0 48 -25 78 -76 78c-43 0 -79 -20 -79 -80v-310zM499 738l-113 -160h-162l-113 160h152l42 -65l42 65h152z" />
    <glyph glyph-name="napostrophe" unicode="&#x149;" horiz-adv-x="780" 
d="M402 0h-168v524h161v-61c27 48 79 73 146 73c120 0 184 -77 184 -198v-338h-168v312c0 48 -25 78 -76 78c-43 0 -79 -20 -79 -80v-310zM10 492l40 238h182l-87 -238h-135z" />
    <glyph glyph-name="Eng" unicode="&#x14a;" horiz-adv-x="734" 
d="M444 -47c32 0 52 13 52 42v11l-258 403v-409h-168v700h163l263 -409v409h168v-707c0 -112 -59 -167 -207 -167h-54v127h41z" />
    <glyph glyph-name="eng" unicode="&#x14b;" horiz-adv-x="606" 
d="M228 0h-168v524h161v-61c27 48 79 73 146 73c120 0 184 -77 184 -198v-345c0 -112 -68 -167 -217 -167h-39v127h39c35 0 49 13 49 42v317c0 48 -25 78 -76 78c-43 0 -79 -20 -79 -80v-310z" />
    <glyph glyph-name="Omacron" unicode="&#x14c;" horiz-adv-x="738" 
d="M690 305c0 -183 -109 -319 -321 -319s-321 136 -321 319v90c0 183 109 319 321 319s321 -136 321 -319v-90zM518 404c0 100 -49 167 -149 167s-149 -67 -149 -167v-108c0 -100 49 -167 149 -167s149 67 149 167v108zM554 759h-369v130h369v-130z" />
    <glyph glyph-name="omacron" unicode="&#x14d;" horiz-adv-x="586" 
d="M548 297v-70c0 -138 -92 -239 -255 -239s-255 101 -255 239v70c0 138 92 239 255 239s255 -101 255 -239zM385 306c0 53 -28 97 -92 97s-92 -44 -92 -97v-88c0 -53 28 -97 92 -97s92 44 92 97v88zM465 598h-343v127h343v-127z" />
    <glyph glyph-name="Obreve" unicode="&#x14e;" horiz-adv-x="738" 
d="M690 305c0 -183 -109 -319 -321 -319s-321 136 -321 319v90c0 183 109 319 321 319s321 -136 321 -319v-90zM518 404c0 100 -49 167 -149 167s-149 -67 -149 -167v-108c0 -100 49 -167 149 -167s149 67 149 167v108zM559 898c0 -101 -91 -148 -190 -148s-190 47 -190 148
h129c0 -32 25 -52 61 -52s61 20 61 52h129z" />
    <glyph glyph-name="obreve" unicode="&#x14f;" horiz-adv-x="586" 
d="M548 297v-70c0 -138 -92 -239 -255 -239s-255 101 -255 239v70c0 138 92 239 255 239s255 -101 255 -239zM385 306c0 53 -28 97 -92 97s-92 -44 -92 -97v-88c0 -53 28 -97 92 -97s92 44 92 97v88zM479 738c0 -106 -78 -160 -186 -160c-107 0 -185 54 -185 160h120
c0 -40 22 -64 65 -64c44 0 66 24 66 64h120z" />
    <glyph glyph-name="Ohungarumlaut" unicode="&#x150;" horiz-adv-x="738" 
d="M690 305c0 -183 -109 -319 -321 -319s-321 136 -321 319v90c0 183 109 319 321 319s321 -136 321 -319v-90zM518 404c0 100 -49 167 -149 167s-149 -67 -149 -167v-108c0 -100 49 -167 149 -167s149 67 149 167v108zM651 898l-89 -148h-158l56 148h191zM405 898l-63 -148
h-152l38 148h177z" />
    <glyph glyph-name="hungarumlaut.case" horiz-adv-x="601" 
d="M531 898l-89 -148h-158l56 148h191zM285 898l-63 -148h-152l38 148h177z" />
    <glyph glyph-name="ohungarumlaut" unicode="&#x151;" horiz-adv-x="586" 
d="M548 297v-70c0 -138 -92 -239 -255 -239s-255 101 -255 239v70c0 138 92 239 255 239s255 -101 255 -239zM385 306c0 53 -28 97 -92 97s-92 -44 -92 -97v-88c0 -53 28 -97 92 -97s92 44 92 97v88zM581 738l-94 -160h-158l57 160h195zM343 738l-72 -160h-152l43 160h181z
" />
    <glyph glyph-name="hungarumlaut" unicode="&#x2dd;" horiz-adv-x="602" 
d="M532 738l-94 -160h-158l57 160h195zM294 738l-72 -160h-152l43 160h181z" />
    <glyph glyph-name="OE" unicode="&#x152;" horiz-adv-x="1058" 
d="M382 0c-220 0 -334 129 -334 323v54c0 194 114 323 334 323h627v-143h-335v-131h305v-143h-305v-140h336v-143h-628zM220 315c0 -104 52 -172 163 -172h119v414h-119c-111 0 -163 -68 -163 -172v-70z" />
    <glyph glyph-name="oe" unicode="&#x153;" horiz-adv-x="920" 
d="M873 209h-326v-12c0 -52 31 -91 90 -91c47 0 74 24 85 50h148c-18 -97 -114 -168 -233 -168c-70 0 -132 19 -172 54c-37 -33 -100 -54 -172 -54c-163 0 -255 101 -255 239v70c0 138 92 239 255 239c72 0 124 -18 172 -55c41 37 98 55 168 55c159 0 240 -106 240 -231v-96
zM385 306c0 53 -28 97 -92 97s-92 -44 -92 -97v-88c0 -53 28 -97 92 -97s92 44 92 97v88zM547 318v-11h172v19c0 52 -26 91 -85 91c-61 0 -87 -39 -87 -99z" />
    <glyph glyph-name="Racute" unicode="&#x154;" horiz-adv-x="709" 
d="M474 0l-119 208h-113v-208h-172v700h329c170 0 262 -104 262 -247c0 -100 -49 -178 -130 -217l143 -236h-200zM489 451c0 67 -38 111 -110 111h-137v-218h137c72 0 110 43 110 107zM397 750h-170l67 148h206z" />
    <glyph glyph-name="racute" unicode="&#x155;" horiz-adv-x="392" 
d="M370 528v-165h-22c-78 0 -120 -32 -120 -123v-240h-168v524h159v-92c16 78 68 96 143 96h8zM287 578h-167l68 160h208z" />
    <glyph glyph-name="Rcommaaccent" unicode="&#x156;" horiz-adv-x="709" 
d="M474 0l-119 208h-113v-208h-172v700h329c170 0 262 -104 262 -247c0 -100 -49 -178 -130 -217l143 -236h-200zM489 451c0 67 -38 111 -110 111h-137v-218h137c72 0 110 43 110 107zM242 -250l27 180h191l-76 -180h-142z" />
    <glyph glyph-name="rcommaaccent" unicode="&#x157;" horiz-adv-x="392" 
d="M370 528v-165h-22c-78 0 -120 -32 -120 -123v-240h-168v524h159v-92c16 78 68 96 143 96h8zM22 -250l27 180h191l-76 -180h-142z" />
    <glyph glyph-name="Rcaron" unicode="&#x158;" horiz-adv-x="709" 
d="M474 0l-119 208h-113v-208h-172v700h329c170 0 262 -104 262 -247c0 -100 -49 -178 -130 -217l143 -236h-200zM489 451c0 67 -38 111 -110 111h-137v-218h137c72 0 110 43 110 107zM534 898l-119 -148h-166l-119 148h158l44 -58l44 58h158z" />
    <glyph glyph-name="rcaron" unicode="&#x159;" horiz-adv-x="392" 
d="M370 528v-165h-22c-78 0 -120 -32 -120 -123v-240h-168v524h159v-92c16 78 68 96 143 96h8zM416 738l-113 -160h-162l-113 160h152l42 -65l42 65h152z" />
    <glyph glyph-name="Sacute" unicode="&#x15a;" horiz-adv-x="655" 
d="M615 215c0 -140 -124 -229 -286 -229c-168 0 -281 80 -281 221v19h165v-14c0 -59 38 -95 117 -95c71 0 118 29 118 83c0 31 -13 53 -48 62l-175 44c-109 27 -165 75 -165 189c0 139 99 219 265 219c157 0 257 -85 257 -213v-17h-159v12c0 47 -26 86 -98 86
c-60 0 -98 -21 -98 -71c0 -33 17 -50 45 -57l186 -50c112 -30 157 -92 157 -189zM396 750h-170l67 148h206z" />
    <glyph glyph-name="sacute" unicode="&#x15b;" horiz-adv-x="533" 
d="M503 171c0 -105 -94 -183 -234 -183c-139 0 -231 62 -231 168v11h148v-7c0 -37 34 -56 84 -56c45 0 79 16 79 46c0 19 -9 30 -35 36l-145 33c-81 18 -123 67 -123 141c0 113 90 176 217 176c124 0 213 -64 213 -169v-9h-145v9c0 32 -19 53 -66 53c-43 0 -63 -14 -63 -43
c0 -20 10 -30 33 -35l153 -37c71 -17 115 -62 115 -134zM340 578h-167l68 160h208z" />
    <glyph glyph-name="Scircumflex" unicode="&#x15c;" horiz-adv-x="655" 
d="M615 215c0 -140 -124 -229 -286 -229c-168 0 -281 80 -281 221v19h165v-14c0 -59 38 -95 117 -95c71 0 118 29 118 83c0 31 -13 53 -48 62l-175 44c-109 27 -165 75 -165 189c0 139 99 219 265 219c157 0 257 -85 257 -213v-17h-159v12c0 47 -26 86 -98 86
c-60 0 -98 -21 -98 -71c0 -33 17 -50 45 -57l186 -50c112 -30 157 -92 157 -189zM412 898l119 -148h-158l-44 58l-44 -58h-158l119 148h166z" />
    <glyph glyph-name="scircumflex" unicode="&#x15d;" horiz-adv-x="533" 
d="M503 171c0 -105 -94 -183 -234 -183c-139 0 -231 62 -231 168v11h148v-7c0 -37 34 -56 84 -56c45 0 79 16 79 46c0 19 -9 30 -35 36l-145 33c-81 18 -123 67 -123 141c0 113 90 176 217 176c124 0 213 -64 213 -169v-9h-145v9c0 32 -19 53 -66 53c-43 0 -63 -14 -63 -43
c0 -20 10 -30 33 -35l153 -37c71 -17 115 -62 115 -134zM351 738l113 -160h-152l-42 65l-42 -65h-152l113 160h162z" />
    <glyph glyph-name="Scedilla" unicode="&#x15e;" horiz-adv-x="655" 
d="M457 -105c0 -48 -47 -81 -121 -81c-24 0 -53 2 -73 6v61c13 -2 27 -4 40 -4c23 0 35 7 35 21c0 13 -14 17 -35 19l-27 3l16 68c-148 11 -244 88 -244 219v19h165v-14c0 -59 38 -95 117 -95c71 0 118 29 118 83c0 31 -13 53 -48 62l-175 44c-109 27 -165 75 -165 189
c0 139 99 219 265 219c157 0 257 -85 257 -213v-17h-159v12c0 47 -26 86 -98 86c-60 0 -98 -21 -98 -71c0 -33 17 -50 45 -57l186 -50c112 -30 157 -92 157 -189c0 -129 -105 -215 -248 -227l-4 -21l17 -2c46 -5 77 -27 77 -70z" />
    <glyph glyph-name="Scedilla" unicode="&#xf6c1;" horiz-adv-x="655" 
d="M457 -105c0 -48 -47 -81 -121 -81c-24 0 -53 2 -73 6v61c13 -2 27 -4 40 -4c23 0 35 7 35 21c0 13 -14 17 -35 19l-27 3l16 68c-148 11 -244 88 -244 219v19h165v-14c0 -59 38 -95 117 -95c71 0 118 29 118 83c0 31 -13 53 -48 62l-175 44c-109 27 -165 75 -165 189
c0 139 99 219 265 219c157 0 257 -85 257 -213v-17h-159v12c0 47 -26 86 -98 86c-60 0 -98 -21 -98 -71c0 -33 17 -50 45 -57l186 -50c112 -30 157 -92 157 -189c0 -129 -105 -215 -248 -227l-4 -21l17 -2c46 -5 77 -27 77 -70z" />
    <glyph glyph-name="scedilla" unicode="&#x15f;" horiz-adv-x="533" 
d="M390 -105c0 -48 -47 -81 -121 -81c-24 0 -53 2 -73 6v61c13 -2 27 -4 40 -4c23 0 35 7 35 21c0 13 -14 17 -35 19l-27 3l16 71c-114 11 -187 70 -187 165v11h148v-7c0 -37 34 -56 84 -56c45 0 79 16 79 46c0 19 -9 30 -35 36l-145 33c-81 18 -123 67 -123 141
c0 113 90 176 217 176c124 0 213 -64 213 -169v-9h-145v9c0 32 -19 53 -66 53c-43 0 -63 -14 -63 -43c0 -20 10 -30 33 -35l153 -37c71 -17 115 -62 115 -134c0 -97 -81 -171 -203 -181l-4 -23l17 -2c46 -5 77 -27 77 -70z" />
    <glyph glyph-name="scedilla" unicode="&#xf6c2;" horiz-adv-x="533" 
d="M390 -105c0 -48 -47 -81 -121 -81c-24 0 -53 2 -73 6v61c13 -2 27 -4 40 -4c23 0 35 7 35 21c0 13 -14 17 -35 19l-27 3l16 71c-114 11 -187 70 -187 165v11h148v-7c0 -37 34 -56 84 -56c45 0 79 16 79 46c0 19 -9 30 -35 36l-145 33c-81 18 -123 67 -123 141
c0 113 90 176 217 176c124 0 213 -64 213 -169v-9h-145v9c0 32 -19 53 -66 53c-43 0 -63 -14 -63 -43c0 -20 10 -30 33 -35l153 -37c71 -17 115 -62 115 -134c0 -97 -81 -171 -203 -181l-4 -23l17 -2c46 -5 77 -27 77 -70z" />
    <glyph glyph-name="Scaron" unicode="&#x160;" horiz-adv-x="655" 
d="M615 215c0 -140 -124 -229 -286 -229c-168 0 -281 80 -281 221v19h165v-14c0 -59 38 -95 117 -95c71 0 118 29 118 83c0 31 -13 53 -48 62l-175 44c-109 27 -165 75 -165 189c0 139 99 219 265 219c157 0 257 -85 257 -213v-17h-159v12c0 47 -26 86 -98 86
c-60 0 -98 -21 -98 -71c0 -33 17 -50 45 -57l186 -50c112 -30 157 -92 157 -189zM526 898l-119 -148h-166l-119 148h158l44 -58l44 58h158z" />
    <glyph glyph-name="scaron" unicode="&#x161;" horiz-adv-x="533" 
d="M503 171c0 -105 -94 -183 -234 -183c-139 0 -231 62 -231 168v11h148v-7c0 -37 34 -56 84 -56c45 0 79 16 79 46c0 19 -9 30 -35 36l-145 33c-81 18 -123 67 -123 141c0 113 90 176 217 176c124 0 213 -64 213 -169v-9h-145v9c0 32 -19 53 -66 53c-43 0 -63 -14 -63 -43
c0 -20 10 -30 33 -35l153 -37c71 -17 115 -62 115 -134zM458 738l-113 -160h-162l-113 160h152l42 -65l42 65h152z" />
    <glyph glyph-name="Tcommaaccent" unicode="&#x162;" horiz-adv-x="600" 
d="M25 700h550v-145h-189v-555h-172v555h-189v145zM177 -250l27 180h191l-76 -180h-142z" />
    <glyph glyph-name="Tcommaaccent" unicode="&#x21a;" horiz-adv-x="600" 
d="M25 700h550v-145h-189v-555h-172v555h-189v145zM177 -250l27 180h191l-76 -180h-142z" />
    <glyph glyph-name="tcommaaccent" unicode="&#x163;" horiz-adv-x="395" 
d="M93 665h168v-141h101v-130h-101v-223c0 -24 12 -35 38 -35h55v-136h-111c-100 0 -150 59 -150 155v239h-68v130h68v141zM115 -250l27 180h191l-76 -180h-142z" />
    <glyph glyph-name="tcommaaccent" unicode="&#x21b;" horiz-adv-x="395" 
d="M93 665h168v-141h101v-130h-101v-223c0 -24 12 -35 38 -35h55v-136h-111c-100 0 -150 59 -150 155v239h-68v130h68v141zM115 -250l27 180h191l-76 -180h-142z" />
    <glyph glyph-name="Tcaron" unicode="&#x164;" horiz-adv-x="600" 
d="M25 700h550v-145h-189v-555h-172v555h-189v145zM502 898l-119 -148h-166l-119 148h158l44 -58l44 58h158z" />
    <glyph glyph-name="tcaron" unicode="&#x165;" horiz-adv-x="425" 
d="M297 570l21 170h169l-57 -170h-133zM93 665h168v-141h101v-130h-101v-223c0 -24 12 -35 38 -35h55v-136h-111c-100 0 -150 59 -150 155v239h-68v130h68v141z" />
    <glyph glyph-name="Tbar" unicode="&#x166;" horiz-adv-x="600" 
d="M25 700h550v-145h-189v-163h119v-139h-119v-253h-172v253h-119v139h119v163h-189v145z" />
    <glyph glyph-name="tbar" unicode="&#x167;" horiz-adv-x="395" 
d="M93 665h168v-141h101v-130h-101v-66h87v-122h-87v-35c0 -24 12 -35 38 -35h55v-136h-111c-100 0 -150 59 -150 155v51h-66v122h66v66h-68v130h68v141z" />
    <glyph glyph-name="Utilde" unicode="&#x168;" horiz-adv-x="726" 
d="M489 257v443h172v-439c0 -164 -115 -275 -298 -275s-298 111 -298 275v439h172v-443c0 -84 50 -128 126 -128s126 44 126 128zM455 750c-53 0 -120 31 -167 31c-21 0 -31 -13 -38 -37l-97 25c19 95 45 141 126 141c64 0 139 -31 171 -31c28 0 33 21 40 37l96 -29
c-17 -83 -47 -137 -131 -137z" />
    <glyph glyph-name="utilde" unicode="&#x169;" horiz-adv-x="601" 
d="M373 524h168v-524h-161v61c-27 -48 -79 -73 -146 -73c-117 0 -179 77 -179 198v338h168v-317c0 -48 24 -78 72 -78c43 0 78 20 78 80v315zM382 578c-45 0 -106 32 -151 32c-21 0 -29 -13 -38 -38l-93 25c13 85 43 141 120 141c54 0 125 -34 152 -34c25 0 32 20 39 38
l92 -29c-17 -72 -41 -135 -121 -135z" />
    <glyph glyph-name="Umacron" unicode="&#x16a;" horiz-adv-x="726" 
d="M489 257v443h172v-439c0 -164 -115 -275 -298 -275s-298 111 -298 275v439h172v-443c0 -84 50 -128 126 -128s126 44 126 128zM548 759h-369v130h369v-130z" />
    <glyph glyph-name="umacron" unicode="&#x16b;" horiz-adv-x="601" 
d="M373 524h168v-524h-161v61c-27 -48 -79 -73 -146 -73c-117 0 -179 77 -179 198v338h168v-317c0 -48 24 -78 72 -78c43 0 78 20 78 80v315zM470 598h-343v127h343v-127z" />
    <glyph glyph-name="Ubreve" unicode="&#x16c;" horiz-adv-x="726" 
d="M489 257v443h172v-439c0 -164 -115 -275 -298 -275s-298 111 -298 275v439h172v-443c0 -84 50 -128 126 -128s126 44 126 128zM553 898c0 -101 -91 -148 -190 -148s-190 47 -190 148h129c0 -32 25 -52 61 -52s61 20 61 52h129z" />
    <glyph glyph-name="ubreve" unicode="&#x16d;" horiz-adv-x="601" 
d="M373 524h168v-524h-161v61c-27 -48 -79 -73 -146 -73c-117 0 -179 77 -179 198v338h168v-317c0 -48 24 -78 72 -78c43 0 78 20 78 80v315zM491 738c0 -106 -78 -160 -186 -160c-107 0 -185 54 -185 160h120c0 -40 22 -64 65 -64c44 0 66 24 66 64h120z" />
    <glyph glyph-name="Uring" unicode="&#x16e;" horiz-adv-x="726" 
d="M489 257v443h172v-439c0 -164 -115 -275 -298 -275s-298 111 -298 275v439h172v-443c0 -84 50 -128 126 -128s126 44 126 128zM474 847c0 -51 -35 -97 -111 -97s-112 46 -112 97c0 52 36 97 112 97s111 -45 111 -97zM323 847c0 -24 15 -38 40 -38c26 0 41 14 41 38
c0 25 -15 38 -41 38c-25 0 -40 -13 -40 -38z" />
    <glyph glyph-name="ring.case" horiz-adv-x="363" 
d="M293 847c0 -51 -35 -97 -111 -97s-112 46 -112 97c0 52 36 97 112 97s111 -45 111 -97zM142 847c0 -24 15 -38 40 -38c26 0 41 14 41 38c0 25 -15 38 -41 38c-25 0 -40 -13 -40 -38z" />
    <glyph glyph-name="uring" unicode="&#x16f;" horiz-adv-x="601" 
d="M373 524h168v-524h-161v61c-27 -48 -79 -73 -146 -73c-117 0 -179 77 -179 198v338h168v-317c0 -48 24 -78 72 -78c43 0 78 20 78 80v315zM409 675c0 -51 -41 -97 -111 -97s-112 46 -112 97s42 97 112 97s111 -46 111 -97zM253 675c0 -24 17 -41 45 -41s46 17 46 41
c0 25 -18 41 -46 41s-45 -16 -45 -41z" />
    <glyph glyph-name="Uhungarumlaut" unicode="&#x170;" horiz-adv-x="726" 
d="M489 257v443h172v-439c0 -164 -115 -275 -298 -275s-298 111 -298 275v439h172v-443c0 -84 50 -128 126 -128s126 44 126 128zM637 898l-89 -148h-158l56 148h191zM391 898l-63 -148h-152l38 148h177z" />
    <glyph glyph-name="uhungarumlaut" unicode="&#x171;" horiz-adv-x="601" 
d="M373 524h168v-524h-161v61c-27 -48 -79 -73 -146 -73c-117 0 -179 77 -179 198v338h168v-317c0 -48 24 -78 72 -78c43 0 78 20 78 80v315zM573 738l-94 -160h-158l57 160h195zM335 738l-72 -160h-152l43 160h181z" />
    <glyph glyph-name="Uogonek" unicode="&#x172;" horiz-adv-x="726" 
d="M496 -90v-85c-19 -5 -49 -11 -89 -11c-69 0 -109 36 -109 94c0 34 17 61 36 79c-166 11 -269 118 -269 274v439h172v-443c0 -84 50 -128 126 -128s126 44 126 128v443h172v-439c0 -113 -53 -185 -133 -237c-34 -22 -79 -51 -79 -93c0 -17 10 -24 26 -24c8 0 15 1 21 3z
" />
    <glyph glyph-name="uogonek" unicode="&#x173;" horiz-adv-x="601" 
d="M538 -90v-85c-19 -5 -49 -11 -89 -11c-69 0 -109 39 -109 97c0 45 25 72 40 89v61c-27 -48 -79 -73 -146 -73c-117 0 -179 77 -179 198v338h168v-317c0 -48 24 -78 72 -78c43 0 78 20 78 80v315h168v-524c-22 -16 -50 -38 -50 -69c0 -17 10 -24 26 -24c8 0 15 1 21 3z
" />
    <glyph glyph-name="Wcircumflex" unicode="&#x174;" horiz-adv-x="974" 
d="M567 700l131 -459l87 459h169l-168 -700h-161l-138 489l-138 -489h-161l-168 700h169l87 -459l131 459h160zM570 898l119 -148h-158l-44 58l-44 -58h-158l119 148h166z" />
    <glyph glyph-name="wcircumflex" unicode="&#x175;" horiz-adv-x="796" 
d="M470 524l96 -318l59 318h163l-135 -524h-152l-103 317l-103 -317h-152l-135 524h163l59 -318l96 318h144zM479 738l113 -160h-152l-42 65l-42 -65h-152l113 160h162z" />
    <glyph glyph-name="Ycircumflex" unicode="&#x176;" horiz-adv-x="654" 
d="M648 700l-235 -455v-245h-172v245l-235 455h187l134 -291l134 291h187zM410 898l119 -148h-158l-44 58l-44 -58h-158l119 148h166z" />
    <glyph glyph-name="ycircumflex" unicode="&#x177;" horiz-adv-x="529" 
d="M306 -174h-164l51 174l-188 524h167l100 -354l84 354h168zM353 738l113 -160h-152l-42 65l-42 -65h-152l113 160h162z" />
    <glyph glyph-name="Ydieresis" unicode="&#x178;" horiz-adv-x="654" 
d="M648 700l-235 -455v-245h-172v245l-235 455h187l134 -291l134 291h187zM131 828c0 44 33 78 83 78c48 0 81 -34 81 -78s-33 -78 -81 -78c-50 0 -83 34 -83 78zM359 828c0 44 33 78 83 78c48 0 81 -34 81 -78s-33 -78 -81 -78c-50 0 -83 34 -83 78z" />
    <glyph glyph-name="Zacute" unicode="&#x179;" horiz-adv-x="648" 
d="M74 557v143h508v-143l-323 -414h331v-143h-530v143l322 414h-308zM404 750h-170l67 148h206z" />
    <glyph glyph-name="zacute" unicode="&#x17a;" horiz-adv-x="521" 
d="M481 0h-436v117l230 282h-221v125h420v-117l-231 -282h238v-125zM341 578h-167l68 160h208z" />
    <glyph glyph-name="Zdotaccent" unicode="&#x17b;" horiz-adv-x="648" 
d="M74 557v143h508v-143l-323 -414h331v-143h-530v143l322 414h-308zM236 837c0 53 37 87 93 87s93 -34 93 -87s-37 -87 -93 -87s-93 34 -93 87z" />
    <glyph glyph-name="zdotaccent" unicode="&#x17c;" horiz-adv-x="521" 
d="M481 0h-436v117l230 282h-221v125h420v-117l-231 -282h238v-125zM170 665c0 53 37 87 93 87s93 -34 93 -87s-37 -87 -93 -87s-93 34 -93 87z" />
    <glyph glyph-name="Zcaron" unicode="&#x17d;" horiz-adv-x="648" 
d="M74 557v143h508v-143l-323 -414h331v-143h-530v143l322 414h-308zM540 898l-119 -148h-166l-119 148h158l44 -58l44 58h158z" />
    <glyph glyph-name="zcaron" unicode="&#x17e;" horiz-adv-x="521" 
d="M481 0h-436v117l230 282h-221v125h420v-117l-231 -282h238v-125zM457 738l-113 -160h-162l-113 160h152l42 -65l42 65h152z" />
    <glyph glyph-name="florin" unicode="&#x192;" horiz-adv-x="459" 
d="M137 313h-64v137h76l8 89c10 108 59 161 162 161h110v-137h-63c-29 0 -39 -13 -41 -38l-7 -75h81v-137h-93l-29 -335c-9 -105 -58 -152 -167 -152h-90v137h49c27 0 39 14 41 38z" />
    <glyph glyph-name="Aringacute" unicode="&#x1fa;" horiz-adv-x="716" 
d="M524 0l-40 130h-253l-39 -130h-172l244 685c-12 15 -18 33 -18 52c0 48 42 92 112 92s111 -44 111 -92c0 -19 -7 -37 -18 -52l245 -685h-172zM358 545l-85 -277h169zM453 852h-170l42 114h206zM313 737c0 -21 17 -37 45 -37s46 16 46 37c0 22 -18 37 -46 37
s-45 -15 -45 -37z" />
    <glyph glyph-name="aringacute" unicode="&#x1fb;" horiz-adv-x="605" 
d="M417 783h-170l52 127h206zM430 663c0 -48 -41 -92 -111 -92s-112 44 -112 92s42 92 112 92s111 -44 111 -92zM274 663c0 -21 17 -37 45 -37s46 16 46 37c0 22 -18 37 -46 37s-45 -15 -45 -37zM550 0h-161v44c-30 -35 -87 -56 -155 -56c-120 0 -192 69 -192 165
c0 108 81 163 203 163c63 0 111 -18 137 -39v61c0 39 -26 68 -73 68c-35 0 -62 -12 -76 -38h-153c22 105 111 168 234 168c149 0 236 -81 236 -210v-326zM290 95c51 0 92 26 92 61s-38 61 -90 61c-57 0 -93 -20 -93 -61c0 -40 38 -61 91 -61z" />
    <glyph glyph-name="AEacute" unicode="&#x1fc;" horiz-adv-x="1091" 
d="M679 750h-170l67 148h206zM535 0v130h-269l-81 -130h-185l464 700h578v-143h-335v-131h305v-143h-305v-140h336v-143h-508zM353 268h182v289z" />
    <glyph glyph-name="aeacute" unicode="&#x1fd;" horiz-adv-x="923" 
d="M546 578h-167l68 160h208zM876 209h-326v-12c0 -52 31 -91 90 -91c47 0 74 24 85 50h148c-18 -97 -114 -168 -233 -168c-80 0 -145 23 -186 70c-34 -42 -112 -70 -192 -70c-105 0 -220 42 -220 166c0 111 92 163 203 163c63 0 107 -15 137 -36v51c0 44 -27 74 -75 74
c-39 0 -61 -16 -74 -39h-154c26 111 110 169 235 169c63 0 122 -23 154 -53c35 31 94 53 168 53c159 0 240 -106 240 -231v-96zM287 95c53 0 95 22 95 59c0 35 -35 63 -89 63c-62 0 -96 -20 -96 -61c0 -38 35 -61 90 -61zM550 318v-11h172v19c0 52 -26 91 -85 91
c-61 0 -87 -39 -87 -99z" />
    <glyph glyph-name="Oslashacute" unicode="&#x1fe;" horiz-adv-x="738" 
d="M445 750h-170l67 148h206zM690 305c0 -183 -109 -319 -321 -319c-61 0 -114 11 -157 31l-44 -67h-120l82 126c-55 57 -82 137 -82 229v90c0 183 109 319 321 319c61 0 113 -11 157 -32l44 68h120l-82 -126c54 -57 82 -137 82 -229v-90zM220 296c0 -25 3 -48 9 -69
l214 328c-21 10 -45 16 -74 16c-100 0 -149 -67 -149 -167v-108zM518 404c0 25 -3 48 -9 68l-214 -327c20 -11 45 -16 74 -16c100 0 149 67 149 167v108z" />
    <glyph glyph-name="oslashacute" unicode="&#x1ff;" horiz-adv-x="586" 
d="M372 578h-167l68 160h208zM548 297v-70c0 -138 -92 -239 -255 -239c-49 0 -91 9 -126 25l-43 -63h-86l70 102c-46 43 -70 104 -70 175v70c0 138 92 239 255 239c49 0 91 -9 127 -26l43 64h85l-70 -103c46 -42 70 -104 70 -174zM201 218c0 -7 1 -18 2 -26l137 201
c-13 6 -29 10 -47 10c-64 0 -92 -44 -92 -97v-88zM385 306c0 8 -1 18 -2 25l-136 -200c12 -7 28 -10 46 -10c64 0 92 44 92 97v88z" />
    <glyph glyph-name="Scommaaccent" unicode="&#x218;" horiz-adv-x="655" 
d="M615 215c0 -140 -124 -229 -286 -229c-168 0 -281 80 -281 221v19h165v-14c0 -59 38 -95 117 -95c71 0 118 29 118 83c0 31 -13 53 -48 62l-175 44c-109 27 -165 75 -165 189c0 139 99 219 265 219c157 0 257 -85 257 -213v-17h-159v12c0 47 -26 86 -98 86
c-60 0 -98 -21 -98 -71c0 -33 17 -50 45 -57l186 -50c112 -30 157 -92 157 -189zM218 -250l27 180h191l-76 -180h-142z" />
    <glyph glyph-name="scommaaccent" unicode="&#x219;" horiz-adv-x="533" 
d="M503 171c0 -105 -94 -183 -234 -183c-139 0 -231 62 -231 168v11h148v-7c0 -37 34 -56 84 -56c45 0 79 16 79 46c0 19 -9 30 -35 36l-145 33c-81 18 -123 67 -123 141c0 113 90 176 217 176c124 0 213 -64 213 -169v-9h-145v9c0 32 -19 53 -66 53c-43 0 -63 -14 -63 -43
c0 -20 10 -30 33 -35l153 -37c71 -17 115 -62 115 -134zM154 -250l27 180h191l-76 -180h-142z" />
    <glyph glyph-name="ogonek" unicode="&#x2db;" horiz-adv-x="341" 
d="M268 -90v-85c-19 -5 -49 -11 -89 -11c-69 0 -109 35 -109 93c0 50 24 76 40 93h161c-22 -16 -50 -38 -50 -69c0 -17 10 -24 26 -24c8 0 15 1 21 3z" />
    <glyph glyph-name="Omega" unicode="&#x3a9;" horiz-adv-x="754" 
d="M699 397v-32c0 -87 -35 -169 -83 -228h78v-137h-250v137c46 57 83 131 83 222v28c0 111 -42 184 -150 184s-150 -73 -150 -184v-28c0 -91 37 -165 83 -222v-137h-250v137h78c-48 59 -83 141 -83 228v32c0 181 112 317 322 317s322 -136 322 -317z" />
    <glyph glyph-name="pi" unicode="&#x3c0;" horiz-adv-x="742" 
d="M702 392h-113v-214c0 -29 15 -41 47 -41h59v-137h-105c-112 0 -169 60 -169 163v229h-118v-392h-168v392h-95v132h662v-132z" />
    <glyph glyph-name="Wgrave" unicode="&#x1e80;" horiz-adv-x="974" 
d="M567 700l131 -459l87 459h169l-168 -700h-161l-138 489l-138 -489h-161l-168 700h169l87 -459l131 459h160zM568 750h-170l-103 148h206z" />
    <glyph glyph-name="wgrave" unicode="&#x1e81;" horiz-adv-x="796" 
d="M470 524l96 -318l59 318h163l-135 -524h-152l-103 317l-103 -317h-152l-135 524h163l59 -318l96 318h144zM475 578h-167l-109 160h208z" />
    <glyph glyph-name="Wacute" unicode="&#x1e82;" horiz-adv-x="974" 
d="M567 700l131 -459l87 459h169l-168 -700h-161l-138 489l-138 -489h-161l-168 700h169l87 -459l131 459h160zM579 750h-170l67 148h206z" />
    <glyph glyph-name="wacute" unicode="&#x1e83;" horiz-adv-x="796" 
d="M470 524l96 -318l59 318h163l-135 -524h-152l-103 317l-103 -317h-152l-135 524h163l59 -318l96 318h144zM487 578h-167l68 160h208z" />
    <glyph glyph-name="Wdieresis" unicode="&#x1e84;" horiz-adv-x="974" 
d="M567 700l131 -459l87 459h169l-168 -700h-161l-138 489l-138 -489h-161l-168 700h169l87 -459l131 459h160zM291 828c0 44 33 78 83 78c48 0 81 -34 81 -78s-33 -78 -81 -78c-50 0 -83 34 -83 78zM519 828c0 44 33 78 83 78c48 0 81 -34 81 -78s-33 -78 -81 -78
c-50 0 -83 34 -83 78z" />
    <glyph glyph-name="wdieresis" unicode="&#x1e85;" horiz-adv-x="796" 
d="M470 524l96 -318l59 318h163l-135 -524h-152l-103 317l-103 -317h-152l-135 524h163l59 -318l96 318h144zM213 657c0 44 33 78 83 78c48 0 81 -34 81 -78s-33 -78 -81 -78c-50 0 -83 34 -83 78zM419 657c0 44 33 78 83 78c48 0 81 -34 81 -78s-33 -78 -81 -78
c-50 0 -83 34 -83 78z" />
    <glyph glyph-name="Ygrave" unicode="&#x1ef2;" horiz-adv-x="654" 
d="M648 700l-235 -455v-245h-172v245l-235 455h187l134 -291l134 291h187zM410 750h-170l-103 148h206z" />
    <glyph glyph-name="ygrave" unicode="&#x1ef3;" horiz-adv-x="529" 
d="M306 -174h-164l51 174l-188 524h167l100 -354l84 354h168zM351 578h-167l-109 160h208z" />
    <glyph glyph-name="endash" unicode="&#x2013;" horiz-adv-x="614" 
d="M566 249h-518v150h518v-150z" />
    <glyph glyph-name="emdash" unicode="&#x2014;" horiz-adv-x="913" 
d="M865 249h-817v150h817v-150z" />
    <glyph glyph-name="quoteleft" unicode="&#x2018;" 
d="M268 700l-52 -287h-191l101 287h142z" />
    <glyph glyph-name="quoteright" unicode="&#x2019;" 
d="M30 413l52 287h191l-101 -287h-142z" />
    <glyph glyph-name="quotesinglbase" unicode="&#x201a;" horiz-adv-x="288" 
d="M18 -137l52 287h191l-101 -287h-142z" />
    <glyph glyph-name="quotedblleft" unicode="&#x201c;" horiz-adv-x="567" 
d="M537 700l-52 -287h-191l101 287h142zM268 700l-52 -287h-191l101 287h142z" />
    <glyph glyph-name="quotedblright" unicode="&#x201d;" horiz-adv-x="567" 
d="M30 413l52 287h191l-101 -287h-142zM299 413l52 287h191l-101 -287h-142z" />
    <glyph glyph-name="quotedblbase" unicode="&#x201e;" horiz-adv-x="557" 
d="M18 -137l52 287h191l-101 -287h-142zM287 -137l52 287h191l-101 -287h-142z" />
    <glyph glyph-name="dagger" unicode="&#x2020;" horiz-adv-x="482" 
d="M50 424v116h124v160h134v-160h124v-116h-124v-524h-134v524h-124z" />
    <glyph glyph-name="daggerdbl" unicode="&#x2021;" horiz-adv-x="492" 
d="M55 60v116h124v248h-124v116h124v160h134v-160h124v-116h-124v-248h124v-116h-124v-160h-134v160h-124z" />
    <glyph glyph-name="bullet" unicode="&#x2022;" horiz-adv-x="434" 
d="M364 356c0 -80 -57 -144 -148 -144c-89 0 -146 64 -146 144c0 81 57 144 146 144c91 0 148 -63 148 -144z" />
    <glyph glyph-name="ellipsis" unicode="&#x2026;" horiz-adv-x="834" 
d="M45 85c0 53 39 93 94 93s94 -40 94 -93s-39 -93 -94 -93s-94 40 -94 93zM323 85c0 53 39 93 94 93s94 -40 94 -93s-39 -93 -94 -93s-94 40 -94 93zM601 85c0 53 39 93 94 93s94 -40 94 -93s-39 -93 -94 -93s-94 40 -94 93z" />
    <glyph glyph-name="perthousand" unicode="&#x2030;" horiz-adv-x="1306" 
d="M216 0l359 700h120l-359 -700h-120zM211 311c-102 0 -171 68 -171 160v79c0 92 69 160 171 160s171 -68 171 -160v-79c0 -92 -69 -160 -171 -160zM211 409c34 0 54 20 54 52v99c0 32 -20 52 -54 52s-54 -20 -54 -52v-99c0 -32 20 -52 54 -52zM700 -10
c-102 0 -171 68 -171 160v79c0 92 69 160 171 160s171 -68 171 -160v-79c0 -92 -69 -160 -171 -160zM700 88c34 0 54 20 54 52v99c0 32 -20 52 -54 52s-54 -20 -54 -52v-99c0 -32 20 -52 54 -52zM1100 -10c-102 0 -171 68 -171 160v79c0 92 69 160 171 160s171 -68 171 -160
v-79c0 -92 -69 -160 -171 -160zM1100 88c34 0 54 20 54 52v99c0 32 -20 52 -54 52s-54 -20 -54 -52v-99c0 -32 20 -52 54 -52z" />
    <glyph glyph-name="guilsinglleft" unicode="&#x2039;" horiz-adv-x="408" 
d="M368 496l-157 -218l157 -218h-195l-158 218l158 218h195z" />
    <glyph glyph-name="guilsinglright" unicode="&#x203a;" horiz-adv-x="408" 
d="M197 278l-157 218h195l158 -218l-158 -218h-195z" />
    <glyph glyph-name="fraction" unicode="&#x2044;" horiz-adv-x="416" 
d="M461 700l-370 -700h-136l370 700h136z" />
    <glyph glyph-name="Euro" unicode="&#x20ac;" horiz-adv-x="681" 
d="M636 482h-152c-1 56 -37 99 -101 99c-65 0 -97 -40 -98 -93h123v-111h-123v-54h123v-111h-123c1 -54 33 -93 98 -93c64 0 100 43 101 99h152c-3 -125 -100 -232 -255 -232c-164 0 -256 101 -264 226h-67v111h67v54h-67v111h67c8 125 100 226 264 226
c155 0 252 -107 255 -232z" />
    <glyph glyph-name="published" unicode="&#x2117;" horiz-adv-x="829" 
d="M50 350c0 200 148 362 364 362c218 0 365 -162 365 -362s-147 -362 -365 -362c-216 0 -364 162 -364 362zM731 350c0 168 -121 321 -317 321c-194 0 -316 -153 -316 -321s122 -321 316 -321c196 0 317 153 317 321zM446 274h-64v-101h-92v354h156c83 0 137 -52 137 -126
c0 -76 -55 -127 -137 -127zM382 349h54c37 0 55 22 55 51s-18 52 -55 52h-54v-103z" />
    <glyph glyph-name="trademark" unicode="&#x2122;" horiz-adv-x="663" 
d="M25 700h248v-65h-87v-235h-74v235h-87v65zM546 556l-44 -93h-66l-44 93v-156h-72v300h68l81 -170l81 170h68v-300h-72v156z" />
    <glyph glyph-name="partialdiff" unicode="&#x2202;" horiz-adv-x="596" 
d="M556 289v-43c0 -148 -106 -260 -263 -260c-155 0 -255 100 -255 232v33c0 140 86 223 213 223c52 0 105 -13 134 -45c-36 88 -127 131 -259 131h-22v140h30c274 0 422 -144 422 -411zM298 347c-65 0 -94 -39 -94 -93v-40c0 -51 31 -93 92 -93c58 0 94 39 94 90v43
c0 60 -38 93 -92 93z" />
    <glyph glyph-name="Delta" unicode="&#x2206;" horiz-adv-x="698" 
d="M425 700l228 -565v-135h-608v135l228 565h152zM221 144h256l-128 371z" />
    <glyph glyph-name="product" unicode="&#x220f;" horiz-adv-x="841" 
d="M331 563v-737h-168v737h-128v137h771v-137h-128v-737h-168v737h-179z" />
    <glyph glyph-name="summation" unicode="&#x2211;" horiz-adv-x="602" 
d="M434 263l-192 -300h315v-137h-502v137l198 300l-198 300v137h502v-137h-315z" />
    <glyph glyph-name="minus" unicode="&#x2212;" horiz-adv-x="590" 
d="M60 289v142h470v-142h-470z" />
    <glyph glyph-name="radical" unicode="&#x221a;" horiz-adv-x="763" 
d="M50 218v157h231l103 -303l164 678h165l-222 -850h-196l-119 318h-126z" />
    <glyph glyph-name="infinity" unicode="&#x221e;" horiz-adv-x="934" 
d="M467 252c-40 -53 -119 -99 -210 -99c-123 0 -205 77 -205 207s82 207 205 207c91 0 170 -46 210 -99c40 53 119 99 210 99c123 0 205 -77 205 -207s-82 -207 -205 -207c-91 0 -170 46 -210 99zM280 284c59 0 94 37 119 76c-25 39 -60 76 -119 76c-47 0 -77 -27 -77 -76
s30 -76 77 -76zM654 284c47 0 77 27 77 76s-30 76 -77 76c-59 0 -94 -37 -119 -76c25 -39 60 -76 119 -76z" />
    <glyph glyph-name="integral" unicode="&#x222b;" horiz-adv-x="434" 
d="M125 530c0 118 62 170 173 170h91v-138h-52c-30 0 -44 -13 -44 -44v-522c0 -118 -62 -170 -173 -170h-85v138h46c30 0 44 13 44 44v522z" />
    <glyph glyph-name="approxequal" unicode="&#x2248;" horiz-adv-x="663" 
d="M146 161l-91 83c48 62 94 103 184 103c47 0 80 -16 125 -37c36 -17 56 -30 86 -30c35 0 59 12 83 37l80 -86c-33 -43 -91 -84 -162 -84c-47 0 -82 17 -125 36c-39 17 -63 33 -91 33c-39 0 -67 -32 -89 -55zM146 388l-91 83c48 62 94 103 184 103c47 0 80 -16 125 -37
c36 -17 56 -30 86 -30c35 0 59 12 83 37l80 -86c-33 -43 -91 -84 -162 -84c-47 0 -82 17 -125 36c-39 17 -63 33 -91 33c-39 0 -67 -32 -89 -55z" />
    <glyph glyph-name="notequal" unicode="&#x2260;" horiz-adv-x="630" 
d="M107 68l46 100h-73v132h133l55 120h-188v132h249l46 100h149l-46 -100h72v-132h-133l-55 -120h188v-132h-248l-46 -100h-149z" />
    <glyph glyph-name="lessequal" unicode="&#x2264;" horiz-adv-x="595" 
d="M525 174l-470 148v136l470 148v-147l-271 -69l271 -69v-147zM525 0h-470v142h470v-142z" />
    <glyph glyph-name="greaterequal" unicode="&#x2265;" horiz-adv-x="595" 
d="M525 322l-470 -148v147l271 69l-271 69v147l470 -148v-136zM525 0h-470v142h470v-142z" />
    <glyph glyph-name="lozenge" unicode="&#x25ca;" horiz-adv-x="654" 
d="M401 700l223 -350l-223 -350h-148l-223 350l223 350h148zM208 350l119 -203l119 203l-119 203z" />
    <glyph glyph-name="apple" unicode="&#xf8ff;" horiz-adv-x="820" 
d="M90 163v362c0 99 76 175 175 175h350c99 0 175 -75 175 -174s-76 -174 -175 -174h-175v-189c0 -99 -76 -175 -175 -175s-175 76 -175 175z" />
    <glyph glyph-name="J.salt" horiz-adv-x="621" 
d="M115 700h438v-485c0 -134 -107 -229 -261 -229c-159 0 -257 91 -257 231v9h164v-9c0 -51 26 -88 91 -88c61 0 91 35 91 86v342h-266v143z" />
    <glyph glyph-name="IJ.salt" horiz-adv-x="943" 
d="M247 700v-700h-172v700h172zM437 700h438v-485c0 -134 -107 -229 -261 -229c-159 0 -257 91 -257 231v9h164v-9c0 -51 26 -88 91 -88c61 0 91 35 91 86v342h-266v143z" />
    <glyph glyph-name="Jcircumflex.salt" horiz-adv-x="621" 
d="M115 700h438v-485c0 -134 -107 -229 -261 -229c-159 0 -257 91 -257 231v9h164v-9c0 -51 26 -88 91 -88c61 0 91 35 91 86v342h-266v143zM425 898l119 -148h-158l-44 58l-44 -58h-158l119 148h166z" />
    <glyph glyph-name="ornm01.ornm" horiz-adv-x="1090" 
d="M80 279v142h563v-142h-563zM486 700h204l350 -350l-350 -350h-204l350 350z" />
    <glyph glyph-name="ornm02.ornm" horiz-adv-x="1090" 
d="M1010 421v-142h-563v142h563zM400 700h204l-350 -350l350 -350h-204l-350 350z" />
    <glyph glyph-name="ornm03.ornm" horiz-adv-x="900" 
d="M190 0l-110 110l361 361l110 -110zM790 205l-154 -144v495h-495l144 144h505v-495z" />
    <glyph glyph-name="ornm04.ornm" horiz-adv-x="900" 
d="M820 110l-110 -110l-361 361l110 110zM264 61l-154 144v495h505l144 -144h-495v-495z" />
    <glyph glyph-name="ornm05.ornm" horiz-adv-x="900" 
d="M80 590l110 110l361 -361l-110 -110zM636 639l154 -144v-495h-505l-144 144h495v495z" />
    <glyph glyph-name="ornm06.ornm" horiz-adv-x="900" 
d="M710 700l110 -110l-361 -361l-110 110zM110 495l154 144v-495h495l-144 -144h-505v495z" />
    <glyph glyph-name="ornm07.ornm" horiz-adv-x="860" 
d="M508 -174h-156v486h156v-486zM80 160v204l350 350l350 -350v-204l-350 350z" />
    <glyph glyph-name="ornm08.ornm" horiz-adv-x="860" 
d="M352 700h156v-484h-156v484zM80 164v204l350 -350l350 350v-204l-350 -350z" />
    <glyph glyph-name="ornm09.ornm" horiz-adv-x="990" 
d="M70 227v142h470v-142h-470zM950 298l-284 -284h-204l284 284l-284 284h204z" />
    <glyph glyph-name="ornm10.ornm" horiz-adv-x="990" 
d="M920 369v-142h-470v142h470zM324 14l-284 284l284 284h204l-284 -284l284 -284h-204z" />
    <glyph glyph-name="ornm11.ornm" horiz-adv-x="845" 
d="M170 -144l-100 100l332 332l100 -100zM745 524v-395l-147 -144v402h-402l144 137h405z" />
    <glyph glyph-name="ornm12.ornm" horiz-adv-x="845" 
d="M775 -44l-100 -100l-332 332l100 100zM100 129v395h405l144 -137h-402v-402z" />
    <glyph glyph-name="ornm13.ornm" horiz-adv-x="845" 
d="M70 568l100 100l332 -332l-100 -100zM745 395v-395h-405l-144 137h402v402z" />
    <glyph glyph-name="ornm14.ornm" horiz-adv-x="845" 
d="M675 668l100 -100l-332 -332l-100 100zM100 0v395l147 144v-402h402l-144 -137h-405z" />
    <glyph glyph-name="ornm15.ornm" horiz-adv-x="728" 
d="M439 -174h-150v374h150v-374zM80 326l284 284l284 -284v-204l-284 284l-284 -284v204z" />
    <glyph glyph-name="ornm16.ornm" horiz-adv-x="728" 
d="M289 600h150v-374h-150v374zM364 -184l-284 284v204l284 -284l284 284v-204z" />
    <glyph glyph-name="ornm17.ornm" horiz-adv-x="731" 
d="M232 742h21c18 -16 18 -58 23 -78c23 -12 63 -12 81 -29c24 21 65 15 91 4c-6 -11 -6 -12 10 -12c0 -9 3 -18 6 -23c9 2 5 21 23 14c15 -14 36 -22 49 -37c27 0 35 19 56 25c9 -31 63 0 81 -25c9 0 30 5 38 0c-26 -30 -65 -30 -95 -50c-30 -18 -41 -46 -64 -70
c-26 -25 -59 -40 -74 -68c0 -23 7 -42 5 -67c-19 -18 -48 -24 -50 -56c8 -9 17 -15 20 -26c-18 -24 -5 -54 -12 -85c35 -26 78 -47 101 -84c16 20 42 -3 46 -17c-4 -18 -4 -38 -2 -58h-481c0 75 0 159 6 233c-17 9 -29 20 -35 41c8 10 24 12 26 28c9 32 -11 57 -16 91
c-4 37 5 80 -2 123c-2 26 -20 53 -23 75c-2 42 15 82 -6 109c61 2 122 -5 175 -2c6 10 2 28 2 44z" />
    <glyph glyph-name="ornm18.ornm" horiz-adv-x="885" 
d="M49 111c-9 -1 -11 9 -5 13c24 7 49 19 66 34l16 15c13 19 21 35 28 52c6 19 13 35 16 50c-1 41 -2 58 -2 58c-1 12 -3 25 -3 41c0 88 81 116 111 128c36 12 79 23 138 23c17 0 46 -2 69 -4c34 -4 60 -4 60 -4s9 0 21 2c24 6 39 61 44 75c7 24 19 43 41 68c3 5 2 31 7 38
c6 1 25 0 28 -2c3 0 18 -3 28 -5c6 0 12 0 14 -3c4 -3 5 -7 10 -11c5 -1 9 -3 12 -6c1 -3 9 -11 13 -15c2 -2 8 -12 8 -16c0 -5 17 -16 25 -21c12 -9 22 -14 36 -23c10 -5 16 -11 14 -18c-4 -10 -37 -18 -47 -18c-3 0 -19 2 -24 3c-16 4 -47 6 -55 1c-4 -1 -14 -24 -15 -30
c-1 -11 -5 -41 -7 -50c-10 -39 -22 -74 -25 -88c-3 -16 -4 -38 -11 -58c-10 -17 -17 -27 -19 -34c-8 -10 -21 -106 -23 -128c-3 -29 -4 -72 -3 -109c0 -10 16 -33 27 -31c12 0 16 -6 16 -6c2 -3 2 -15 -2 -17l-4 -2l-20 1s9 -6 6 -10c-1 -1 -2 -3 -4 -4h-42
c-6 2 -10 11 -12 15c-1 2 -7 32 -9 40c-3 8 -9 7 -10 12c0 8 3 14 3 37c0 4 -4 4 -8 12c-2 7 0 78 -2 101c0 7 -4 39 -5 55c-3 14 3 18 3 24c-2 9 -18 4 -30 4c-18 0 -61 9 -95 34c-31 23 -50 62 -74 62c-14 0 -32 -7 -41 -17c-10 -9 -13 -25 -16 -35c-1 -4 -1 -11 -1 -21
c-2 -21 -8 -40 -10 -48c-2 -9 -10 -32 -14 -43c-5 -13 -25 -38 -25 -38c-10 -13 -24 -24 -25 -30c-7 -10 -10 -29 -10 -29s-1 -54 0 -62c0 -10 3 -13 3 -16c6 -3 7 -6 14 -10c4 -1 12 -1 13 -6s0 -13 -4 -14h-26c-3 1 -8 3 -14 7l-10 9c-2 2 -6 61 -7 65c0 1 -4 33 -1 53
c0 7 -2 9 -3 9c-2 0 -3 -2 -5 -5c-6 -9 -12 -15 -17 -22c-2 -4 -21 -62 -22 -74c-1 -7 0 -41 0 -41l8 -8s8 -3 8 -10s-4 -10 -7 -12h-19c-8 0 -12 5 -19 14c-2 4 -1 35 0 51c0 10 2 18 2 33c0 18 1 30 2 38c-18 -13 -38 -21 -58 -23z" />
    <glyph glyph-name="fi" unicode="&#xfb01;" horiz-adv-x="670" 
d="M257 0h-168v394h-61v130h61v37c0 115 45 169 170 169h98v-132h-55c-33 0 -45 -13 -45 -43v-31h94v-130h-94v-394zM605 0h-168v524h168v-524zM428 658c0 53 37 87 93 87s93 -34 93 -87s-37 -87 -93 -87s-93 34 -93 87z" />
    <glyph glyph-name="fl" unicode="&#xfb02;" horiz-adv-x="670" 
d="M257 0h-168v394h-61v130h61v37c0 115 45 169 170 169h98v-132h-55c-33 0 -45 -13 -45 -43v-31h94v-130h-94v-394zM605 0h-168v730h168v-730z" />
    </font>
</defs>
</svg>
