<?xml version="1.0" standalone="no"?>
<!DOCTYPE svg PUBLIC "-//W3C//DTD SVG 1.1//EN" "http://www.w3.org/Graphics/SVG/1.1/DTD/svg11.dtd" >
<svg>
<metadata>
Created by FontForge 20120731 at Fri Dec 30 20:43:49 2016
 By www-data
Copyright (c) 2012 by Process Type Foundry, LLC. All rights reserved.
</metadata>
<defs>
<font id="Colfax-Regular" horiz-adv-x="569" >
  <font-face 
    font-family="Colfax Regular"
    font-weight="400"
    font-stretch="normal"
    units-per-em="1000"
    panose-1="2 11 3 4 0 0 0 1 0 2"
    ascent="750"
    descent="-250"
    x-height="512"
    cap-height="700"
    bbox="-52 -250 1175 963"
    underline-thickness="36"
    underline-position="-64"
    stemh="61"
    stemv="76"
    unicode-range="U+0020-FB02"
  />
<missing-glyph horiz-adv-x="714" 
d="M104 0v700h506v-700h-506zM117 12h480v676h-480v-676zM264 232l-25 25l93 93l-93 94l24 25l94 -94l95 94l24 -25l-94 -94l94 -93l-25 -25l-94 93z" />
    <glyph glyph-name=".notdef" horiz-adv-x="714" 
d="M104 0v700h506v-700h-506zM117 12h480v676h-480v-676zM264 232l-25 25l93 93l-93 94l24 25l94 -94l95 94l24 -25l-94 -94l94 -93l-25 -25l-94 93z" />
    <glyph glyph-name="space" unicode=" " horiz-adv-x="220" 
 />
    <glyph glyph-name="exclam" unicode="!" horiz-adv-x="262" 
d="M111 184l-20 251v265h80v-265l-20 -251h-40zM80 43c0 29 21 49 51 49s51 -20 51 -49s-22 -49 -51 -49s-51 20 -51 49z" />
    <glyph glyph-name="quotedbl" unicode="&#x22;" horiz-adv-x="446" 
d="M295 436v264h65v-264h-65zM86 436v264h65v-264h-65z" />
    <glyph glyph-name="numbersign" unicode="#" horiz-adv-x="679" 
d="M79 445v54h118l23 201h60l-23 -201h206l23 201h60l-23 -201h103v-54h-109l-20 -179h108v-54h-114l-24 -212h-60l24 212h-206l-24 -212h-60l24 212h-107v54h113l20 179h-112zM251 445l-20 -179h206l20 179h-206z" />
    <glyph glyph-name="dollar" unicode="$" horiz-adv-x="595" 
d="M266 -110v112c-117 12 -196 81 -196 192v18h70v-18c0 -84 55 -136 163 -136c98 0 156 52 156 128c0 53 -29 89 -88 111l-155 59c-82 31 -139 74 -139 165c0 103 76 166 184 177v112h75v-113c106 -13 178 -77 178 -181v-26h-70v24c0 77 -54 128 -149 128
c-88 0 -146 -43 -146 -118c0 -59 36 -85 90 -105l153 -59c90 -35 139 -84 139 -170c0 -105 -82 -175 -190 -188v-112h-75z" />
    <glyph glyph-name="percent" unicode="%" horiz-adv-x="849" 
d="M212 321c-93 0 -151 62 -151 150v87c0 88 58 150 151 150s151 -62 151 -150v-87c0 -88 -58 -150 -151 -150zM212 369c61 0 94 40 94 98v95c0 58 -33 98 -94 98s-94 -40 -94 -98v-95c0 -58 33 -98 94 -98zM642 -8c-93 0 -151 62 -151 150v87c0 88 58 150 151 150
s151 -62 151 -150v-87c0 -88 -58 -150 -151 -150zM642 40c61 0 94 40 94 98v95c0 58 -33 98 -94 98s-94 -40 -94 -98v-95c0 -58 33 -98 94 -98zM217 0l363 700h58l-363 -700h-58z" />
    <glyph glyph-name="ampersand" unicode="&#x26;" horiz-adv-x="693" 
d="M504 517h-63v38c0 60 -50 105 -118 105c-71 0 -119 -35 -119 -97c0 -47 23 -82 56 -116l276 -286c11 28 18 62 18 101v71h64v-73c0 -55 -12 -105 -36 -147l81 -83l-45 -44l-74 76c-49 -48 -123 -76 -222 -76c-139 0 -257 88 -257 223c0 105 65 164 145 200l-4 4
c-35 37 -68 84 -68 144c0 97 72 157 184 157c102 0 182 -63 182 -158v-39zM338 41c68 0 126 22 164 65l-254 263c-60 -26 -114 -70 -114 -160c0 -103 80 -168 204 -168z" />
    <glyph glyph-name="quotesingle" unicode="'" horiz-adv-x="237" 
d="M86 436v264h65v-264h-65z" />
    <glyph glyph-name="parenleft" unicode="(" horiz-adv-x="309" 
d="M197 782h74c-83 -174 -119 -309 -119 -458s36 -284 119 -458h-74c-82 157 -121 296 -121 458s39 301 121 458z" />
    <glyph glyph-name="parenright" unicode=")" horiz-adv-x="309" 
d="M38 782h74c82 -157 121 -296 121 -458s-39 -301 -121 -458h-74c83 174 119 309 119 458s-36 284 -119 458z" />
    <glyph glyph-name="asterisk" unicode="*" horiz-adv-x="425" 
d="M346 437l-114 65v-131h-38v131l-115 -65l-19 33l114 65l-114 65l19 33l115 -66v133h38v-132l114 65l19 -33l-114 -65l114 -65z" />
    <glyph glyph-name="plus" unicode="+" horiz-adv-x="606" 
d="M269 126v204h-189v60h189v204h68v-204h189v-60h-189v-204h-68z" />
    <glyph glyph-name="comma" unicode="," horiz-adv-x="238" 
d="M35 -114l48 224h85l-69 -224h-64z" />
    <glyph glyph-name="hyphen" unicode="-" horiz-adv-x="413" 
d="M67 279v67h279v-67h-279z" />
    <glyph glyph-name="period" unicode="." horiz-adv-x="238" 
d="M68 43c0 29 21 49 51 49s51 -20 51 -49s-22 -49 -51 -49s-51 20 -51 49z" />
    <glyph glyph-name="slash" unicode="/" horiz-adv-x="423" 
d="M35 -105l282 855h71l-282 -855h-71z" />
    <glyph glyph-name="zero" unicode="0" horiz-adv-x="630" 
d="M315 -14c-154 0 -245 100 -245 233v262c0 133 91 233 245 233s245 -100 245 -233v-262c0 -133 -91 -233 -245 -233zM315 49c109 0 168 68 168 167v268c0 99 -59 167 -168 167s-168 -68 -168 -167v-268c0 -99 59 -167 168 -167z" />
    <glyph glyph-name="one" unicode="1" horiz-adv-x="350" 
d="M177 0v621l-146 -69v70l159 78h64v-700h-77z" />
    <glyph glyph-name="two" unicode="2" horiz-adv-x="597" 
d="M70 0v60l296 311c49 51 78 97 78 151c0 78 -61 129 -143 129c-89 0 -147 -51 -147 -141v-16h-73v19c0 128 90 201 220 201c127 0 220 -75 220 -192c0 -85 -59 -150 -115 -207l-247 -252h363v-63h-452z" />
    <glyph glyph-name="three" unicode="3" horiz-adv-x="608" 
d="M110 638v62h408v-63l-224 -245h27c129 0 220 -78 220 -197c0 -122 -110 -209 -243 -209c-120 0 -231 72 -236 205h71c7 -89 73 -143 166 -143c101 0 167 62 167 145c0 85 -63 142 -162 142h-95v60l216 243h-315z" />
    <glyph glyph-name="four" unicode="4" horiz-adv-x="612" 
d="M393 0v167h-332v57l233 476h70l-228 -475h257v166h71v-166h97v-58h-97v-167h-71z" />
    <glyph glyph-name="five" unicode="5" horiz-adv-x="624" 
d="M310 -14c-116 0 -215 68 -237 186h73c20 -72 76 -123 164 -123c108 0 177 73 177 172c0 94 -68 170 -167 170c-73 0 -126 -37 -159 -82h-73l66 391h349v-63h-288l-44 -251c32 39 95 68 164 68c132 0 227 -101 227 -231c0 -134 -106 -237 -252 -237z" />
    <glyph glyph-name="six" unicode="6" horiz-adv-x="600" 
d="M307 700h82l-203 -309v-1c34 41 81 62 141 62c126 0 220 -96 220 -230c0 -126 -102 -236 -244 -236c-143 0 -244 99 -244 233c0 79 36 146 74 206zM134 218c0 -98 65 -171 168 -171c102 0 170 75 170 173s-63 173 -166 173c-99 0 -172 -75 -172 -175z" />
    <glyph glyph-name="seven" unicode="7" horiz-adv-x="559" 
d="M118 0l307 637h-360v63h439v-54l-309 -646h-77z" />
    <glyph glyph-name="eight" unicode="8" horiz-adv-x="630" 
d="M315 -14c-142 0 -243 81 -243 200c0 107 74 163 141 178c-67 30 -112 85 -112 163c0 116 89 187 214 187s214 -71 214 -187c0 -78 -45 -133 -112 -163c67 -15 141 -71 141 -178c0 -119 -101 -200 -243 -200zM315 44c96 0 169 57 169 142c0 91 -69 145 -169 145
s-169 -54 -169 -145c0 -85 73 -142 169 -142zM173 522c0 -73 60 -133 142 -133s142 60 142 133c0 82 -56 134 -142 134s-142 -52 -142 -134z" />
    <glyph glyph-name="nine" unicode="9" horiz-adv-x="600" 
d="M293 0h-83l197 302v1c-23 -30 -78 -55 -134 -55c-127 0 -220 99 -220 230c0 133 98 236 244 236c142 0 244 -97 244 -233c0 -66 -23 -126 -50 -169zM466 482c0 98 -70 171 -168 171c-103 0 -170 -76 -170 -174c0 -104 61 -172 166 -172c95 0 172 74 172 175z" />
    <glyph glyph-name="colon" unicode=":" horiz-adv-x="238" 
d="M68 43c0 29 21 49 51 49s51 -20 51 -49s-22 -49 -51 -49s-51 20 -51 49zM68 374c0 29 21 49 51 49s51 -20 51 -49s-22 -49 -51 -49s-51 20 -51 49z" />
    <glyph glyph-name="semicolon" unicode=";" horiz-adv-x="238" 
d="M30 -114l48 224h85l-69 -224h-64zM78 374c0 29 21 49 51 49s51 -20 51 -49s-22 -49 -51 -49s-51 20 -51 49z" />
    <glyph glyph-name="less" unicode="&#x3c;" horiz-adv-x="591" 
d="M506 116l-446 220v48l446 220v-67l-363 -177l363 -177v-67z" />
    <glyph glyph-name="equal" unicode="=" horiz-adv-x="614" 
d="M90 449v60h434v-60h-434zM90 211v60h434v-60h-434z" />
    <glyph glyph-name="greater" unicode="&#x3e;" horiz-adv-x="591" 
d="M531 336l-446 -220v67l363 177l-363 177v67l446 -220v-48z" />
    <glyph glyph-name="question" unicode="?" horiz-adv-x="507" 
d="M195 175v47c0 87 17 130 68 170l50 39c42 33 67 62 67 112c0 68 -52 109 -133 109s-131 -42 -131 -121v-19h-70v20c0 120 79 182 202 182c125 0 208 -70 208 -171c0 -65 -33 -113 -79 -148l-53 -41c-48 -37 -62 -60 -62 -137v-42h-67zM178 43c0 29 21 49 51 49
s51 -20 51 -49s-22 -49 -51 -49s-51 20 -51 49z" />
    <glyph glyph-name="at" unicode="@" horiz-adv-x="950" 
d="M466 -115c-243 0 -394 176 -394 389c0 241 164 440 432 440c242 0 378 -169 378 -347c0 -114 -52 -262 -190 -262c-67 0 -110 47 -118 96c-24 -42 -73 -82 -142 -82c-89 0 -141 64 -141 149c0 12 1 25 3 38l5 29c18 107 81 158 167 158c65 0 106 -40 120 -75l12 67h57
l-37 -207c-2 -12 -3 -22 -3 -33c0 -54 26 -96 84 -96c85 0 133 103 133 217c0 164 -120 303 -329 303c-226 0 -379 -161 -379 -395c0 -189 124 -344 348 -344c69 0 139 12 210 31l-6 -44c-51 -19 -130 -32 -210 -32zM442 168c62 0 106 50 116 110l6 35c1 5 2 14 2 22
c0 58 -41 109 -101 109c-65 0 -96 -49 -107 -114l-4 -23c-2 -11 -4 -27 -4 -39c0 -66 37 -100 92 -100z" />
    <glyph glyph-name="A" unicode="A" horiz-adv-x="680" 
d="M379 700l263 -700h-77l-64 178h-323l-63 -178h-77l263 700h78zM340 629l-140 -389h279z" />
    <glyph glyph-name="B" unicode="B" horiz-adv-x="663" 
d="M91 0v700h289c124 0 191 -73 191 -174c0 -81 -43 -137 -103 -164c77 -17 144 -70 144 -172c0 -117 -87 -190 -225 -190h-296zM166 61h215c100 0 155 48 155 134c0 78 -57 132 -154 132h-216v-266zM166 388h197c87 0 132 60 132 128c0 71 -47 123 -132 123h-197v-251z" />
    <glyph glyph-name="C" unicode="C" horiz-adv-x="701" 
d="M361 -14c-193 0 -291 131 -291 305v118c0 174 98 305 291 305c162 0 265 -113 276 -245h-75c-12 96 -76 180 -202 180c-143 0 -212 -100 -212 -237v-124c0 -137 69 -237 212 -237c126 0 190 84 202 180h75c-11 -132 -114 -245 -276 -245z" />
    <glyph glyph-name="D" unicode="D" horiz-adv-x="699" 
d="M91 700h263c178 0 276 -113 276 -269v-162c0 -156 -98 -269 -276 -269h-263v700zM343 64c138 0 210 83 210 205v162c0 122 -72 205 -210 205h-175v-572h175z" />
    <glyph glyph-name="E" unicode="E" horiz-adv-x="609" 
d="M91 0v700h462v-65h-384v-248h355v-65h-355v-257h385v-65h-463z" />
    <glyph glyph-name="F" unicode="F" horiz-adv-x="585" 
d="M91 0v700h453v-65h-375v-258h346v-65h-346v-312h-78z" />
    <glyph glyph-name="G" unicode="G" horiz-adv-x="709" 
d="M632 470h-74c-3 98 -75 179 -201 179c-144 0 -209 -99 -209 -239v-116c0 -138 62 -245 214 -245c125 0 202 71 202 206v18h-196v65h271v-74c0 -161 -99 -278 -278 -278c-195 0 -291 139 -291 310v111c0 179 101 307 286 307c171 0 273 -106 276 -244z" />
    <glyph glyph-name="H" unicode="H" horiz-adv-x="708" 
d="M91 0v700h78v-314h370v314h78v-700h-78v316h-370v-316h-78z" />
    <glyph glyph-name="I" unicode="I" horiz-adv-x="270" 
d="M96 0v700h78v-700h-78z" />
    <glyph glyph-name="J" unicode="J" horiz-adv-x="589" 
d="M273 -14c-138 0 -228 83 -228 203v6h74v-6c0 -81 52 -138 153 -138c97 0 152 52 152 139v510h78v-510c0 -119 -91 -204 -229 -204z" />
    <glyph glyph-name="K" unicode="K" horiz-adv-x="612" 
d="M91 0v700h78v-341l316 341h94l-325 -346l336 -354h-94l-327 348v-348h-78z" />
    <glyph glyph-name="L" unicode="L" 
d="M91 0v700h78v-635h359v-65h-437z" />
    <glyph glyph-name="M" unicode="M" horiz-adv-x="790" 
d="M699 700v-700h-74v550l-193 -381h-74l-193 381v-550h-74v700h73l231 -462l231 462h73z" />
    <glyph glyph-name="N" unicode="N" horiz-adv-x="716" 
d="M91 0v700h73l385 -575v575h76v-700h-73l-385 575v-575h-76z" />
    <glyph glyph-name="O" unicode="O" horiz-adv-x="728" 
d="M658 294c0 -169 -98 -308 -294 -308s-294 139 -294 308v112c0 169 98 308 294 308s294 -139 294 -308v-112zM364 51c149 0 216 107 216 239v120c0 132 -67 239 -216 239s-216 -107 -216 -239v-120c0 -132 67 -239 216 -239z" />
    <glyph glyph-name="P" unicode="P" horiz-adv-x="639" 
d="M91 0v700h274c147 0 238 -96 238 -222s-91 -224 -238 -224h-196v-254h-78zM169 319h189c115 0 167 74 167 159s-52 157 -167 157h-189v-316z" />
    <glyph glyph-name="Q" unicode="Q" horiz-adv-x="728" 
d="M658 294c0 -109 -41 -205 -122 -260l50 -92l-60 -31l-50 93c-33 -11 -71 -18 -112 -18c-196 0 -294 139 -294 308v112c0 169 98 308 294 308s294 -139 294 -308v-112zM396 153l59 32l48 -89c52 43 77 114 77 194v120c0 132 -67 239 -216 239s-216 -107 -216 -239v-120
c0 -132 67 -239 216 -239c30 0 61 4 80 12z" />
    <glyph glyph-name="R" unicode="R" horiz-adv-x="676" 
d="M91 0v700h289c154 0 235 -99 235 -223c0 -97 -56 -179 -151 -209l152 -268h-89l-142 256h-216v-256h-78zM169 318h201c112 0 167 68 167 159s-58 160 -167 160h-201v-319z" />
    <glyph glyph-name="S" unicode="S" horiz-adv-x="651" 
d="M330 -14c-149 0 -261 80 -261 208v18h74v-16c0 -88 71 -148 187 -148c115 0 185 50 185 139c0 57 -35 97 -100 114l-198 52c-101 26 -139 85 -139 165c0 124 98 196 242 196s245 -81 245 -200v-17h-73v15c0 83 -64 140 -172 140c-98 0 -167 -45 -167 -128
c0 -58 27 -91 87 -107l203 -54c86 -23 147 -80 147 -170c0 -128 -111 -207 -260 -207z" />
    <glyph glyph-name="T" unicode="T" horiz-adv-x="562" 
d="M242 0v635h-214v65h506v-65h-214v-635h-78z" />
    <glyph glyph-name="U" unicode="U" horiz-adv-x="708" 
d="M354 -14c-166 0 -269 105 -269 250v464h78v-471c0 -109 73 -178 191 -178s191 69 191 178v471h78v-464c0 -145 -103 -250 -269 -250z" />
    <glyph glyph-name="V" unicode="V" horiz-adv-x="624" 
d="M269 0l-243 700h76l210 -625l210 625h76l-243 -700h-86z" />
    <glyph glyph-name="W" unicode="W" horiz-adv-x="922" 
d="M887 700l-166 -700h-75l-185 615l-185 -615h-75l-166 700h75l132 -596l180 596h78l180 -596l132 596h75z" />
    <glyph glyph-name="X" unicode="X" horiz-adv-x="628" 
d="M354 356l242 -356h-82l-200 296l-200 -296h-82l242 356l-233 344h80l193 -284l193 284h80z" />
    <glyph glyph-name="Y" unicode="Y" horiz-adv-x="604" 
d="M263 0v265l-249 435h82l206 -364l206 364h82l-249 -435v-265h-78z" />
    <glyph glyph-name="Z" unicode="Z" horiz-adv-x="623" 
d="M66 0v65l399 570h-381v65h464v-65l-399 -570h410v-65h-493z" />
    <glyph glyph-name="bracketleft" unicode="[" horiz-adv-x="363" 
d="M86 -134v916h237v-62h-161v-792h161v-62h-237z" />
    <glyph glyph-name="backslash" unicode="\" horiz-adv-x="423" 
d="M106 750l282 -855h-71l-282 855h71z" />
    <glyph glyph-name="bracketright" unicode="]" horiz-adv-x="363" 
d="M276 782v-916h-237v62h161v792h-161v62h237z" />
    <glyph glyph-name="asciicircum" unicode="^" horiz-adv-x="498" 
d="M282 700l161 -278h-75l-119 214l-119 -214h-75l161 278h66z" />
    <glyph glyph-name="underscore" unicode="_" horiz-adv-x="497" 
d="M-1 -118v36h499v-36h-499z" />
    <glyph glyph-name="grave" unicode="`" horiz-adv-x="355" 
d="M189 582l-98 142h93l80 -142h-75z" />
    <glyph glyph-name="a" unicode="a" horiz-adv-x="576" 
d="M501 0h-73v64c-22 -36 -91 -76 -176 -76c-121 0 -194 68 -194 161c0 99 81 160 203 160c81 0 135 -34 164 -64v95c0 70 -46 124 -128 124c-65 0 -107 -30 -128 -77h-70c26 85 98 137 199 137c127 0 203 -83 203 -184v-340zM268 37c80 0 157 47 157 113
c0 64 -76 109 -153 109c-85 0 -142 -40 -142 -111s59 -111 138 -111z" />
    <glyph glyph-name="b" unicode="b" horiz-adv-x="596" 
d="M81 730h76v-294c31 52 91 88 171 88c129 0 212 -96 212 -229v-78c0 -128 -79 -229 -214 -229c-85 0 -151 45 -173 92v-80h-72v730zM464 220v72c0 94 -53 170 -150 170c-85 0 -157 -65 -157 -170v-66c0 -99 55 -176 156 -176c106 0 151 76 151 170z" />
    <glyph glyph-name="c" unicode="c" horiz-adv-x="560" 
d="M283 -12c-142 0 -227 96 -227 225v86c0 129 85 225 227 225c129 0 213 -84 219 -192h-68c-10 69 -53 132 -150 132c-105 0 -154 -68 -154 -164v-88c0 -96 49 -164 154 -164c97 0 140 63 150 132h68c-6 -108 -90 -192 -219 -192z" />
    <glyph glyph-name="d" unicode="d" horiz-adv-x="596" 
d="M439 730h76v-730h-72v80c-22 -47 -88 -92 -173 -92c-135 0 -214 101 -214 229v78c0 133 83 229 212 229c80 0 140 -36 171 -88v294zM132 292v-72c0 -94 45 -170 151 -170c101 0 156 77 156 176v66c0 105 -72 170 -157 170c-97 0 -150 -76 -150 -170z" />
    <glyph glyph-name="e" unicode="e" horiz-adv-x="554" 
d="M282 -12c-133 0 -226 85 -226 223v82c0 139 79 231 223 231c146 0 217 -97 217 -223v-76h-367v-18c0 -89 46 -161 153 -161c77 0 124 41 141 99h68c-17 -92 -102 -157 -209 -157zM129 299v-16h296v24c0 91 -46 159 -146 159c-110 0 -150 -73 -150 -167z" />
    <glyph glyph-name="f" unicode="f" horiz-adv-x="352" 
d="M117 0v450h-75v62h75v68c0 99 44 150 148 150h72v-62h-66c-54 0 -78 -25 -78 -82v-74h126v-62h-126v-450h-76z" />
    <glyph glyph-name="g" unicode="g" horiz-adv-x="594" 
d="M287 -186c-102 0 -194 47 -222 131h75c28 -49 77 -71 147 -71c89 0 150 50 150 128v116c-16 -47 -86 -97 -172 -97c-133 0 -209 95 -209 209v85c0 116 75 209 210 209c96 0 153 -52 174 -97v85h73v-512c0 -106 -96 -186 -226 -186zM280 83c87 0 157 58 157 155v66
c0 87 -66 158 -154 158c-100 0 -152 -55 -152 -153v-73c0 -96 51 -153 149 -153z" />
    <glyph glyph-name="h" unicode="h" horiz-adv-x="588" 
d="M81 0v730h76v-297c29 53 82 91 167 91c115 0 188 -78 188 -201v-323h-76v312c0 87 -39 146 -131 146c-84 0 -148 -51 -148 -157v-301h-76z" />
    <glyph glyph-name="i" unicode="i" horiz-adv-x="248" 
d="M86 0v512h76v-512h-76zM76 647c0 27 19 46 48 46s48 -19 48 -46s-19 -46 -48 -46s-48 19 -48 46z" />
    <glyph glyph-name="j" unicode="j" horiz-adv-x="248" 
d="M162 512v-568c0 -75 -43 -118 -122 -118h-49v61h27c47 0 68 16 68 62v563h76zM76 647c0 27 19 46 48 46s48 -19 48 -46s-19 -46 -48 -46s-48 19 -48 46z" />
    <glyph glyph-name="k" unicode="k" horiz-adv-x="513" 
d="M81 0v730h76v-459l221 241h95l-234 -247l244 -265h-95l-231 258v-258h-76z" />
    <glyph glyph-name="l" unicode="l" horiz-adv-x="248" 
d="M86 0v730h76v-730h-76z" />
    <glyph glyph-name="m" unicode="m" horiz-adv-x="931" 
d="M81 0v512h72v-87c24 58 80 99 169 99c76 0 134 -38 163 -100c35 60 97 100 186 100c112 0 184 -80 184 -201v-323h-76v312c0 87 -43 146 -127 146s-146 -51 -146 -157v-301h-76v312c0 87 -43 146 -127 146s-146 -51 -146 -157v-301h-76z" />
    <glyph glyph-name="n" unicode="n" horiz-adv-x="588" 
d="M81 0v512h72v-87c24 58 82 99 171 99c115 0 188 -78 188 -201v-323h-76v312c0 87 -39 146 -131 146c-84 0 -148 -51 -148 -157v-301h-76z" />
    <glyph glyph-name="o" unicode="o" 
d="M285 -12c-146 0 -229 100 -229 226v84c0 126 84 226 229 226s228 -100 228 -226v-84c0 -126 -83 -226 -228 -226zM440 297c0 97 -54 166 -155 166s-155 -69 -155 -166v-82c0 -97 54 -166 155 -166s155 69 155 166v82z" />
    <glyph glyph-name="p" unicode="p" horiz-adv-x="596" 
d="M157 -174h-76v686h72v-80c22 47 88 92 173 92c137 0 214 -99 214 -229v-78c0 -133 -83 -229 -212 -229c-80 0 -140 36 -171 88v-250zM464 220v72c0 94 -45 170 -151 170c-101 0 -156 -77 -156 -176v-66c0 -105 72 -170 157 -170c97 0 150 76 150 170z" />
    <glyph glyph-name="q" unicode="q" horiz-adv-x="596" 
d="M515 -174h-76v250c-31 -52 -91 -88 -171 -88c-129 0 -212 96 -212 229v78c0 130 80 229 214 229c85 0 151 -45 173 -92v80h72v-686zM132 292v-72c0 -94 53 -170 150 -170c85 0 157 65 157 170v66c0 99 -55 176 -156 176c-106 0 -151 -76 -151 -170z" />
    <glyph glyph-name="r" unicode="r" horiz-adv-x="353" 
d="M81 0v512h71v-118c19 79 74 121 167 121h12v-71h-15c-97 0 -159 -64 -159 -193v-251h-76z" />
    <glyph glyph-name="s" unicode="s" horiz-adv-x="526" 
d="M269 -12c-124 0 -212 62 -212 161v5h69v-3c0 -64 60 -106 144 -106c79 0 136 31 136 97c0 36 -23 62 -64 71l-152 35c-76 17 -120 63 -120 130c0 96 81 146 194 146c107 0 190 -65 190 -160v-5h-69v3c0 63 -46 105 -122 105c-71 0 -123 -30 -123 -87c0 -35 17 -57 54 -66
l157 -37c79 -19 126 -58 126 -132c0 -91 -88 -157 -208 -157z" />
    <glyph glyph-name="t" unicode="t" horiz-adv-x="373" 
d="M326 0h-64c-98 0 -139 49 -139 136v314h-87v62h87v147h76v-147h131v-62h-131v-314c0 -52 19 -74 76 -74h51v-62z" />
    <glyph glyph-name="u" unicode="u" horiz-adv-x="583" 
d="M502 512v-512h-72v87c-24 -58 -82 -99 -171 -99c-112 0 -183 78 -183 201v323h76v-312c0 -87 38 -148 126 -148c84 0 148 53 148 159v301h76z" />
    <glyph glyph-name="v" unicode="v" horiz-adv-x="508" 
d="M482 512l-188 -512h-80l-188 512h75l153 -436l153 436h75z" />
    <glyph glyph-name="w" unicode="w" horiz-adv-x="760" 
d="M728 512l-140 -512h-72l-136 432l-136 -432h-72l-140 512h72l108 -421l132 421h72l132 -421l108 421h72z" />
    <glyph glyph-name="x" unicode="x" horiz-adv-x="508" 
d="M293 260l180 -260h-80l-139 204l-139 -204h-80l180 260l-173 252h79l133 -195l133 195h79z" />
    <glyph glyph-name="y" unicode="y" horiz-adv-x="508" 
d="M226 -174h-74l65 174l-191 512h75l156 -435l150 435h75l-189 -512z" />
    <glyph glyph-name="z" unicode="z" horiz-adv-x="499" 
d="M57 0v57l302 395h-290v60h374v-57l-302 -395h306v-60h-390z" />
    <glyph glyph-name="braceleft" unicode="{" horiz-adv-x="425" 
d="M32 355h28c64 0 98 37 98 101v176c0 92 52 150 157 150h68v-62h-56c-69 0 -93 -33 -93 -91v-179c0 -70 -31 -115 -97 -126c66 -11 97 -56 97 -126v-179c0 -58 24 -91 93 -91h56v-62h-68c-105 0 -157 58 -157 150v176c0 64 -34 101 -98 101h-28v62z" />
    <glyph glyph-name="bar" unicode="|" horiz-adv-x="304" 
d="M120 -150v950h64v-950h-64z" />
    <glyph glyph-name="braceright" unicode="}" horiz-adv-x="425" 
d="M365 355h28v-62h-28c-64 0 -98 -37 -98 -101v-176c0 -92 -52 -150 -157 -150h-68v62h56c69 0 93 33 93 91v179c0 70 31 115 97 126c-66 11 -97 56 -97 126v179c0 58 -24 91 -93 91h-56v62h68c105 0 157 -58 157 -150v-176c0 -64 34 -101 98 -101z" />
    <glyph glyph-name="asciitilde" unicode="~" horiz-adv-x="596" 
d="M65 293c3 91 38 150 124 150c79 0 178 -98 227 -98c45 0 49 48 54 88l66 -9c-3 -75 -35 -144 -117 -144c-71 0 -170 98 -225 98c-49 0 -57 -38 -63 -90z" />
    <glyph glyph-name="uni00A0" unicode="&#xa0;" horiz-adv-x="220" 
 />
    <glyph glyph-name="exclamdown" unicode="&#xa1;" horiz-adv-x="262" 
d="M151 516l20 -251v-265h-80v265l20 251h40zM182 657c0 -29 -21 -49 -51 -49s-51 20 -51 49s22 49 51 49s51 -20 51 -49z" />
    <glyph glyph-name="cent" unicode="&#xa2;" horiz-adv-x="571" 
d="M251 0v102c-108 15 -180 92 -180 211v74c0 118 74 195 181 210v103h75v-103c104 -15 163 -82 173 -166h-70c-10 60 -57 107 -140 107c-92 0 -145 -56 -145 -152v-72c0 -96 53 -152 145 -152c83 0 130 47 140 107h70c-10 -84 -75 -153 -174 -167v-102h-75z" />
    <glyph glyph-name="sterling" unicode="&#xa3;" horiz-adv-x="661" 
d="M73 0v62h121v242h-107v62h107v143c0 135 76 205 204 205c129 0 202 -78 202 -189v-16h-71v15c0 75 -45 128 -130 128c-92 0 -130 -52 -130 -142v-144h208v-62h-208v-242h295v-62h-491z" />
    <glyph glyph-name="currency" unicode="&#xa4;" horiz-adv-x="600" 
d="M300 148c-37 0 -69 8 -96 22l-55 -84h-76l82 125c-23 29 -36 67 -36 108v60c0 41 13 78 36 108l-82 125h76l55 -85c27 15 59 23 96 23s69 -8 95 -23l56 85h76l-83 -125c24 -30 37 -67 37 -108v-60c0 -41 -13 -79 -37 -108l83 -125h-76l-56 84c-26 -14 -58 -22 -95 -22z
M300 203c78 0 116 50 116 113v66c0 63 -38 113 -116 113s-116 -50 -116 -113v-66c0 -63 38 -113 116 -113z" />
    <glyph glyph-name="yen" unicode="&#xa5;" horiz-adv-x="594" 
d="M80 171v58h180v49l-33 70h-147v58h119l-139 294h81l156 -348l156 348h81l-140 -294h120v-58h-147l-33 -70v-49h180v-58h-180v-171h-74v171h-180z" />
    <glyph glyph-name="brokenbar" unicode="&#xa6;" horiz-adv-x="304" 
d="M120 -150v383h64v-383h-64zM184 800v-382h-64v382h64z" />
    <glyph glyph-name="section" unicode="&#xa7;" horiz-adv-x="608" 
d="M302 -128c-120 0 -203 65 -203 165v12h68v-10c0 -64 44 -112 135 -112c74 0 129 33 129 100c0 46 -27 72 -73 89l-169 67c-71 26 -113 66 -113 140c0 66 39 108 79 135c-26 23 -41 52 -41 98c0 99 78 158 194 158c126 0 201 -63 201 -165v-12h-65v12
c0 66 -46 110 -135 110c-79 0 -126 -36 -126 -100c0 -49 29 -73 73 -91l179 -75c66 -28 102 -66 102 -138c0 -51 -34 -104 -69 -135c20 -22 32 -50 32 -90c0 -91 -83 -158 -198 -158zM370 176c24 -10 38 -15 55 -24c25 28 45 59 45 99c0 38 -15 67 -64 88l-162 69
c-16 7 -31 13 -45 20c-30 -23 -56 -58 -56 -100c0 -44 20 -70 74 -90z" />
    <glyph glyph-name="dieresis" unicode="&#xa8;" horiz-adv-x="461" 
d="M82 651c0 27 19 46 48 46s48 -19 48 -46s-19 -46 -48 -46s-48 19 -48 46zM282 651c0 27 19 46 48 46s48 -19 48 -46s-19 -46 -48 -46s-48 19 -48 46z" />
    <glyph glyph-name="copyright" unicode="&#xa9;" horiz-adv-x="862" 
d="M431 -12c-219 0 -361 166 -361 362s142 362 361 362s361 -166 361 -362s-142 -362 -361 -362zM431 14c206 0 332 156 332 336s-126 336 -332 336s-332 -156 -332 -336s126 -336 332 -336zM331 321c0 -65 31 -113 100 -113c59 0 88 36 94 81h45c-6 -65 -58 -121 -139 -121
c-97 0 -146 71 -146 153v58c0 82 49 153 146 153c81 0 133 -56 139 -121h-45c-6 45 -35 81 -94 81c-69 0 -100 -48 -100 -113v-58z" />
    <glyph glyph-name="ordfeminine" unicode="&#xaa;" horiz-adv-x="424" 
d="M65 262v45h291v-45h-291zM346 379h-49v40c-13 -23 -60 -48 -109 -48c-75 0 -124 44 -124 102c0 67 56 104 131 104c51 0 84 -22 99 -38v50c0 45 -26 79 -77 79c-43 0 -70 -20 -80 -49h-46c12 58 61 90 127 90c76 0 128 -52 128 -121v-209zM199 407c53 0 96 28 96 67
c0 37 -44 68 -95 68c-55 0 -86 -25 -86 -69c0 -42 35 -66 85 -66z" />
    <glyph glyph-name="guillemotleft" unicode="&#xab;" horiz-adv-x="614" 
d="M208 60l-172 212l172 212h87l-172 -212l172 -212h-87zM471 60l-172 212l172 212h87l-172 -212l172 -212h-87z" />
    <glyph glyph-name="logicalnot" unicode="&#xac;" horiz-adv-x="586" 
d="M60 330v60h446v-264h-68v204h-378z" />
    <glyph glyph-name="registered" unicode="&#xae;" horiz-adv-x="534" 
d="M50 500c0 112 82 212 217 212s217 -100 217 -212s-82 -212 -217 -212s-217 100 -217 212zM73 500c0 -106 75 -192 194 -192s194 86 194 192s-75 192 -194 192s-194 -86 -194 -192zM316 412l-35 65h-50v-65h-31v191h88c42 0 65 -29 65 -63c0 -26 -16 -49 -41 -59l40 -69
h-36zM231 503h47c31 0 44 14 44 37s-14 38 -44 38h-47v-75z" />
    <glyph glyph-name="macron" unicode="&#xaf;" horiz-adv-x="485" 
d="M91 617v58h303v-58h-303z" />
    <glyph glyph-name="degree" unicode="&#xb0;" horiz-adv-x="396" 
d="M50 562c0 77 50 148 148 148s148 -71 148 -148s-50 -148 -148 -148s-148 71 -148 148zM198 672c-71 0 -104 -54 -104 -110s33 -110 104 -110s104 54 104 110s-33 110 -104 110z" />
    <glyph glyph-name="plusminus" unicode="&#xb1;" horiz-adv-x="616" 
d="M274 148v193h-189v60h189v193h68v-193h189v-60h-189v-193h-68zM85 0v60h446v-60h-446z" />
    <glyph glyph-name="twosuperior" unicode="&#xb2;" horiz-adv-x="415" 
d="M75 465v43l169 155c22 20 39 44 39 71c0 37 -27 63 -74 63c-50 0 -76 -25 -76 -70v-7h-53v9c0 73 52 116 130 116c79 0 130 -46 130 -110c0 -46 -26 -78 -63 -110l-129 -113h187v-47h-260z" />
    <glyph glyph-name="threesuperior" unicode="&#xb3;" horiz-adv-x="418" 
d="M101 793v44h227v-44l-112 -114h3c68 0 124 -36 124 -104c0 -73 -66 -117 -139 -117c-68 0 -129 42 -134 112h51c6 -43 38 -68 85 -68c51 0 82 30 82 71c0 42 -33 66 -87 66h-50v41l109 113h-159z" />
    <glyph glyph-name="acute" unicode="&#xb4;" horiz-adv-x="355" 
d="M166 582h-75l81 142h92z" />
    <glyph glyph-name="mu" unicode="&#xb5;" horiz-adv-x="588" 
d="M507 512v-512h-72v87c-27 -58 -82 -99 -171 -99c-42 0 -82 17 -107 41v-203h-76v686h76v-319c0 -83 40 -141 126 -141c84 0 148 53 148 159v301h76z" />
    <glyph glyph-name="paragraph" unicode="&#xb6;" horiz-adv-x="576" 
d="M425 -174v827h-105v-461c-163 0 -264 96 -264 253c0 158 95 255 264 255h160v-874h-55z" />
    <glyph glyph-name="periodcentered" unicode="&#xb7;" horiz-adv-x="238" 
d="M68 290c0 29 21 49 51 49s51 -20 51 -49s-22 -49 -51 -49s-51 20 -51 49z" />
    <glyph glyph-name="cedilla" unicode="&#xb8;" horiz-adv-x="349" 
d="M159 -186c-19 0 -45 2 -66 6v44c18 -4 39 -6 55 -6c32 0 50 8 50 27c0 18 -16 25 -43 27l-46 3l19 85h48l-8 -46l13 -1c44 -3 77 -21 77 -65c0 -45 -39 -74 -99 -74z" />
    <glyph glyph-name="onesuperior" unicode="&#xb9;" horiz-adv-x="304" 
d="M147 465v316l-87 -34v50l96 40h48v-372h-57z" />
    <glyph glyph-name="ordmasculine" unicode="&#xba;" horiz-adv-x="440" 
d="M82 262v45h276v-45h-276zM369 517c0 -85 -57 -148 -149 -148s-149 63 -149 148v44c0 85 57 148 149 148s149 -63 149 -148v-44zM220 411c67 0 99 46 99 106v44c0 60 -32 106 -99 106s-99 -46 -99 -106v-44c0 -60 32 -106 99 -106z" />
    <glyph glyph-name="guillemotright" unicode="&#xbb;" horiz-adv-x="614" 
d="M578 272l-172 -212h-87l172 212l-172 212h87zM315 272l-172 -212h-87l172 212l-172 212h87z" />
    <glyph glyph-name="onequarter" unicode="&#xbc;" horiz-adv-x="797" 
d="M157 328v316l-87 -34v50l96 40h48v-372h-57zM437 84v44l126 244h54l-122 -242h133v79h53v-79h51v-46h-51v-84h-53v84h-191zM167 0l363 700h58l-363 -700h-58z" />
    <glyph glyph-name="onehalf" unicode="&#xbd;" horiz-adv-x="814" 
d="M484 0v43l169 155c22 20 39 44 39 71c0 37 -27 63 -74 63c-50 0 -76 -25 -76 -70v-7h-53v9c0 73 52 116 130 116c79 0 130 -46 130 -110c0 -46 -27 -77 -63 -110l-129 -113h187v-47h-260zM167 0l363 700h58l-363 -700h-58zM157 328v316l-87 -34v50l96 40h48v-372h-57z
" />
    <glyph glyph-name="threequarters" unicode="&#xbe;" horiz-adv-x="863" 
d="M106 656v44h227v-44l-112 -114h3c68 0 124 -36 124 -104c0 -73 -66 -117 -139 -117c-68 0 -129 42 -134 112h51c6 -43 38 -68 85 -68c51 0 82 30 82 71c0 42 -33 66 -87 66h-50v41l109 113h-159zM233 0l363 700h58l-363 -700h-58zM503 84v44l126 244h54l-122 -242h133v79
h53v-79h51v-46h-51v-84h-53v84h-191z" />
    <glyph glyph-name="questiondown" unicode="&#xbf;" horiz-adv-x="507" 
d="M312 525v-47c0 -87 -17 -130 -68 -170l-50 -39c-42 -33 -67 -62 -67 -112c0 -68 52 -109 133 -109s131 42 131 121v19h70v-20c0 -120 -79 -182 -202 -182c-125 0 -208 70 -208 171c0 65 33 113 79 148l53 41c48 37 62 60 62 137v42h67zM329 657c0 -29 -21 -49 -51 -49
s-51 20 -51 49s22 49 51 49s51 -20 51 -49z" />
    <glyph glyph-name="Agrave" unicode="&#xc0;" horiz-adv-x="680" 
d="M379 700l263 -700h-77l-64 178h-323l-63 -178h-77l263 700h78zM340 629l-140 -389h279zM293 760l-88 126h92l72 -126h-76z" />
    <glyph glyph-name="Aacute" unicode="&#xc1;" horiz-adv-x="680" 
d="M379 700l263 -700h-77l-64 178h-323l-63 -178h-77l263 700h78zM340 629l-140 -389h279zM390 760h-76l72 126h92z" />
    <glyph glyph-name="Acircumflex" unicode="&#xc2;" horiz-adv-x="680" 
d="M379 700l263 -700h-77l-64 178h-323l-63 -178h-77l263 700h78zM340 629l-140 -389h279zM187 760l116 126h74l116 -126h-74l-79 85l-79 -85h-74z" />
    <glyph glyph-name="Atilde" unicode="&#xc3;" horiz-adv-x="680" 
d="M379 700l263 -700h-77l-64 178h-323l-63 -178h-77l263 700h78zM340 629l-140 -389h279zM205 760l-52 9c10 67 40 112 102 112c61 0 143 -62 177 -62c32 0 38 33 48 66l51 -15c-14 -56 -37 -105 -97 -105c-53 0 -128 62 -177 62c-35 0 -45 -30 -52 -67z" />
    <glyph glyph-name="Adieresis" unicode="&#xc4;" horiz-adv-x="680" 
d="M379 700l263 -700h-77l-64 178h-323l-63 -178h-77l263 700h78zM340 629l-140 -389h279zM181 828c0 27 19 46 48 46s48 -19 48 -46s-19 -46 -48 -46s-48 19 -48 46zM403 828c0 27 19 46 48 46s48 -19 48 -46s-19 -46 -48 -46s-48 19 -48 46z" />
    <glyph glyph-name="Aring" unicode="&#xc5;" horiz-adv-x="680" 
d="M115 0h-77l253 675c-27 14 -43 42 -43 73c0 46 35 84 92 84s92 -38 92 -84c0 -31 -16 -59 -44 -73l254 -675h-77l-64 178h-323zM340 629l-140 -389h279zM340 700c32 0 50 20 50 48s-18 48 -50 48s-50 -20 -50 -48s18 -48 50 -48z" />
    <glyph glyph-name="AE" unicode="&#xc6;" horiz-adv-x="1041" 
d="M523 0v183h-305l-122 -183h-84l477 700h496v-65h-384v-248h355v-65h-355v-257h385v-65h-463zM260 246h263v394z" />
    <glyph glyph-name="Ccedilla" unicode="&#xc7;" horiz-adv-x="701" 
d="M367 -186c-19 0 -45 2 -66 6v44c18 -4 39 -6 55 -6c32 0 50 8 50 27c0 18 -16 25 -43 27l-46 3l16 72c-175 12 -263 138 -263 304v118c0 174 98 305 291 305c162 0 265 -113 276 -245h-75c-12 96 -76 180 -202 180c-143 0 -212 -100 -212 -237v-124
c0 -137 69 -237 212 -237c126 0 190 84 202 180h75c-11 -127 -106 -235 -256 -244l-5 -33l13 -1c44 -3 77 -21 77 -65c0 -45 -39 -74 -99 -74z" />
    <glyph glyph-name="Egrave" unicode="&#xc8;" horiz-adv-x="609" 
d="M91 0v700h462v-65h-384v-248h355v-65h-355v-257h385v-65h-463zM290 760l-88 126h92l72 -126h-76z" />
    <glyph glyph-name="Eacute" unicode="&#xc9;" horiz-adv-x="609" 
d="M91 0v700h462v-65h-384v-248h355v-65h-355v-257h385v-65h-463zM353 760h-76l72 126h92z" />
    <glyph glyph-name="Ecircumflex" unicode="&#xca;" horiz-adv-x="609" 
d="M91 0v700h462v-65h-384v-248h355v-65h-355v-257h385v-65h-463zM169 760l116 126h74l116 -126h-74l-79 85l-79 -85h-74z" />
    <glyph glyph-name="Edieresis" unicode="&#xcb;" horiz-adv-x="609" 
d="M91 0v700h462v-65h-384v-248h355v-65h-355v-257h385v-65h-463zM163 828c0 27 19 46 48 46s48 -19 48 -46s-19 -46 -48 -46s-48 19 -48 46zM385 828c0 27 19 46 48 46s48 -19 48 -46s-19 -46 -48 -46s-48 19 -48 46z" />
    <glyph glyph-name="Igrave" unicode="&#xcc;" horiz-adv-x="270" 
d="M96 0v700h78v-700h-78zM96 760l-88 126h92l72 -126h-76z" />
    <glyph glyph-name="Iacute" unicode="&#xcd;" horiz-adv-x="270" 
d="M96 0v700h78v-700h-78zM180 760h-76l72 126h92z" />
    <glyph glyph-name="Icircumflex" unicode="&#xce;" horiz-adv-x="270" 
d="M96 0v700h78v-700h-78zM-18 760l116 126h74l116 -126h-74l-79 85l-79 -85h-74z" />
    <glyph glyph-name="Idieresis" unicode="&#xcf;" horiz-adv-x="270" 
d="M96 0v700h78v-700h-78zM-24 828c0 27 19 46 48 46s48 -19 48 -46s-19 -46 -48 -46s-48 19 -48 46zM198 828c0 27 19 46 48 46s48 -19 48 -46s-19 -46 -48 -46s-48 19 -48 46z" />
    <glyph glyph-name="Eth" unicode="&#xd0;" horiz-adv-x="731" 
d="M39 318v64h84v318h263c178 0 276 -113 276 -269v-162c0 -156 -98 -269 -276 -269h-263v318h-84zM375 64c138 0 210 83 210 205v162c0 122 -72 205 -210 205h-175v-254h184v-64h-184v-254h175z" />
    <glyph glyph-name="Ntilde" unicode="&#xd1;" horiz-adv-x="716" 
d="M226 760l-52 9c10 67 40 112 102 112c61 0 143 -62 177 -62c32 0 38 33 48 66l51 -15c-14 -56 -37 -105 -97 -105c-53 0 -128 62 -177 62c-35 0 -45 -30 -52 -67zM91 0v700h73l385 -575v575h76v-700h-73l-385 575v-575h-76z" />
    <glyph glyph-name="Ograve" unicode="&#xd2;" horiz-adv-x="728" 
d="M330 760l-88 126h92l72 -126h-76zM658 294c0 -169 -98 -308 -294 -308s-294 139 -294 308v112c0 169 98 308 294 308s294 -139 294 -308v-112zM364 51c149 0 216 107 216 239v120c0 132 -67 239 -216 239s-216 -107 -216 -239v-120c0 -132 67 -239 216 -239z" />
    <glyph glyph-name="Oacute" unicode="&#xd3;" horiz-adv-x="728" 
d="M658 294c0 -169 -98 -308 -294 -308s-294 139 -294 308v112c0 169 98 308 294 308s294 -139 294 -308v-112zM364 51c149 0 216 107 216 239v120c0 132 -67 239 -216 239s-216 -107 -216 -239v-120c0 -132 67 -239 216 -239zM405 760h-76l72 126h92z" />
    <glyph glyph-name="Ocircumflex" unicode="&#xd4;" horiz-adv-x="728" 
d="M658 294c0 -169 -98 -308 -294 -308s-294 139 -294 308v112c0 169 98 308 294 308s294 -139 294 -308v-112zM364 51c149 0 216 107 216 239v120c0 132 -67 239 -216 239s-216 -107 -216 -239v-120c0 -132 67 -239 216 -239zM211 760l116 126h74l116 -126h-74l-79 85
l-79 -85h-74z" />
    <glyph glyph-name="Otilde" unicode="&#xd5;" horiz-adv-x="728" 
d="M658 294c0 -169 -98 -308 -294 -308s-294 139 -294 308v112c0 169 98 308 294 308s294 -139 294 -308v-112zM364 51c149 0 216 107 216 239v120c0 132 -67 239 -216 239s-216 -107 -216 -239v-120c0 -132 67 -239 216 -239zM229 760l-52 9c10 67 40 112 102 112
c61 0 143 -62 177 -62c32 0 38 33 48 66l51 -15c-14 -56 -37 -105 -97 -105c-53 0 -128 62 -177 62c-35 0 -45 -30 -52 -67z" />
    <glyph glyph-name="Odieresis" unicode="&#xd6;" horiz-adv-x="728" 
d="M658 294c0 -169 -98 -308 -294 -308s-294 139 -294 308v112c0 169 98 308 294 308s294 -139 294 -308v-112zM364 51c149 0 216 107 216 239v120c0 132 -67 239 -216 239s-216 -107 -216 -239v-120c0 -132 67 -239 216 -239zM205 828c0 27 19 46 48 46s48 -19 48 -46
s-19 -46 -48 -46s-48 19 -48 46zM427 828c0 27 19 46 48 46s48 -19 48 -46s-19 -46 -48 -46s-48 19 -48 46z" />
    <glyph glyph-name="multiply" unicode="&#xd7;" horiz-adv-x="574" 
d="M80 198l162 161l-162 162l46 45l161 -162l162 162l45 -45l-162 -162l162 -161l-45 -45l-162 161l-161 -161z" />
    <glyph glyph-name="Oslash" unicode="&#xd8;" horiz-adv-x="728" 
d="M658 294c0 -169 -98 -308 -294 -308c-71 0 -129 18 -175 50l-56 -86h-63l79 120c-53 57 -79 136 -79 224v112c0 169 98 308 294 308c71 0 129 -19 174 -50l57 86h63l-79 -121c52 -56 79 -136 79 -223v-112zM364 51c149 0 216 107 216 239v120c0 60 -14 114 -43 156
l-310 -472c34 -27 79 -43 137 -43zM148 290c0 -60 13 -114 42 -156l310 472c-34 27 -79 43 -136 43c-149 0 -216 -107 -216 -239v-120z" />
    <glyph glyph-name="Ugrave" unicode="&#xd9;" horiz-adv-x="708" 
d="M325 760l-88 126h92l72 -126h-76zM354 -14c-166 0 -269 105 -269 250v464h78v-471c0 -109 73 -178 191 -178s191 69 191 178v471h78v-464c0 -145 -103 -250 -269 -250z" />
    <glyph glyph-name="Uacute" unicode="&#xda;" horiz-adv-x="708" 
d="M354 -14c-166 0 -269 105 -269 250v464h78v-471c0 -109 73 -178 191 -178s191 69 191 178v471h78v-464c0 -145 -103 -250 -269 -250zM387 760h-76l72 126h92z" />
    <glyph glyph-name="Ucircumflex" unicode="&#xdb;" horiz-adv-x="708" 
d="M201 760l116 126h74l116 -126h-74l-79 85l-79 -85h-74zM354 -14c-166 0 -269 105 -269 250v464h78v-471c0 -109 73 -178 191 -178s191 69 191 178v471h78v-464c0 -145 -103 -250 -269 -250z" />
    <glyph glyph-name="Udieresis" unicode="&#xdc;" horiz-adv-x="708" 
d="M354 -14c-166 0 -269 105 -269 250v464h78v-471c0 -109 73 -178 191 -178s191 69 191 178v471h78v-464c0 -145 -103 -250 -269 -250zM194 828c0 27 19 46 48 46s48 -19 48 -46s-19 -46 -48 -46s-48 19 -48 46zM416 828c0 27 19 46 48 46s48 -19 48 -46s-19 -46 -48 -46
s-48 19 -48 46z" />
    <glyph glyph-name="Yacute" unicode="&#xdd;" horiz-adv-x="604" 
d="M263 0v265l-249 435h82l206 -364l206 364h82l-249 -435v-265h-78zM336 760h-76l72 126h92z" />
    <glyph glyph-name="Thorn" unicode="&#xde;" horiz-adv-x="639" 
d="M91 0v700h78v-115h196c147 0 238 -96 238 -222s-91 -224 -238 -224h-196v-139h-78zM169 204h189c115 0 167 74 167 159s-52 157 -167 157h-189v-316z" />
    <glyph glyph-name="germandbls" unicode="&#xdf;" horiz-adv-x="602" 
d="M81 0v534c0 134 88 200 214 200c130 0 217 -80 217 -190c0 -79 -46 -143 -111 -172c89 -18 151 -78 151 -178c0 -115 -88 -194 -219 -194h-38v62h34c89 0 148 50 148 136c0 85 -65 135 -156 135h-26v62c94 3 142 71 142 144c0 77 -54 134 -142 134
c-79 0 -138 -40 -138 -136v-537h-76z" />
    <glyph glyph-name="agrave" unicode="&#xe0;" horiz-adv-x="576" 
d="M501 0h-73v64c-22 -36 -91 -76 -176 -76c-121 0 -194 68 -194 161c0 99 81 160 203 160c81 0 135 -34 164 -64v95c0 70 -46 124 -128 124c-65 0 -107 -30 -128 -77h-70c26 85 98 137 199 137c127 0 203 -83 203 -184v-340zM268 37c80 0 157 47 157 113
c0 64 -76 109 -153 109c-85 0 -142 -40 -142 -111s59 -111 138 -111zM267 582l-98 142h93l80 -142h-75z" />
    <glyph glyph-name="aacute" unicode="&#xe1;" horiz-adv-x="576" 
d="M501 0h-73v64c-22 -36 -91 -76 -176 -76c-121 0 -194 68 -194 161c0 99 81 160 203 160c81 0 135 -34 164 -64v95c0 70 -46 124 -128 124c-65 0 -107 -30 -128 -77h-70c26 85 98 137 199 137c127 0 203 -83 203 -184v-340zM268 37c80 0 157 47 157 113
c0 64 -76 109 -153 109c-85 0 -142 -40 -142 -111s59 -111 138 -111zM335 582h-75l81 142h92z" />
    <glyph glyph-name="acircumflex" unicode="&#xe2;" horiz-adv-x="576" 
d="M501 0h-73v64c-22 -36 -91 -76 -176 -76c-121 0 -194 68 -194 161c0 99 81 160 203 160c81 0 135 -34 164 -64v95c0 70 -46 124 -128 124c-65 0 -107 -30 -128 -77h-70c26 85 98 137 199 137c127 0 203 -83 203 -184v-340zM268 37c80 0 157 47 157 113
c0 64 -76 109 -153 109c-85 0 -142 -40 -142 -111s59 -111 138 -111zM161 582l110 142h74l110 -142h-71l-76 99l-76 -99h-71z" />
    <glyph glyph-name="atilde" unicode="&#xe3;" horiz-adv-x="576" 
d="M501 0h-73v64c-22 -36 -91 -76 -176 -76c-121 0 -194 68 -194 161c0 99 81 160 203 160c81 0 135 -34 164 -64v95c0 70 -46 124 -128 124c-65 0 -107 -30 -128 -77h-70c26 85 98 137 199 137c127 0 203 -83 203 -184v-340zM268 37c80 0 157 47 157 113
c0 64 -76 109 -153 109c-85 0 -142 -40 -142 -111s59 -111 138 -111zM181 583l-50 10c11 65 37 111 99 111c57 0 127 -62 159 -62s38 34 47 66l50 -11c-14 -56 -35 -109 -95 -109c-49 0 -112 62 -159 62c-35 0 -42 -33 -51 -67z" />
    <glyph glyph-name="adieresis" unicode="&#xe4;" horiz-adv-x="576" 
d="M501 0h-73v64c-22 -36 -91 -76 -176 -76c-121 0 -194 68 -194 161c0 99 81 160 203 160c81 0 135 -34 164 -64v95c0 70 -46 124 -128 124c-65 0 -107 -30 -128 -77h-70c26 85 98 137 199 137c127 0 203 -83 203 -184v-340zM268 37c80 0 157 47 157 113
c0 64 -76 109 -153 109c-85 0 -142 -40 -142 -111s59 -111 138 -111zM157 651c0 27 19 46 48 46s48 -19 48 -46s-19 -46 -48 -46s-48 19 -48 46zM357 651c0 27 19 46 48 46s48 -19 48 -46s-19 -46 -48 -46s-48 19 -48 46z" />
    <glyph glyph-name="aring" unicode="&#xe5;" horiz-adv-x="576" 
d="M501 0h-73v64c-22 -36 -91 -76 -176 -76c-121 0 -194 68 -194 161c0 99 81 160 203 160c81 0 135 -34 164 -64v95c0 70 -46 124 -128 124c-65 0 -107 -30 -128 -77h-70c26 85 98 137 199 137c127 0 203 -83 203 -184v-340zM268 37c80 0 157 47 157 113
c0 64 -76 109 -153 109c-85 0 -142 -40 -142 -111s59 -111 138 -111zM312 582c-57 0 -92 38 -92 84s35 84 92 84s92 -38 92 -84s-35 -84 -92 -84zM312 618c32 0 50 20 50 48s-18 48 -50 48s-50 -20 -50 -48s18 -48 50 -48z" />
    <glyph glyph-name="ae" unicode="&#xe6;" horiz-adv-x="926" 
d="M654 -12c-83 0 -155 44 -190 100c-25 -44 -98 -100 -200 -100c-125 0 -206 66 -206 162s83 160 203 160c82 0 141 -38 164 -62v86c0 75 -48 130 -129 130c-69 0 -110 -30 -130 -79h-70c25 94 102 139 201 139c78 0 136 -33 171 -87c37 53 100 87 183 87
c146 0 217 -97 217 -223v-76h-367v-18c0 -89 46 -161 153 -161c77 0 124 41 141 99h68c-17 -92 -102 -157 -209 -157zM270 38c80 0 155 48 155 112c0 60 -71 110 -152 110c-87 0 -143 -43 -143 -111c0 -64 50 -111 140 -111zM501 306v-23h296v24c0 91 -46 159 -146 159
c-108 0 -148 -70 -150 -160z" />
    <glyph glyph-name="ccedilla" unicode="&#xe7;" horiz-adv-x="560" 
d="M285 -186c-19 0 -45 2 -66 6v44c18 -4 39 -6 55 -6c32 0 50 8 50 27c0 18 -16 25 -43 27l-46 3l16 75c-123 12 -195 104 -195 223v86c0 129 85 225 227 225c129 0 213 -84 219 -192h-68c-10 69 -53 132 -150 132c-105 0 -154 -68 -154 -164v-88c0 -96 49 -164 154 -164
c97 0 140 63 150 132h68c-6 -103 -83 -184 -202 -191l-6 -35l13 -1c44 -3 77 -21 77 -65c0 -45 -39 -74 -99 -74z" />
    <glyph glyph-name="egrave" unicode="&#xe8;" horiz-adv-x="554" 
d="M282 -12c-133 0 -226 85 -226 223v82c0 139 79 231 223 231c146 0 217 -97 217 -223v-76h-367v-18c0 -89 46 -161 153 -161c77 0 124 41 141 99h68c-17 -92 -102 -157 -209 -157zM129 299v-16h296v24c0 91 -46 159 -146 159c-110 0 -150 -73 -150 -167zM242 582l-98 142
h93l80 -142h-75z" />
    <glyph glyph-name="eacute" unicode="&#xe9;" horiz-adv-x="554" 
d="M312 582h-75l81 142h92zM282 -12c-133 0 -226 85 -226 223v82c0 139 79 231 223 231c146 0 217 -97 217 -223v-76h-367v-18c0 -89 46 -161 153 -161c77 0 124 41 141 99h68c-17 -92 -102 -157 -209 -157zM129 299v-16h296v24c0 91 -46 159 -146 159
c-110 0 -150 -73 -150 -167z" />
    <glyph glyph-name="ecircumflex" unicode="&#xea;" horiz-adv-x="554" 
d="M135 582l110 142h74l110 -142h-71l-76 99l-76 -99h-71zM282 -12c-133 0 -226 85 -226 223v82c0 139 79 231 223 231c146 0 217 -97 217 -223v-76h-367v-18c0 -89 46 -161 153 -161c77 0 124 41 141 99h68c-17 -92 -102 -157 -209 -157zM129 299v-16h296v24
c0 91 -46 159 -146 159c-110 0 -150 -73 -150 -167z" />
    <glyph glyph-name="edieresis" unicode="&#xeb;" horiz-adv-x="554" 
d="M136 651c0 27 19 46 48 46s48 -19 48 -46s-19 -46 -48 -46s-48 19 -48 46zM336 651c0 27 19 46 48 46s48 -19 48 -46s-19 -46 -48 -46s-48 19 -48 46zM282 -12c-133 0 -226 85 -226 223v82c0 139 79 231 223 231c146 0 217 -97 217 -223v-76h-367v-18
c0 -89 46 -161 153 -161c77 0 124 41 141 99h68c-17 -92 -102 -157 -209 -157zM129 299v-16h296v24c0 91 -46 159 -146 159c-110 0 -150 -73 -150 -167z" />
    <glyph glyph-name="igrave" unicode="&#xec;" horiz-adv-x="248" 
d="M86 0v512h76v-512h-76zM83 582l-98 142h93l80 -142h-75z" />
    <glyph glyph-name="iacute" unicode="&#xed;" horiz-adv-x="248" 
d="M169 582h-75l81 142h92zM86 0v512h76v-512h-76z" />
    <glyph glyph-name="icircumflex" unicode="&#xee;" horiz-adv-x="248" 
d="M-23 582l110 142h74l110 -142h-71l-76 99l-76 -99h-71zM86 0v512h76v-512h-76z" />
    <glyph glyph-name="idieresis" unicode="&#xef;" horiz-adv-x="248" 
d="M-24 651c0 27 19 46 48 46s48 -19 48 -46s-19 -46 -48 -46s-48 19 -48 46zM176 651c0 27 19 46 48 46s48 -19 48 -46s-19 -46 -48 -46s-48 19 -48 46zM86 0v512h76v-512h-76z" />
    <glyph glyph-name="eth" unicode="&#xf0;" horiz-adv-x="570" 
d="M151 552l-18 52l120 38c-36 29 -77 57 -125 88h96c33 -17 67 -39 99 -65l112 36l18 -51l-84 -27c82 -85 145 -200 145 -327v-78c0 -128 -91 -232 -232 -232c-131 0 -226 94 -226 223v64c0 141 80 229 211 229c79 0 131 -33 159 -76c-32 71 -67 126 -124 175zM283 47
c100 0 157 68 157 162v67c0 100 -71 169 -155 169c-98 0 -155 -65 -155 -171v-71c0 -95 66 -156 153 -156z" />
    <glyph glyph-name="ntilde" unicode="&#xf1;" horiz-adv-x="588" 
d="M81 0v512h72v-87c24 58 82 99 171 99c115 0 188 -78 188 -201v-323h-76v312c0 87 -39 146 -131 146c-84 0 -148 -51 -148 -157v-301h-76zM173 583l-50 10c11 65 37 111 99 111c57 0 127 -62 159 -62s38 34 47 66l50 -11c-14 -56 -35 -109 -95 -109c-49 0 -112 62 -159 62
c-35 0 -42 -33 -51 -67z" />
    <glyph glyph-name="ograve" unicode="&#xf2;" 
d="M285 -12c-146 0 -229 100 -229 226v84c0 126 84 226 229 226s228 -100 228 -226v-84c0 -126 -83 -226 -228 -226zM440 297c0 97 -54 166 -155 166s-155 -69 -155 -166v-82c0 -97 54 -166 155 -166s155 69 155 166v82zM247 582l-98 142h93l80 -142h-75z" />
    <glyph glyph-name="oacute" unicode="&#xf3;" 
d="M329 582h-75l81 142h92zM285 -12c-146 0 -229 100 -229 226v84c0 126 84 226 229 226s228 -100 228 -226v-84c0 -126 -83 -226 -228 -226zM440 297c0 97 -54 166 -155 166s-155 -69 -155 -166v-82c0 -97 54 -166 155 -166s155 69 155 166v82z" />
    <glyph glyph-name="ocircumflex" unicode="&#xf4;" 
d="M137 582l110 142h74l110 -142h-71l-76 99l-76 -99h-71zM285 -12c-146 0 -229 100 -229 226v84c0 126 84 226 229 226s228 -100 228 -226v-84c0 -126 -83 -226 -228 -226zM440 297c0 97 -54 166 -155 166s-155 -69 -155 -166v-82c0 -97 54 -166 155 -166s155 69 155 166
v82z" />
    <glyph glyph-name="otilde" unicode="&#xf5;" 
d="M285 -12c-146 0 -229 100 -229 226v84c0 126 84 226 229 226s228 -100 228 -226v-84c0 -126 -83 -226 -228 -226zM440 297c0 97 -54 166 -155 166s-155 -69 -155 -166v-82c0 -97 54 -166 155 -166s155 69 155 166v82zM166 583l-50 10c11 65 37 111 99 111
c57 0 127 -62 159 -62s38 34 47 66l50 -11c-14 -56 -35 -109 -95 -109c-49 0 -112 62 -159 62c-35 0 -42 -33 -51 -67z" />
    <glyph glyph-name="odieresis" unicode="&#xf6;" 
d="M136 651c0 27 19 46 48 46s48 -19 48 -46s-19 -46 -48 -46s-48 19 -48 46zM336 651c0 27 19 46 48 46s48 -19 48 -46s-19 -46 -48 -46s-48 19 -48 46zM285 -12c-146 0 -229 100 -229 226v84c0 126 84 226 229 226s228 -100 228 -226v-84c0 -126 -83 -226 -228 -226z
M440 297c0 97 -54 166 -155 166s-155 -69 -155 -166v-82c0 -97 54 -166 155 -166s155 69 155 166v82z" />
    <glyph glyph-name="divide" unicode="&#xf7;" horiz-adv-x="594" 
d="M80 328v64h434v-64h-434zM247 553c0 28 21 48 50 48s50 -20 50 -48s-22 -48 -50 -48s-50 20 -50 48zM247 167c0 28 21 48 50 48s50 -20 50 -48s-22 -48 -50 -48s-50 20 -50 48z" />
    <glyph glyph-name="oslash" unicode="&#xf8;" 
d="M285 -12c-50 0 -92 12 -126 31l-45 -69h-58l64 99c-42 41 -64 99 -64 165v84c0 126 84 226 229 226c49 0 90 -11 124 -31l46 70h58l-65 -100c42 -41 65 -99 65 -165v-84c0 -126 -83 -226 -228 -226zM440 297c0 42 -10 79 -30 107l-216 -330c24 -16 54 -25 91 -25
c101 0 155 69 155 166v82zM130 215c0 -42 9 -79 29 -107l215 331c-24 15 -54 24 -89 24c-101 0 -155 -69 -155 -166v-82z" />
    <glyph glyph-name="ugrave" unicode="&#xf9;" horiz-adv-x="584" 
d="M503 512v-512h-72v87c-24 -58 -82 -99 -171 -99c-112 0 -183 78 -183 201v323h76v-312c0 -87 38 -148 126 -148c84 0 148 53 148 159v301h76zM276 582l-98 142h93l80 -142h-75z" />
    <glyph glyph-name="uacute" unicode="&#xfa;" horiz-adv-x="584" 
d="M319 582h-75l81 142h92zM503 512v-512h-72v87c-24 -58 -82 -99 -171 -99c-112 0 -183 78 -183 201v323h76v-312c0 -87 38 -148 126 -148c84 0 148 53 148 159v301h76z" />
    <glyph glyph-name="ucircumflex" unicode="&#xfb;" horiz-adv-x="584" 
d="M154 582l110 142h74l110 -142h-71l-76 99l-76 -99h-71zM503 512v-512h-72v87c-24 -58 -82 -99 -171 -99c-112 0 -183 78 -183 201v323h76v-312c0 -87 38 -148 126 -148c84 0 148 53 148 159v301h76z" />
    <glyph glyph-name="udieresis" unicode="&#xfc;" horiz-adv-x="584" 
d="M152 651c0 27 19 46 48 46s48 -19 48 -46s-19 -46 -48 -46s-48 19 -48 46zM352 651c0 27 19 46 48 46s48 -19 48 -46s-19 -46 -48 -46s-48 19 -48 46zM503 512v-512h-72v87c-24 -58 -82 -99 -171 -99c-112 0 -183 78 -183 201v323h76v-312c0 -87 38 -148 126 -148
c84 0 148 53 148 159v301h76z" />
    <glyph glyph-name="yacute" unicode="&#xfd;" horiz-adv-x="508" 
d="M226 -174h-74l65 174l-191 512h75l156 -435l150 435h75l-189 -512zM285 582h-75l81 142h92z" />
    <glyph glyph-name="thorn" unicode="&#xfe;" horiz-adv-x="596" 
d="M157 -174h-76v904h76v-290c25 44 89 84 169 84c137 0 214 -99 214 -229v-78c0 -133 -83 -229 -212 -229c-80 0 -140 36 -171 88v-250zM464 220v72c0 94 -45 170 -151 170c-101 0 -156 -77 -156 -176v-66c0 -105 72 -170 157 -170c97 0 150 76 150 170z" />
    <glyph glyph-name="ydieresis" unicode="&#xff;" horiz-adv-x="508" 
d="M226 -174h-74l65 174l-191 512h75l156 -435l150 435h75l-189 -512zM109 651c0 27 19 46 48 46s48 -19 48 -46s-19 -46 -48 -46s-48 19 -48 46zM309 651c0 27 19 46 48 46s48 -19 48 -46s-19 -46 -48 -46s-48 19 -48 46z" />
    <glyph glyph-name="Amacron" unicode="&#x100;" horiz-adv-x="680" 
d="M379 700l263 -700h-77l-64 178h-323l-63 -178h-77l263 700h78zM340 629l-140 -389h279zM179 796v59h322v-59h-322z" />
    <glyph glyph-name="amacron" unicode="&#x101;" horiz-adv-x="576" 
d="M501 0h-73v64c-22 -36 -91 -76 -176 -76c-121 0 -194 68 -194 161c0 99 81 160 203 160c81 0 135 -34 164 -64v95c0 70 -46 124 -128 124c-65 0 -107 -30 -128 -77h-70c26 85 98 137 199 137c127 0 203 -83 203 -184v-340zM268 37c80 0 157 47 157 113
c0 64 -76 109 -153 109c-85 0 -142 -40 -142 -111s59 -111 138 -111zM152 617v58h303v-58h-303z" />
    <glyph glyph-name="Abreve" unicode="&#x102;" horiz-adv-x="680" 
d="M379 700l263 -700h-77l-64 178h-323l-63 -178h-77l263 700h78zM340 629l-140 -389h279zM340 760c-100 0 -161 51 -161 126h59c0 -46 35 -78 102 -78s102 32 102 78h59c0 -75 -61 -126 -161 -126z" />
    <glyph glyph-name="abreve" unicode="&#x103;" horiz-adv-x="576" 
d="M501 0h-73v64c-22 -36 -91 -76 -176 -76c-121 0 -194 68 -194 161c0 99 81 160 203 160c81 0 135 -34 164 -64v95c0 70 -46 124 -128 124c-65 0 -107 -30 -128 -77h-70c26 85 98 137 199 137c127 0 203 -83 203 -184v-340zM268 37c80 0 157 47 157 113
c0 64 -76 109 -153 109c-85 0 -142 -40 -142 -111s59 -111 138 -111zM309 582c-98 0 -156 58 -156 142h56c0 -57 32 -95 100 -95s100 38 100 95h56c0 -84 -58 -142 -156 -142z" />
    <glyph glyph-name="Aogonek" unicode="&#x104;" horiz-adv-x="680" 
d="M580 -186c-53 0 -90 30 -90 81c0 52 36 85 75 105l-64 178h-323l-63 -178h-77l263 700h78l263 -700c-39 -24 -86 -53 -86 -97c0 -25 16 -36 50 -36c11 0 23 1 32 3v-49c-13 -3 -35 -7 -58 -7zM340 629l-140 -389h279z" />
    <glyph glyph-name="aogonek" unicode="&#x105;" horiz-adv-x="576" 
d="M428 64c-22 -36 -91 -76 -176 -76c-121 0 -194 68 -194 161c0 99 81 160 203 160c81 0 135 -34 164 -64v95c0 70 -46 124 -128 124c-65 0 -107 -30 -128 -77h-70c26 85 98 137 199 137c127 0 203 -83 203 -184v-340c-32 -19 -83 -51 -83 -97c0 -25 16 -36 50 -36
c11 0 23 1 32 3v-49c-13 -3 -35 -7 -58 -7c-56 0 -90 29 -90 79c0 52 36 85 76 107v64zM268 37c80 0 157 47 157 113c0 64 -76 109 -153 109c-85 0 -142 -40 -142 -111s59 -111 138 -111z" />
    <glyph glyph-name="Cacute" unicode="&#x106;" horiz-adv-x="701" 
d="M361 -14c-193 0 -291 131 -291 305v118c0 174 98 305 291 305c162 0 265 -113 276 -245h-75c-12 96 -76 180 -202 180c-143 0 -212 -100 -212 -237v-124c0 -137 69 -237 212 -237c126 0 190 84 202 180h75c-11 -132 -114 -245 -276 -245zM397 760h-76l72 126h92z" />
    <glyph glyph-name="cacute" unicode="&#x107;" horiz-adv-x="560" 
d="M318 582h-75l81 142h92zM283 -12c-142 0 -227 96 -227 225v86c0 129 85 225 227 225c129 0 213 -84 219 -192h-68c-10 69 -53 132 -150 132c-105 0 -154 -68 -154 -164v-88c0 -96 49 -164 154 -164c97 0 140 63 150 132h68c-6 -108 -90 -192 -219 -192z" />
    <glyph glyph-name="Ccircumflex" unicode="&#x108;" horiz-adv-x="701" 
d="M361 -14c-193 0 -291 131 -291 305v118c0 174 98 305 291 305c162 0 265 -113 276 -245h-75c-12 96 -76 180 -202 180c-143 0 -212 -100 -212 -237v-124c0 -137 69 -237 212 -237c126 0 190 84 202 180h75c-11 -132 -114 -245 -276 -245zM211 760l116 126h74l116 -126
h-74l-79 85l-79 -85h-74z" />
    <glyph glyph-name="ccircumflex" unicode="&#x109;" horiz-adv-x="560" 
d="M139 582l110 142h74l110 -142h-71l-76 99l-76 -99h-71zM283 -12c-142 0 -227 96 -227 225v86c0 129 85 225 227 225c129 0 213 -84 219 -192h-68c-10 69 -53 132 -150 132c-105 0 -154 -68 -154 -164v-88c0 -96 49 -164 154 -164c97 0 140 63 150 132h68
c-6 -108 -90 -192 -219 -192z" />
    <glyph glyph-name="Cdotaccent" unicode="&#x10a;" horiz-adv-x="701" 
d="M315 822c0 27 19 46 48 46s48 -19 48 -46s-19 -46 -48 -46s-48 19 -48 46zM361 -14c-193 0 -291 131 -291 305v118c0 174 98 305 291 305c162 0 265 -113 276 -245h-75c-12 96 -76 180 -202 180c-143 0 -212 -100 -212 -237v-124c0 -137 69 -237 212 -237
c126 0 190 84 202 180h75c-11 -132 -114 -245 -276 -245z" />
    <glyph glyph-name="cdotaccent" unicode="&#x10b;" horiz-adv-x="560" 
d="M283 -12c-142 0 -227 96 -227 225v86c0 129 85 225 227 225c129 0 213 -84 219 -192h-68c-10 69 -53 132 -150 132c-105 0 -154 -68 -154 -164v-88c0 -96 49 -164 154 -164c97 0 140 63 150 132h68c-6 -108 -90 -192 -219 -192zM240 647c0 27 19 46 48 46s48 -19 48 -46
s-19 -46 -48 -46s-48 19 -48 46z" />
    <glyph glyph-name="Ccaron" unicode="&#x10c;" horiz-adv-x="701" 
d="M361 -14c-193 0 -291 131 -291 305v118c0 174 98 305 291 305c162 0 265 -113 276 -245h-75c-12 96 -76 180 -202 180c-143 0 -212 -100 -212 -237v-124c0 -137 69 -237 212 -237c126 0 190 84 202 180h75c-11 -132 -114 -245 -276 -245zM325 760l-116 126h74l79 -85
l79 85h74l-116 -126h-74z" />
    <glyph glyph-name="ccaron" unicode="&#x10d;" horiz-adv-x="560" 
d="M250 582l-110 142h71l76 -99l76 99h71l-110 -142h-74zM283 -12c-142 0 -227 96 -227 225v86c0 129 85 225 227 225c129 0 213 -84 219 -192h-68c-10 69 -53 132 -150 132c-105 0 -154 -68 -154 -164v-88c0 -96 49 -164 154 -164c97 0 140 63 150 132h68
c-6 -108 -90 -192 -219 -192z" />
    <glyph glyph-name="Dcaron" unicode="&#x10e;" horiz-adv-x="699" 
d="M91 700h263c178 0 276 -113 276 -269v-162c0 -156 -98 -269 -276 -269h-263v700zM343 64c138 0 210 83 210 205v162c0 122 -72 205 -210 205h-175v-572h175zM300 760l-116 126h74l79 -85l79 85h74l-116 -126h-74z" />
    <glyph glyph-name="dcaron" unicode="&#x10f;" horiz-adv-x="743" 
d="M620 534l40 196h82l-60 -196h-62zM439 730h76v-730h-72v80c-22 -47 -88 -92 -173 -92c-135 0 -214 101 -214 229v78c0 133 83 229 212 229c80 0 140 -36 171 -88v294zM132 292v-72c0 -94 45 -170 151 -170c101 0 156 77 156 176v66c0 105 -72 170 -157 170
c-97 0 -150 -76 -150 -170z" />
    <glyph glyph-name="Dcroat" unicode="&#x110;" horiz-adv-x="731" 
d="M39 318v64h84v318h263c178 0 276 -113 276 -269v-162c0 -156 -98 -269 -276 -269h-263v318h-84zM375 64c138 0 210 83 210 205v162c0 122 -72 205 -210 205h-175v-254h184v-64h-184v-254h175z" />
    <glyph glyph-name="dcroat" unicode="&#x111;" horiz-adv-x="618" 
d="M307 586v56h132v88h76v-88h77v-56h-77v-586h-72v80c-22 -47 -88 -92 -173 -92c-135 0 -214 101 -214 229v78c0 133 83 229 212 229c80 0 140 -36 171 -88v150h-132zM132 292v-72c0 -94 45 -170 151 -170c101 0 156 77 156 176v66c0 105 -72 170 -157 170
c-97 0 -150 -76 -150 -170z" />
    <glyph glyph-name="Emacron" unicode="&#x112;" horiz-adv-x="609" 
d="M91 0v700h462v-65h-384v-248h355v-65h-355v-257h385v-65h-463zM163 796v59h322v-59h-322z" />
    <glyph glyph-name="emacron" unicode="&#x113;" horiz-adv-x="554" 
d="M282 -12c-133 0 -226 85 -226 223v82c0 139 79 231 223 231c146 0 217 -97 217 -223v-76h-367v-18c0 -89 46 -161 153 -161c77 0 124 41 141 99h68c-17 -92 -102 -157 -209 -157zM129 299v-16h296v24c0 91 -46 159 -146 159c-110 0 -150 -73 -150 -167zM132 617v58h303
v-58h-303z" />
    <glyph glyph-name="Ebreve" unicode="&#x114;" horiz-adv-x="609" 
d="M91 0v700h462v-65h-384v-248h355v-65h-355v-257h385v-65h-463zM330 760c-100 0 -161 51 -161 126h59c0 -46 35 -78 102 -78s102 32 102 78h59c0 -75 -61 -126 -161 -126z" />
    <glyph glyph-name="ebreve" unicode="&#x115;" horiz-adv-x="554" 
d="M282 -12c-133 0 -226 85 -226 223v82c0 139 79 231 223 231c146 0 217 -97 217 -223v-76h-367v-18c0 -89 46 -161 153 -161c77 0 124 41 141 99h68c-17 -92 -102 -157 -209 -157zM129 299v-16h296v24c0 91 -46 159 -146 159c-110 0 -150 -73 -150 -167zM284 582
c-98 0 -156 58 -156 142h56c0 -57 32 -95 100 -95s100 38 100 95h56c0 -84 -58 -142 -156 -142z" />
    <glyph glyph-name="Edotaccent" unicode="&#x116;" horiz-adv-x="609" 
d="M278 822c0 27 19 46 48 46s48 -19 48 -46s-19 -46 -48 -46s-48 19 -48 46zM91 0v700h462v-65h-384v-248h355v-65h-355v-257h385v-65h-463z" />
    <glyph glyph-name="edotaccent" unicode="&#x117;" horiz-adv-x="554" 
d="M282 -12c-133 0 -226 85 -226 223v82c0 139 79 231 223 231c146 0 217 -97 217 -223v-76h-367v-18c0 -89 46 -161 153 -161c77 0 124 41 141 99h68c-17 -92 -102 -157 -209 -157zM129 299v-16h296v24c0 91 -46 159 -146 159c-110 0 -150 -73 -150 -167zM232 647
c0 27 19 46 48 46s48 -19 48 -46s-19 -46 -48 -46s-48 19 -48 46z" />
    <glyph glyph-name="Eogonek" unicode="&#x118;" horiz-adv-x="609" 
d="M91 0v700h462v-65h-384v-248h355v-65h-355v-257h385v-65c-32 -19 -83 -53 -83 -97c0 -25 16 -36 50 -36c11 0 23 1 32 3v-49c-13 -3 -35 -7 -58 -7c-56 0 -90 29 -90 79c0 52 38 88 77 107h-391z" />
    <glyph glyph-name="eogonek" unicode="&#x119;" horiz-adv-x="554" 
d="M282 -12c-133 0 -226 85 -226 223v82c0 139 79 231 223 231c146 0 217 -97 217 -223v-76h-367v-18c0 -89 46 -161 153 -161c77 0 124 41 141 99h68c-8 -43 -28 -76 -64 -107c-46 -40 -95 -80 -95 -135c0 -25 16 -36 50 -36c11 0 23 1 32 3v-49c-13 -3 -35 -7 -58 -7
c-54 0 -90 29 -90 81c0 45 33 82 60 97c-14 -2 -29 -4 -44 -4zM129 299v-16h296v24c0 91 -46 159 -146 159c-110 0 -150 -73 -150 -167z" />
    <glyph glyph-name="Ecaron" unicode="&#x11a;" horiz-adv-x="609" 
d="M91 0v700h462v-65h-384v-248h355v-65h-355v-257h385v-65h-463zM294 760l-116 126h74l79 -85l79 85h74l-116 -126h-74z" />
    <glyph glyph-name="ecaron" unicode="&#x11b;" horiz-adv-x="554" 
d="M247 582l-110 142h71l76 -99l76 99h71l-110 -142h-74zM282 -12c-133 0 -226 85 -226 223v82c0 139 79 231 223 231c146 0 217 -97 217 -223v-76h-367v-18c0 -89 46 -161 153 -161c77 0 124 41 141 99h68c-17 -92 -102 -157 -209 -157zM129 299v-16h296v24
c0 91 -46 159 -146 159c-110 0 -150 -73 -150 -167z" />
    <glyph glyph-name="Gcircumflex" unicode="&#x11c;" horiz-adv-x="709" 
d="M205 760l116 126h74l116 -126h-74l-79 85l-79 -85h-74zM632 470h-74c-3 98 -75 179 -201 179c-144 0 -209 -99 -209 -239v-116c0 -138 62 -245 214 -245c125 0 202 71 202 206v18h-196v65h271v-74c0 -161 -99 -278 -278 -278c-195 0 -291 139 -291 310v111
c0 179 101 307 286 307c171 0 273 -106 276 -244z" />
    <glyph glyph-name="gcircumflex" unicode="&#x11d;" horiz-adv-x="594" 
d="M152 582l110 142h74l110 -142h-71l-76 99l-76 -99h-71zM287 -186c-102 0 -194 47 -222 131h75c28 -49 77 -71 147 -71c89 0 150 50 150 128v116c-16 -47 -86 -97 -172 -97c-133 0 -209 95 -209 209v85c0 116 75 209 210 209c96 0 153 -52 174 -97v85h73v-512
c0 -106 -96 -186 -226 -186zM280 83c87 0 157 58 157 155v66c0 87 -66 158 -154 158c-100 0 -152 -55 -152 -153v-73c0 -96 51 -153 149 -153z" />
    <glyph glyph-name="Gbreve" unicode="&#x11e;" horiz-adv-x="709" 
d="M357 760c-100 0 -161 51 -161 126h59c0 -46 35 -78 102 -78s102 32 102 78h59c0 -75 -61 -126 -161 -126zM632 470h-74c-3 98 -75 179 -201 179c-144 0 -209 -99 -209 -239v-116c0 -138 62 -245 214 -245c125 0 202 71 202 206v18h-196v65h271v-74
c0 -161 -99 -278 -278 -278c-195 0 -291 139 -291 310v111c0 179 101 307 286 307c171 0 273 -106 276 -244z" />
    <glyph glyph-name="gbreve" unicode="&#x11f;" horiz-adv-x="594" 
d="M287 -186c-102 0 -194 47 -222 131h75c28 -49 77 -71 147 -71c89 0 150 50 150 128v116c-16 -47 -86 -97 -172 -97c-133 0 -209 95 -209 209v85c0 116 75 209 210 209c96 0 153 -52 174 -97v85h73v-512c0 -106 -96 -186 -226 -186zM280 83c87 0 157 58 157 155v66
c0 87 -66 158 -154 158c-100 0 -152 -55 -152 -153v-73c0 -96 51 -153 149 -153zM301 582c-98 0 -156 58 -156 142h56c0 -57 32 -95 100 -95s100 38 100 95h56c0 -84 -58 -142 -156 -142z" />
    <glyph glyph-name="Gdotaccent" unicode="&#x120;" horiz-adv-x="709" 
d="M306 822c0 27 19 46 48 46s48 -19 48 -46s-19 -46 -48 -46s-48 19 -48 46zM632 470h-74c-3 98 -75 179 -201 179c-144 0 -209 -99 -209 -239v-116c0 -138 62 -245 214 -245c125 0 202 71 202 206v18h-196v65h271v-74c0 -161 -99 -278 -278 -278c-195 0 -291 139 -291 310
v111c0 179 101 307 286 307c171 0 273 -106 276 -244z" />
    <glyph glyph-name="gdotaccent" unicode="&#x121;" horiz-adv-x="594" 
d="M287 -186c-102 0 -194 47 -222 131h75c28 -49 77 -71 147 -71c89 0 150 50 150 128v116c-16 -47 -86 -97 -172 -97c-133 0 -209 95 -209 209v85c0 116 75 209 210 209c96 0 153 -52 174 -97v85h73v-512c0 -106 -96 -186 -226 -186zM280 83c87 0 157 58 157 155v66
c0 87 -66 158 -154 158c-100 0 -152 -55 -152 -153v-73c0 -96 51 -153 149 -153zM247 647c0 27 19 46 48 46s48 -19 48 -46s-19 -46 -48 -46s-48 19 -48 46z" />
    <glyph glyph-name="Gcommaaccent" unicode="&#x122;" horiz-adv-x="709" 
d="M290 -250l38 170h85l-60 -170h-63zM632 470h-74c-3 98 -75 179 -201 179c-144 0 -209 -99 -209 -239v-116c0 -138 62 -245 214 -245c125 0 202 71 202 206v18h-196v65h271v-74c0 -161 -99 -278 -278 -278c-195 0 -291 139 -291 310v111c0 179 101 307 286 307
c171 0 273 -106 276 -244z" />
    <glyph glyph-name="gcommaaccent" unicode="&#x123;" horiz-adv-x="594" 
d="M249 582l53 142h74l-35 -142h-92zM287 -186c-102 0 -194 47 -222 131h75c28 -49 77 -71 147 -71c89 0 150 50 150 128v116c-16 -47 -86 -97 -172 -97c-133 0 -209 95 -209 209v85c0 116 75 209 210 209c96 0 153 -52 174 -97v85h73v-512c0 -106 -96 -186 -226 -186z
M280 83c87 0 157 58 157 155v66c0 87 -66 158 -154 158c-100 0 -152 -55 -152 -153v-73c0 -96 51 -153 149 -153z" />
    <glyph glyph-name="Hcircumflex" unicode="&#x124;" horiz-adv-x="708" 
d="M91 0v700h78v-314h370v314h78v-700h-78v316h-370v-316h-78zM201 760l116 126h74l116 -126h-74l-79 85l-79 -85h-74z" />
    <glyph glyph-name="hcircumflex" unicode="&#x125;" horiz-adv-x="588" 
d="M81 0v730h76v-297c29 53 82 91 167 91c115 0 188 -78 188 -201v-323h-76v312c0 87 -39 146 -131 146c-84 0 -148 -51 -148 -157v-301h-76zM-33 780l116 126h74l116 -126h-74l-79 85l-79 -85h-74z" />
    <glyph glyph-name="Hbar" unicode="&#x126;" horiz-adv-x="771" 
d="M39 518v47h83v135h78v-135h370v135h78v-135h84v-47h-84v-518h-78v316h-370v-316h-78v518h-83zM200 386h370v132h-370v-132z" />
    <glyph glyph-name="hbar" unicode="&#x127;" horiz-adv-x="610" 
d="M26 586v56h77v88h76v-88h132v-56h-132v-153c29 53 82 91 167 91c115 0 188 -78 188 -201v-323h-76v312c0 87 -39 146 -131 146c-84 0 -148 -51 -148 -157v-301h-76v586h-77z" />
    <glyph glyph-name="Itilde" unicode="&#x128;" horiz-adv-x="270" 
d="M96 0v700h78v-700h-78zM0 760l-52 9c10 67 40 112 102 112c61 0 143 -62 177 -62c32 0 38 33 48 66l51 -15c-14 -56 -37 -105 -97 -105c-53 0 -128 62 -177 62c-35 0 -45 -30 -52 -67z" />
    <glyph glyph-name="itilde" unicode="&#x129;" horiz-adv-x="248" 
d="M86 0v512h76v-512h-76zM-2 583l-50 10c11 65 37 111 99 111c57 0 127 -62 159 -62s38 34 47 66l50 -11c-14 -56 -35 -109 -95 -109c-49 0 -112 62 -159 62c-35 0 -42 -33 -51 -67z" />
    <glyph glyph-name="uni012A" unicode="&#x12a;" horiz-adv-x="270" 
d="M96 0v700h78v-700h-78zM-26 796v59h322v-59h-322z" />
    <glyph glyph-name="imacron" unicode="&#x12b;" horiz-adv-x="248" 
d="M86 0v512h76v-512h-76zM-27 617v58h303v-58h-303z" />
    <glyph glyph-name="Ibreve" unicode="&#x12c;" horiz-adv-x="270" 
d="M96 0v700h78v-700h-78zM135 760c-100 0 -161 51 -161 126h59c0 -46 35 -78 102 -78s102 32 102 78h59c0 -75 -61 -126 -161 -126z" />
    <glyph glyph-name="uni012D" unicode="&#x12d;" horiz-adv-x="248" 
d="M86 0v512h76v-512h-76zM124 582c-98 0 -156 58 -156 142h56c0 -57 32 -95 100 -95s100 38 100 95h56c0 -84 -58 -142 -156 -142z" />
    <glyph glyph-name="Iogonek" unicode="&#x12e;" horiz-adv-x="270" 
d="M134 -186c-57 0 -88 34 -88 85c0 46 24 76 50 101v700h78v-700c-30 -29 -61 -57 -61 -97c0 -26 17 -36 42 -36c7 0 11 0 18 1v-50c-10 -2 -26 -4 -39 -4z" />
    <glyph glyph-name="iogonek" unicode="&#x12f;" horiz-adv-x="248" 
d="M122 -186c-57 0 -88 34 -88 85c0 46 26 78 52 101v512h76v-512c-31 -30 -61 -57 -61 -97c0 -26 17 -36 42 -36c7 0 11 0 18 1v-50c-10 -2 -26 -4 -39 -4zM76 647c0 27 19 46 48 46s48 -19 48 -46s-19 -46 -48 -46s-48 19 -48 46z" />
    <glyph glyph-name="Idotaccent" unicode="&#x130;" horiz-adv-x="270" 
d="M96 0v700h78v-700h-78zM87 822c0 27 19 46 48 46s48 -19 48 -46s-19 -46 -48 -46s-48 19 -48 46z" />
    <glyph glyph-name="dotlessi" unicode="&#x131;" horiz-adv-x="248" 
d="M86 0v512h76v-512h-76z" />
    <glyph glyph-name="IJ" unicode="&#x132;" horiz-adv-x="859" 
d="M96 0v700h78v-700h-78zM543 -14c-138 0 -228 83 -228 203v6h74v-6c0 -81 52 -138 153 -138c97 0 152 52 152 139v510h78v-510c0 -119 -91 -204 -229 -204z" />
    <glyph glyph-name="ij" unicode="&#x133;" horiz-adv-x="496" 
d="M86 0v512h76v-512h-76zM76 647c0 27 19 46 48 46s48 -19 48 -46s-19 -46 -48 -46s-48 19 -48 46zM410 512v-568c0 -75 -43 -118 -122 -118h-49v61h27c47 0 68 16 68 62v563h76zM324 647c0 27 19 46 48 46s48 -19 48 -46s-19 -46 -48 -46s-48 19 -48 46z" />
    <glyph glyph-name="Jcircumflex" unicode="&#x134;" horiz-adv-x="589" 
d="M273 -14c-138 0 -228 83 -228 203v6h74v-6c0 -81 52 -138 153 -138c97 0 152 52 152 139v510h78v-510c0 -119 -91 -204 -229 -204zM309 760l116 126h74l116 -126h-74l-79 85l-79 -85h-74z" />
    <glyph glyph-name="jcircumflex" unicode="&#x135;" horiz-adv-x="248" 
d="M162 512v-568c0 -75 -43 -118 -122 -118h-49v61h27c47 0 68 16 68 62v563h76zM-23 582l110 142h74l110 -142h-71l-76 99l-76 -99h-71z" />
    <glyph glyph-name="Kcommaaccent" unicode="&#x136;" horiz-adv-x="612" 
d="M91 0v700h78v-341l316 341h94l-325 -346l336 -354h-94l-327 348v-348h-78zM256 -250l38 170h85l-60 -170h-63z" />
    <glyph glyph-name="kcommaaccent" unicode="&#x137;" horiz-adv-x="513" 
d="M81 0v730h76v-459l221 241h95l-234 -247l244 -265h-95l-231 258v-258h-76zM195 -250l38 170h85l-60 -170h-63z" />
    <glyph glyph-name="kgreenlandic" unicode="&#x138;" horiz-adv-x="513" 
d="M81 0v512h76v-241l221 241h95l-235 -247l245 -265h-95l-231 258v-258h-76z" />
    <glyph glyph-name="Lacute" unicode="&#x139;" 
d="M173 760h-76l72 126h92zM91 0v700h78v-635h359v-65h-437z" />
    <glyph glyph-name="lacute" unicode="&#x13a;" horiz-adv-x="248" 
d="M164 791h-71l60 112h89zM86 0v730h76v-730h-76z" />
    <glyph glyph-name="Lcommaaccent" unicode="&#x13b;" 
d="M236 -250l38 170h85l-60 -170h-63zM91 0v700h78v-635h359v-65h-437z" />
    <glyph glyph-name="lcommaaccent" unicode="&#x13c;" horiz-adv-x="248" 
d="M41 -250l38 170h85l-60 -170h-63zM86 0v730h76v-730h-76z" />
    <glyph glyph-name="Lcaron" unicode="&#x13d;" 
d="M330 504l40 196h82l-60 -196h-62zM91 0v700h78v-635h359v-65h-437z" />
    <glyph glyph-name="lcaron" unicode="&#x13e;" horiz-adv-x="381" 
d="M267 534l40 196h82l-60 -196h-62zM86 0v730h76v-730h-76z" />
    <glyph glyph-name="Ldot" unicode="&#x13f;" 
d="M91 0v700h78v-635h359v-65h-437zM310 347c0 29 21 49 51 49s51 -20 51 -49s-22 -49 -51 -49s-51 20 -51 49z" />
    <glyph glyph-name="ldot" unicode="&#x140;" horiz-adv-x="371" 
d="M86 0v730h76v-730h-76zM251 300c0 29 21 49 51 49s51 -20 51 -49s-22 -49 -51 -49s-51 20 -51 49z" />
    <glyph glyph-name="Lslash" unicode="&#x141;" horiz-adv-x="584" 
d="M20 251v70l86 52v327h78v-280l167 102v-70l-167 -102v-285h359v-65h-437v303z" />
    <glyph glyph-name="lslash" unicode="&#x142;" horiz-adv-x="260" 
d="M32 273v72l58 50v335h76v-270l71 62v-72l-71 -62v-388h-76v323z" />
    <glyph glyph-name="Nacute" unicode="&#x143;" horiz-adv-x="716" 
d="M379 760h-76l72 126h92zM91 0v700h73l385 -575v575h76v-700h-73l-385 575v-575h-76z" />
    <glyph glyph-name="nacute" unicode="&#x144;" horiz-adv-x="588" 
d="M329 582h-75l81 142h92zM81 0v512h72v-87c24 58 82 99 171 99c115 0 188 -78 188 -201v-323h-76v312c0 87 -39 146 -131 146c-84 0 -148 -51 -148 -157v-301h-76z" />
    <glyph glyph-name="Ncommaaccent" unicode="&#x145;" horiz-adv-x="716" 
d="M286 -250l38 170h85l-60 -170h-63zM91 0v700h73l385 -575v575h76v-700h-73l-385 575v-575h-76z" />
    <glyph glyph-name="ncommaaccent" unicode="&#x146;" horiz-adv-x="588" 
d="M229 -250l38 170h85l-60 -170h-63zM81 0v512h72v-87c24 58 82 99 171 99c115 0 188 -78 188 -201v-323h-76v312c0 87 -39 146 -131 146c-84 0 -148 -51 -148 -157v-301h-76z" />
    <glyph glyph-name="Ncaron" unicode="&#x147;" horiz-adv-x="716" 
d="M91 0v700h73l385 -575v575h76v-700h-73l-385 575v-575h-76zM321 760l-116 126h74l79 -85l79 85h74l-116 -126h-74z" />
    <glyph glyph-name="ncaron" unicode="&#x148;" horiz-adv-x="588" 
d="M258 582l-110 142h71l76 -99l76 99h71l-110 -142h-74zM81 0v512h72v-87c24 58 82 99 171 99c115 0 188 -78 188 -201v-323h-76v312c0 87 -39 146 -131 146c-84 0 -148 -51 -148 -157v-301h-76z" />
    <glyph glyph-name="napostrophe" unicode="&#x149;" horiz-adv-x="706" 
d="M18 534l40 196h82l-60 -196h-62zM198 0v512h72v-87c24 58 82 99 171 99c115 0 188 -78 188 -201v-323h-76v312c0 87 -39 146 -131 146c-84 0 -148 -51 -148 -157v-301h-76z" />
    <glyph glyph-name="Eng" unicode="&#x14a;" horiz-adv-x="716" 
d="M91 0v700h73l385 -575v575h76v-707c0 -102 -56 -167 -175 -167h-42v63h26c80 0 115 34 115 107v8l-382 571v-575h-76z" />
    <glyph glyph-name="eng" unicode="&#x14b;" horiz-adv-x="588" 
d="M81 0v512h72v-87c24 58 82 99 171 99c115 0 188 -78 188 -201v-336c0 -101 -65 -161 -179 -161h-20v61h21c75 0 102 41 102 101v324c0 87 -39 146 -131 146c-84 0 -148 -51 -148 -157v-301h-76z" />
    <glyph glyph-name="Omacron" unicode="&#x14c;" horiz-adv-x="728" 
d="M658 294c0 -169 -98 -308 -294 -308s-294 139 -294 308v112c0 169 98 308 294 308s294 -139 294 -308v-112zM364 51c149 0 216 107 216 239v120c0 132 -67 239 -216 239s-216 -107 -216 -239v-120c0 -132 67 -239 216 -239zM203 796v59h322v-59h-322z" />
    <glyph glyph-name="omacron" unicode="&#x14d;" 
d="M133 617v58h303v-58h-303zM285 -12c-146 0 -229 100 -229 226v84c0 126 84 226 229 226s228 -100 228 -226v-84c0 -126 -83 -226 -228 -226zM440 297c0 97 -54 166 -155 166s-155 -69 -155 -166v-82c0 -97 54 -166 155 -166s155 69 155 166v82z" />
    <glyph glyph-name="Obreve" unicode="&#x14e;" horiz-adv-x="728" 
d="M658 294c0 -169 -98 -308 -294 -308s-294 139 -294 308v112c0 169 98 308 294 308s294 -139 294 -308v-112zM364 51c149 0 216 107 216 239v120c0 132 -67 239 -216 239s-216 -107 -216 -239v-120c0 -132 67 -239 216 -239zM364 760c-100 0 -161 51 -161 126h59
c0 -46 35 -78 102 -78s102 32 102 78h59c0 -75 -61 -126 -161 -126z" />
    <glyph glyph-name="obreve" unicode="&#x14f;" 
d="M285 -12c-146 0 -229 100 -229 226v84c0 126 84 226 229 226s228 -100 228 -226v-84c0 -126 -83 -226 -228 -226zM440 297c0 97 -54 166 -155 166s-155 -69 -155 -166v-82c0 -97 54 -166 155 -166s155 69 155 166v82zM284 582c-98 0 -156 58 -156 142h56
c0 -57 32 -95 100 -95s100 38 100 95h56c0 -84 -58 -142 -156 -142z" />
    <glyph glyph-name="Ohungarumlaut" unicode="&#x150;" horiz-adv-x="728" 
d="M298 760h-68l53 126h81zM508 760h-68l53 126h81zM658 294c0 -169 -98 -308 -294 -308s-294 139 -294 308v112c0 169 98 308 294 308s294 -139 294 -308v-112zM364 51c149 0 216 107 216 239v120c0 132 -67 239 -216 239s-216 -107 -216 -239v-120
c0 -132 67 -239 216 -239z" />
    <glyph glyph-name="ohungarumlaut" unicode="&#x151;" 
d="M235 582h-69l62 142h82zM419 582h-69l62 142h82zM285 -12c-146 0 -229 100 -229 226v84c0 126 84 226 229 226s228 -100 228 -226v-84c0 -126 -83 -226 -228 -226zM440 297c0 97 -54 166 -155 166s-155 -69 -155 -166v-82c0 -97 54 -166 155 -166s155 69 155 166v82z" />
    <glyph glyph-name="OE" unicode="&#x152;" horiz-adv-x="1068" 
d="M379 0c-209 0 -309 133 -309 307v86c0 174 100 307 309 307h633v-65h-384v-248h355v-65h-355v-257h385v-65h-634zM148 304c0 -132 70 -239 231 -239h171v570h-171c-161 0 -231 -107 -231 -239v-92z" />
    <glyph glyph-name="oe" unicode="&#x153;" horiz-adv-x="938" 
d="M285 -12c-146 0 -229 100 -229 226v84c0 126 84 226 229 226c87 0 154 -36 190 -94c37 61 100 94 188 94c146 0 217 -97 217 -223v-76h-367v-21c1 -88 47 -158 153 -158c77 0 124 41 141 99h68c-17 -92 -102 -157 -209 -157c-84 0 -163 38 -191 96
c-28 -53 -102 -96 -190 -96zM440 208v95c-3 94 -57 160 -155 160c-101 0 -155 -69 -155 -166v-82c0 -97 54 -166 155 -166c98 0 152 66 155 159zM513 299v-16h296v24c0 91 -46 159 -146 159c-110 0 -150 -73 -150 -167z" />
    <glyph glyph-name="Racute" unicode="&#x154;" horiz-adv-x="676" 
d="M91 0v700h289c154 0 235 -99 235 -223c0 -97 -56 -179 -151 -209l152 -268h-89l-142 256h-216v-256h-78zM169 318h201c112 0 167 68 167 159s-58 160 -167 160h-201v-319zM352 760h-76l72 126h92z" />
    <glyph glyph-name="racute" unicode="&#x155;" horiz-adv-x="353" 
d="M228 582h-75l81 142h92zM81 0v512h71v-118c19 79 74 121 167 121h12v-71h-15c-97 0 -159 -64 -159 -193v-251h-76z" />
    <glyph glyph-name="Rcommaaccent" unicode="&#x156;" horiz-adv-x="676" 
d="M266 -250l38 170h85l-60 -170h-63zM91 0v700h289c154 0 235 -99 235 -223c0 -97 -56 -179 -151 -209l152 -268h-89l-142 256h-216v-256h-78zM169 318h201c112 0 167 68 167 159s-58 160 -167 160h-201v-319z" />
    <glyph glyph-name="rcommaaccent" unicode="&#x157;" horiz-adv-x="353" 
d="M35 -250l38 170h85l-60 -170h-63zM81 0v512h71v-118c19 79 74 121 167 121h12v-71h-15c-97 0 -159 -64 -159 -193v-251h-76z" />
    <glyph glyph-name="Rcaron" unicode="&#x158;" horiz-adv-x="676" 
d="M91 0v700h289c154 0 235 -99 235 -223c0 -97 -56 -179 -151 -209l152 -268h-89l-142 256h-216v-256h-78zM169 318h201c112 0 167 68 167 159s-58 160 -167 160h-201v-319zM300 760l-116 126h74l79 -85l79 85h74l-116 -126h-74z" />
    <glyph glyph-name="rcaron" unicode="&#x159;" horiz-adv-x="353" 
d="M177 582l-110 142h71l76 -99l76 99h71l-110 -142h-74zM81 0v512h71v-118c19 79 74 121 167 121h12v-71h-15c-97 0 -159 -64 -159 -193v-251h-76z" />
    <glyph glyph-name="Sacute" unicode="&#x15a;" horiz-adv-x="651" 
d="M330 -14c-149 0 -261 80 -261 208v18h74v-16c0 -88 71 -148 187 -148c115 0 185 50 185 139c0 57 -35 97 -100 114l-198 52c-101 26 -139 85 -139 165c0 124 98 196 242 196s245 -81 245 -200v-17h-73v15c0 83 -64 140 -172 140c-98 0 -167 -45 -167 -128
c0 -58 27 -91 87 -107l203 -54c86 -23 147 -80 147 -170c0 -128 -111 -207 -260 -207zM356 760h-76l72 126h92z" />
    <glyph glyph-name="sacute" unicode="&#x15b;" horiz-adv-x="526" 
d="M298 582h-75l81 142h92zM269 -12c-124 0 -212 62 -212 161v5h69v-3c0 -64 60 -106 144 -106c79 0 136 31 136 97c0 36 -23 62 -64 71l-152 35c-76 17 -120 63 -120 130c0 96 81 146 194 146c107 0 190 -65 190 -160v-5h-69v3c0 63 -46 105 -122 105
c-71 0 -123 -30 -123 -87c0 -35 17 -57 54 -66l157 -37c79 -19 126 -58 126 -132c0 -91 -88 -157 -208 -157z" />
    <glyph glyph-name="Scircumflex" unicode="&#x15c;" horiz-adv-x="651" 
d="M330 -14c-149 0 -261 80 -261 208v18h74v-16c0 -88 71 -148 187 -148c115 0 185 50 185 139c0 57 -35 97 -100 114l-198 52c-101 26 -139 85 -139 165c0 124 98 196 242 196s245 -81 245 -200v-17h-73v15c0 83 -64 140 -172 140c-98 0 -167 -45 -167 -128
c0 -58 27 -91 87 -107l203 -54c86 -23 147 -80 147 -170c0 -128 -111 -207 -260 -207zM180 760l116 126h74l116 -126h-74l-79 85l-79 -85h-74z" />
    <glyph glyph-name="scircumflex" unicode="&#x15d;" horiz-adv-x="526" 
d="M121 582l110 142h74l110 -142h-71l-76 99l-76 -99h-71zM269 -12c-124 0 -212 62 -212 161v5h69v-3c0 -64 60 -106 144 -106c79 0 136 31 136 97c0 36 -23 62 -64 71l-152 35c-76 17 -120 63 -120 130c0 96 81 146 194 146c107 0 190 -65 190 -160v-5h-69v3
c0 63 -46 105 -122 105c-71 0 -123 -30 -123 -87c0 -35 17 -57 54 -66l157 -37c79 -19 126 -58 126 -132c0 -91 -88 -157 -208 -157z" />
    <glyph glyph-name="Scedilla" unicode="&#x15e;" horiz-adv-x="651" 
d="M340 -186c-19 0 -45 2 -66 6v44c18 -4 39 -6 55 -6c32 0 50 8 50 27c0 18 -16 25 -43 27l-46 3l16 72c-137 8 -237 86 -237 207v18h74v-16c0 -88 71 -148 187 -148c115 0 185 50 185 139c0 57 -35 97 -100 114l-198 52c-101 26 -139 85 -139 165c0 124 98 196 242 196
s245 -81 245 -200v-17h-73v15c0 83 -64 140 -172 140c-98 0 -167 -45 -167 -128c0 -58 27 -91 87 -107l203 -54c86 -23 147 -80 147 -170c0 -121 -99 -198 -236 -206l-5 -33l13 -1c44 -3 77 -21 77 -65c0 -45 -39 -74 -99 -74z" />
    <glyph glyph-name="Scedilla" unicode="&#xf6c1;" horiz-adv-x="651" 
d="M340 -186c-19 0 -45 2 -66 6v44c18 -4 39 -6 55 -6c32 0 50 8 50 27c0 18 -16 25 -43 27l-46 3l16 72c-137 8 -237 86 -237 207v18h74v-16c0 -88 71 -148 187 -148c115 0 185 50 185 139c0 57 -35 97 -100 114l-198 52c-101 26 -139 85 -139 165c0 124 98 196 242 196
s245 -81 245 -200v-17h-73v15c0 83 -64 140 -172 140c-98 0 -167 -45 -167 -128c0 -58 27 -91 87 -107l203 -54c86 -23 147 -80 147 -170c0 -121 -99 -198 -236 -206l-5 -33l13 -1c44 -3 77 -21 77 -65c0 -45 -39 -74 -99 -74z" />
    <glyph glyph-name="scedilla" unicode="&#x15f;" horiz-adv-x="526" 
d="M275 -186c-19 0 -45 2 -66 6v44c18 -4 39 -6 55 -6c32 0 50 8 50 27c0 18 -16 25 -43 27l-46 3l16 74c-109 9 -184 68 -184 160v5h69v-3c0 -64 60 -106 144 -106c79 0 136 31 136 97c0 36 -23 62 -64 71l-152 35c-76 17 -120 63 -120 130c0 96 81 146 194 146
c107 0 190 -65 190 -160v-5h-69v3c0 63 -46 105 -122 105c-71 0 -123 -30 -123 -87c0 -35 17 -57 54 -66l157 -37c79 -19 126 -58 126 -132c0 -86 -78 -149 -187 -156l-6 -35l13 -1c44 -3 77 -21 77 -65c0 -45 -39 -74 -99 -74z" />
    <glyph glyph-name="scedilla" unicode="&#xf6c2;" horiz-adv-x="526" 
d="M275 -186c-19 0 -45 2 -66 6v44c18 -4 39 -6 55 -6c32 0 50 8 50 27c0 18 -16 25 -43 27l-46 3l16 74c-109 9 -184 68 -184 160v5h69v-3c0 -64 60 -106 144 -106c79 0 136 31 136 97c0 36 -23 62 -64 71l-152 35c-76 17 -120 63 -120 130c0 96 81 146 194 146
c107 0 190 -65 190 -160v-5h-69v3c0 63 -46 105 -122 105c-71 0 -123 -30 -123 -87c0 -35 17 -57 54 -66l157 -37c79 -19 126 -58 126 -132c0 -86 -78 -149 -187 -156l-6 -35l13 -1c44 -3 77 -21 77 -65c0 -45 -39 -74 -99 -74z" />
    <glyph glyph-name="Scaron" unicode="&#x160;" horiz-adv-x="651" 
d="M330 -14c-149 0 -261 80 -261 208v18h74v-16c0 -88 71 -148 187 -148c115 0 185 50 185 139c0 57 -35 97 -100 114l-198 52c-101 26 -139 85 -139 165c0 124 98 196 242 196s245 -81 245 -200v-17h-73v15c0 83 -64 140 -172 140c-98 0 -167 -45 -167 -128
c0 -58 27 -91 87 -107l203 -54c86 -23 147 -80 147 -170c0 -128 -111 -207 -260 -207zM293 760l-116 126h74l79 -85l79 85h74l-116 -126h-74z" />
    <glyph glyph-name="scaron" unicode="&#x161;" horiz-adv-x="526" 
d="M228 582l-110 142h71l76 -99l76 99h71l-110 -142h-74zM269 -12c-124 0 -212 62 -212 161v5h69v-3c0 -64 60 -106 144 -106c79 0 136 31 136 97c0 36 -23 62 -64 71l-152 35c-76 17 -120 63 -120 130c0 96 81 146 194 146c107 0 190 -65 190 -160v-5h-69v3
c0 63 -46 105 -122 105c-71 0 -123 -30 -123 -87c0 -35 17 -57 54 -66l157 -37c79 -19 126 -58 126 -132c0 -91 -88 -157 -208 -157z" />
    <glyph glyph-name="Tcommaaccent" unicode="&#x162;" horiz-adv-x="563" 
d="M196 -250l38 170h85l-60 -170h-63zM242 0v635h-214v65h506v-65h-214v-635h-78z" />
    <glyph glyph-name="Tcommaaccent" unicode="&#x21a;" horiz-adv-x="563" 
d="M196 -250l38 170h85l-60 -170h-63zM242 0v635h-214v65h506v-65h-214v-635h-78z" />
    <glyph glyph-name="tcommaaccent" unicode="&#x163;" horiz-adv-x="373" 
d="M144 -250l38 170h85l-60 -170h-63zM326 0h-64c-98 0 -139 49 -139 136v314h-87v62h87v147h76v-147h131v-62h-131v-314c0 -52 19 -74 76 -74h51v-62z" />
    <glyph glyph-name="tcommaaccent" unicode="&#x21b;" horiz-adv-x="373" 
d="M144 -250l38 170h85l-60 -170h-63zM326 0h-64c-98 0 -139 49 -139 136v314h-87v62h87v147h76v-147h131v-62h-131v-314c0 -52 19 -74 76 -74h51v-62z" />
    <glyph glyph-name="Tcaron" unicode="&#x164;" horiz-adv-x="563" 
d="M242 0v635h-214v65h506v-65h-214v-635h-78zM244 760l-116 126h74l79 -85l79 85h74l-116 -126h-74z" />
    <glyph glyph-name="tcaron" unicode="&#x165;" horiz-adv-x="373" 
d="M272 590l26 140h76l-41 -140h-61zM326 0h-64c-98 0 -139 49 -139 136v314h-87v62h87v147h76v-147h131v-62h-131v-314c0 -52 19 -74 76 -74h51v-62z" />
    <glyph glyph-name="Tbar" unicode="&#x166;" horiz-adv-x="562" 
d="M94 304v62h148v269h-214v65h506v-65h-214v-269h148v-62h-148v-304h-78v304h-148z" />
    <glyph glyph-name="tbar" unicode="&#x167;" horiz-adv-x="373" 
d="M36 239v56h87v155h-87v62h87v147h76v-147h131v-62h-131v-155h112v-56h-112v-103c0 -52 19 -74 76 -74h51v-62h-64c-98 0 -139 49 -139 136v103h-87z" />
    <glyph glyph-name="Utilde" unicode="&#x168;" horiz-adv-x="708" 
d="M354 -14c-166 0 -269 105 -269 250v464h78v-471c0 -109 73 -178 191 -178s191 69 191 178v471h78v-464c0 -145 -103 -250 -269 -250zM220 760l-52 9c10 67 40 112 102 112c61 0 143 -62 177 -62c32 0 38 33 48 66l51 -15c-14 -56 -37 -105 -97 -105
c-53 0 -128 62 -177 62c-35 0 -45 -30 -52 -67z" />
    <glyph glyph-name="utilde" unicode="&#x169;" horiz-adv-x="584" 
d="M503 512v-512h-72v87c-24 -58 -82 -99 -171 -99c-112 0 -183 78 -183 201v323h76v-312c0 -87 38 -148 126 -148c84 0 148 53 148 159v301h76zM178 583l-50 10c11 65 37 111 99 111c57 0 127 -62 159 -62s38 34 47 66l50 -11c-14 -56 -35 -109 -95 -109
c-49 0 -112 62 -159 62c-35 0 -42 -33 -51 -67z" />
    <glyph glyph-name="Umacron" unicode="&#x16a;" horiz-adv-x="708" 
d="M354 -14c-166 0 -269 105 -269 250v464h78v-471c0 -109 73 -178 191 -178s191 69 191 178v471h78v-464c0 -145 -103 -250 -269 -250zM193 796v59h322v-59h-322z" />
    <glyph glyph-name="umacron" unicode="&#x16b;" horiz-adv-x="584" 
d="M503 512v-512h-72v87c-24 -58 -82 -99 -171 -99c-112 0 -183 78 -183 201v323h76v-312c0 -87 38 -148 126 -148c84 0 148 53 148 159v301h76zM147 617v58h303v-58h-303z" />
    <glyph glyph-name="Ubreve" unicode="&#x16c;" horiz-adv-x="708" 
d="M354 -14c-166 0 -269 105 -269 250v464h78v-471c0 -109 73 -178 191 -178s191 69 191 178v471h78v-464c0 -145 -103 -250 -269 -250zM354 760c-100 0 -161 51 -161 126h59c0 -46 35 -78 102 -78s102 32 102 78h59c0 -75 -61 -126 -161 -126z" />
    <glyph glyph-name="ubreve" unicode="&#x16d;" horiz-adv-x="584" 
d="M503 512v-512h-72v87c-24 -58 -82 -99 -171 -99c-112 0 -183 78 -183 201v323h76v-312c0 -87 38 -148 126 -148c84 0 148 53 148 159v301h76zM298 582c-98 0 -156 58 -156 142h56c0 -57 32 -95 100 -95s100 38 100 95h56c0 -84 -58 -142 -156 -142z" />
    <glyph glyph-name="Uring" unicode="&#x16e;" horiz-adv-x="708" 
d="M354 760c-57 0 -92 38 -92 84s35 84 92 84s92 -38 92 -84s-35 -84 -92 -84zM354 796c32 0 50 20 50 48s-18 48 -50 48s-50 -20 -50 -48s18 -48 50 -48zM354 -14c-166 0 -269 105 -269 250v464h78v-471c0 -109 73 -178 191 -178s191 69 191 178v471h78v-464
c0 -145 -103 -250 -269 -250z" />
    <glyph glyph-name="uring" unicode="&#x16f;" horiz-adv-x="584" 
d="M303 582c-57 0 -92 38 -92 84s35 84 92 84s92 -38 92 -84s-35 -84 -92 -84zM303 618c32 0 50 20 50 48s-18 48 -50 48s-50 -20 -50 -48s18 -48 50 -48zM503 512v-512h-72v87c-24 -58 -82 -99 -171 -99c-112 0 -183 78 -183 201v323h76v-312c0 -87 38 -148 126 -148
c84 0 148 53 148 159v301h76z" />
    <glyph glyph-name="Uhungarumlaut" unicode="&#x170;" horiz-adv-x="708" 
d="M277 760h-68l53 126h81zM487 760h-68l53 126h81zM354 -14c-166 0 -269 105 -269 250v464h78v-471c0 -109 73 -178 191 -178s191 69 191 178v471h78v-464c0 -145 -103 -250 -269 -250z" />
    <glyph glyph-name="uhungarumlaut" unicode="&#x171;" horiz-adv-x="584" 
d="M503 512v-512h-72v87c-24 -58 -82 -99 -171 -99c-112 0 -183 78 -183 201v323h76v-312c0 -87 38 -148 126 -148c84 0 148 53 148 159v301h76zM242 582h-69l62 142h82zM426 582h-69l62 142h82z" />
    <glyph glyph-name="Uogonek" unicode="&#x172;" horiz-adv-x="708" 
d="M354 -14c-166 0 -269 105 -269 250v464h78v-471c0 -109 73 -178 191 -178s191 69 191 178v471h78v-464c0 -93 -43 -168 -116 -212c-48 -29 -114 -70 -114 -121c0 -25 16 -36 50 -36c11 0 23 1 32 3v-49c-13 -3 -35 -7 -58 -7c-56 0 -90 29 -90 79c0 40 30 74 57 94
c-10 -1 -20 -1 -30 -1z" />
    <glyph glyph-name="uogonek" unicode="&#x173;" horiz-adv-x="584" 
d="M503 512v-512c-32 -19 -83 -53 -83 -97c0 -25 16 -36 50 -36c11 0 23 1 32 3v-49c-13 -3 -35 -7 -58 -7c-56 0 -90 29 -90 79c0 52 35 82 77 107v87c-24 -58 -82 -99 -171 -99c-112 0 -183 78 -183 201v323h76v-312c0 -87 38 -148 126 -148c84 0 148 53 148 159v301h76z
" />
    <glyph glyph-name="Wcircumflex" unicode="&#x174;" horiz-adv-x="922" 
d="M307 760l116 126h74l116 -126h-74l-79 85l-79 -85h-74zM887 700l-166 -700h-75l-185 615l-185 -615h-75l-166 700h75l132 -596l180 596h78l180 -596l132 596h75z" />
    <glyph glyph-name="wcircumflex" unicode="&#x175;" horiz-adv-x="760" 
d="M233 582l110 142h74l110 -142h-71l-76 99l-76 -99h-71zM728 512l-140 -512h-72l-136 432l-136 -432h-72l-140 512h72l108 -421l132 421h72l132 -421l108 421h72z" />
    <glyph glyph-name="Ycircumflex" unicode="&#x176;" horiz-adv-x="604" 
d="M263 0v265l-249 435h82l206 -364l206 364h82l-249 -435v-265h-78zM149 760l116 126h74l116 -126h-74l-79 85l-79 -85h-74z" />
    <glyph glyph-name="ycircumflex" unicode="&#x177;" horiz-adv-x="508" 
d="M226 -174h-74l65 174l-191 512h75l156 -435l150 435h75l-189 -512zM113 582l110 142h74l110 -142h-71l-76 99l-76 -99h-71z" />
    <glyph glyph-name="Ydieresis" unicode="&#x178;" horiz-adv-x="604" 
d="M263 0v265l-249 435h82l206 -364l206 364h82l-249 -435v-265h-78zM142 828c0 27 19 46 48 46s48 -19 48 -46s-19 -46 -48 -46s-48 19 -48 46zM364 828c0 27 19 46 48 46s48 -19 48 -46s-19 -46 -48 -46s-48 19 -48 46z" />
    <glyph glyph-name="Zacute" unicode="&#x179;" horiz-adv-x="623" 
d="M66 0v65l399 570h-381v65h464v-65l-399 -570h410v-65h-493zM343 760h-76l72 126h92z" />
    <glyph glyph-name="zacute" unicode="&#x17a;" horiz-adv-x="499" 
d="M281 582h-75l81 142h92zM57 0v57l302 395h-290v60h374v-57l-302 -395h306v-60h-390z" />
    <glyph glyph-name="Zdotaccent" unicode="&#x17b;" horiz-adv-x="623" 
d="M270 822c0 27 19 46 48 46s48 -19 48 -46s-19 -46 -48 -46s-48 19 -48 46zM66 0v65l399 570h-381v65h464v-65l-399 -570h410v-65h-493z" />
    <glyph glyph-name="zdotaccent" unicode="&#x17c;" horiz-adv-x="499" 
d="M57 0v57l302 395h-290v60h374v-57l-302 -395h306v-60h-390zM214 647c0 27 19 46 48 46s48 -19 48 -46s-19 -46 -48 -46s-48 19 -48 46z" />
    <glyph glyph-name="Zcaron" unicode="&#x17d;" horiz-adv-x="623" 
d="M66 0v65l399 570h-381v65h464v-65l-399 -570h410v-65h-493zM286 760l-116 126h74l79 -85l79 85h74l-116 -126h-74z" />
    <glyph glyph-name="zcaron" unicode="&#x17e;" horiz-adv-x="499" 
d="M226 582l-110 142h71l76 -99l76 99h71l-110 -142h-74zM57 0v57l302 395h-290v60h374v-57l-302 -395h306v-60h-390z" />
    <glyph glyph-name="florin" unicode="&#x192;" horiz-adv-x="465" 
d="M30 -174v62h51c53 0 73 23 78 76l34 387h-96v62h101l14 158c7 80 46 129 131 129h82v-62h-66c-51 0 -67 -24 -72 -76l-13 -149h116v-62h-121l-35 -394c-7 -75 -46 -131 -139 -131h-65z" />
    <glyph glyph-name="Aringacute" unicode="&#x1fa;" horiz-adv-x="680" 
d="M432 747c0 -31 -16 -58 -44 -72l254 -675h-77l-64 178h-323l-63 -178h-77l253 675c-27 14 -43 41 -43 72c0 46 35 83 92 83s92 -37 92 -83zM340 629l-140 -389h279zM391 861h-77l56 102h92zM340 700c32 0 50 19 50 47s-18 47 -50 47s-50 -19 -50 -47s18 -47 50 -47z" />
    <glyph glyph-name="aringacute" unicode="&#x1fb;" horiz-adv-x="576" 
d="M358 767h-77l56 102h92zM311 567c-57 0 -92 37 -92 83s35 83 92 83s92 -37 92 -83s-35 -83 -92 -83zM311 603c32 0 50 19 50 47s-18 47 -50 47s-50 -19 -50 -47s18 -47 50 -47zM501 0h-73v64c-22 -36 -91 -76 -176 -76c-121 0 -194 68 -194 161c0 99 81 160 203 160
c81 0 135 -34 164 -64v95c0 70 -46 124 -128 124c-65 0 -107 -30 -128 -77h-70c26 85 98 137 199 137c127 0 203 -83 203 -184v-340zM268 37c80 0 157 47 157 113c0 64 -76 109 -153 109c-85 0 -142 -40 -142 -111s59 -111 138 -111z" />
    <glyph glyph-name="AEacute" unicode="&#x1fc;" horiz-adv-x="1041" 
d="M601 760h-76l72 126h92zM523 0v183h-305l-122 -183h-84l477 700h496v-65h-384v-248h355v-65h-355v-257h385v-65h-463zM260 246h263v394z" />
    <glyph glyph-name="aeacute" unicode="&#x1fd;" horiz-adv-x="930" 
d="M511 582h-75l81 142h92zM654 -12c-83 0 -155 44 -190 100c-25 -44 -98 -100 -200 -100c-125 0 -206 66 -206 162s83 160 203 160c82 0 141 -38 164 -62v86c0 75 -48 130 -129 130c-69 0 -110 -30 -130 -79h-70c25 94 102 139 201 139c78 0 136 -33 171 -87
c37 53 100 87 183 87c146 0 217 -97 217 -223v-76h-367v-18c0 -89 46 -161 153 -161c77 0 124 41 141 99h68c-17 -92 -102 -157 -209 -157zM270 38c80 0 155 48 155 112c0 60 -71 110 -152 110c-87 0 -143 -43 -143 -111c0 -64 50 -111 140 -111zM501 306v-23h296v24
c0 91 -46 159 -146 159c-108 0 -148 -70 -150 -160z" />
    <glyph glyph-name="Oslashacute" unicode="&#x1fe;" horiz-adv-x="728" 
d="M395 760h-76l72 126h92zM658 294c0 -169 -98 -308 -294 -308c-71 0 -129 18 -175 50l-56 -86h-63l79 120c-53 57 -79 136 -79 224v112c0 169 98 308 294 308c71 0 129 -19 174 -50l57 86h63l-79 -121c52 -56 79 -136 79 -223v-112zM364 51c149 0 216 107 216 239v120
c0 60 -14 114 -43 156l-310 -472c34 -27 79 -43 137 -43zM148 290c0 -60 13 -114 42 -156l310 472c-34 27 -79 43 -136 43c-149 0 -216 -107 -216 -239v-120z" />
    <glyph glyph-name="oslashacute" unicode="&#x1ff;" 
d="M317 582h-75l81 142h92zM285 -12c-50 0 -92 12 -126 31l-45 -69h-58l64 99c-42 41 -64 99 -64 165v84c0 126 84 226 229 226c49 0 90 -11 124 -31l46 70h58l-65 -100c42 -41 65 -99 65 -165v-84c0 -126 -83 -226 -228 -226zM440 297c0 42 -10 79 -30 107l-216 -330
c24 -16 54 -25 91 -25c101 0 155 69 155 166v82zM130 215c0 -42 9 -79 29 -107l215 331c-24 15 -54 24 -89 24c-101 0 -155 -69 -155 -166v-82z" />
    <glyph glyph-name="Scommaaccent" unicode="&#x218;" horiz-adv-x="651" 
d="M330 -14c-149 0 -261 80 -261 208v18h74v-16c0 -88 71 -148 187 -148c115 0 185 50 185 139c0 57 -35 97 -100 114l-198 52c-101 26 -139 85 -139 165c0 124 98 196 242 196s245 -81 245 -200v-17h-73v15c0 83 -64 140 -172 140c-98 0 -167 -45 -167 -128
c0 -58 27 -91 87 -107l203 -54c86 -23 147 -80 147 -170c0 -128 -111 -207 -260 -207zM254 -250l38 170h85l-60 -170h-63z" />
    <glyph glyph-name="scommaaccent" unicode="&#x219;" horiz-adv-x="526" 
d="M269 -12c-124 0 -212 62 -212 161v5h69v-3c0 -64 60 -106 144 -106c79 0 136 31 136 97c0 36 -23 62 -64 71l-152 35c-76 17 -120 63 -120 130c0 96 81 146 194 146c107 0 190 -65 190 -160v-5h-69v3c0 63 -46 105 -122 105c-71 0 -123 -30 -123 -87c0 -35 17 -57 54 -66
l157 -37c79 -19 126 -58 126 -132c0 -91 -88 -157 -208 -157zM190 -250l38 170h85l-60 -170h-63z" />
    <glyph glyph-name="circumflex" unicode="&#x2c6;" horiz-adv-x="476" 
d="M91 582l110 142h74l110 -142h-71l-76 99l-76 -99h-71z" />
    <glyph glyph-name="caron" unicode="&#x2c7;" horiz-adv-x="476" 
d="M201 582l-110 142h71l76 -99l76 99h71l-110 -142h-74z" />
    <glyph glyph-name="breve" unicode="&#x2d8;" horiz-adv-x="494" 
d="M247 582c-98 0 -156 58 -156 142h56c0 -57 32 -95 100 -95s100 38 100 95h56c0 -84 -58 -142 -156 -142z" />
    <glyph glyph-name="dotaccent" unicode="&#x2d9;" horiz-adv-x="258" 
d="M81 647c0 27 19 46 48 46s48 -19 48 -46s-19 -46 -48 -46s-48 19 -48 46z" />
    <glyph glyph-name="ring" unicode="&#x2da;" horiz-adv-x="366" 
d="M183 582c-57 0 -92 38 -92 84s35 84 92 84s92 -38 92 -84s-35 -84 -92 -84zM183 618c32 0 50 20 50 48s-18 48 -50 48s-50 -20 -50 -48s18 -48 50 -48z" />
    <glyph glyph-name="ogonek" unicode="&#x2db;" horiz-adv-x="331" 
d="M181 -186c-56 0 -90 29 -90 79c0 52 35 82 77 107h72c-32 -19 -83 -53 -83 -97c0 -25 16 -36 50 -36c11 0 23 1 32 3v-49c-13 -3 -35 -7 -58 -7z" />
    <glyph glyph-name="tilde" unicode="&#x2dc;" horiz-adv-x="537" 
d="M141 583l-50 10c11 65 37 111 99 111c57 0 127 -62 159 -62s38 34 47 66l50 -11c-14 -56 -35 -109 -95 -109c-49 0 -112 62 -159 62c-35 0 -42 -33 -51 -67z" />
    <glyph glyph-name="hungarumlaut" unicode="&#x2dd;" horiz-adv-x="510" 
d="M160 582h-69l62 142h82zM344 582h-69l62 142h82z" />
    <glyph glyph-name="uni0312" unicode="&#x312;" horiz-adv-x="309" 
d="M91 582l53 142h74l-35 -142h-92z" />
    <glyph glyph-name="uni0315" unicode="&#x315;" horiz-adv-x="304" 
d="M91 534l40 196h82l-60 -196h-62z" />
    <glyph glyph-name="uni0326" unicode="&#x326;" horiz-adv-x="305" 
d="M91 -250l38 170h85l-60 -170h-63z" />
    <glyph glyph-name="Omega" unicode="&#x3a9;" horiz-adv-x="734" 
d="M651 63v-63h-186v63c66 67 117 171 117 284v49c0 155 -69 254 -215 254s-215 -99 -215 -254v-49c0 -113 51 -217 117 -284v-63h-186v63h107c-60 63 -114 174 -114 287v49c0 183 97 315 291 315s291 -132 291 -315v-49c0 -113 -54 -224 -114 -287h107z" />
    <glyph glyph-name="pi" unicode="&#x3c0;" horiz-adv-x="731" 
d="M170 0v450h-109v62h609v-62h-132v-309c0 -54 18 -79 74 -79h55v-62h-72c-91 0 -133 51 -133 139v311h-216v-450h-76z" />
    <glyph glyph-name="Wgrave" unicode="&#x1e80;" horiz-adv-x="922" 
d="M416 760l-88 126h92l72 -126h-76zM887 700l-166 -700h-75l-185 615l-185 -615h-75l-166 700h75l132 -596l180 596h78l180 -596l132 596h75z" />
    <glyph glyph-name="wgrave" unicode="&#x1e81;" horiz-adv-x="760" 
d="M728 512l-140 -512h-72l-136 432l-136 -432h-72l-140 512h72l108 -421l132 421h72l132 -421l108 421h72zM338 582l-98 142h93l80 -142h-75z" />
    <glyph glyph-name="Wacute" unicode="&#x1e82;" horiz-adv-x="922" 
d="M508 760h-76l72 126h92zM887 700l-166 -700h-75l-185 615l-185 -615h-75l-166 700h75l132 -596l180 596h78l180 -596l132 596h75z" />
    <glyph glyph-name="wacute" unicode="&#x1e83;" horiz-adv-x="760" 
d="M430 582h-75l81 142h92zM728 512l-140 -512h-72l-136 432l-136 -432h-72l-140 512h72l108 -421l132 421h72l132 -421l108 421h72z" />
    <glyph glyph-name="Wdieresis" unicode="&#x1e84;" horiz-adv-x="922" 
d="M887 700l-166 -700h-75l-185 615l-185 -615h-75l-166 700h75l132 -596l180 596h78l180 -596l132 596h75zM301 828c0 27 19 46 48 46s48 -19 48 -46s-19 -46 -48 -46s-48 19 -48 46zM523 828c0 27 19 46 48 46s48 -19 48 -46s-19 -46 -48 -46s-48 19 -48 46z" />
    <glyph glyph-name="wdieresis" unicode="&#x1e85;" horiz-adv-x="760" 
d="M232 651c0 27 19 46 48 46s48 -19 48 -46s-19 -46 -48 -46s-48 19 -48 46zM432 651c0 27 19 46 48 46s48 -19 48 -46s-19 -46 -48 -46s-48 19 -48 46zM728 512l-140 -512h-72l-136 432l-136 -432h-72l-140 512h72l108 -421l132 421h72l132 -421l108 421h72z" />
    <glyph glyph-name="Ygrave" unicode="&#x1ef2;" horiz-adv-x="604" 
d="M263 0v265l-249 435h82l206 -364l206 364h82l-249 -435v-265h-78zM262 760l-88 126h92l72 -126h-76z" />
    <glyph glyph-name="ygrave" unicode="&#x1ef3;" horiz-adv-x="508" 
d="M226 -174h-74l65 174l-191 512h75l156 -435l150 435h75l-189 -512zM224 582l-98 142h93l80 -142h-75z" />
    <glyph glyph-name="endash" unicode="&#x2013;" horiz-adv-x="612" 
d="M67 279v67h478v-67h-478z" />
    <glyph glyph-name="emdash" unicode="&#x2014;" horiz-adv-x="911" 
d="M67 279v67h777v-67h-777z" />
    <glyph glyph-name="quoteleft" unicode="&#x2018;" horiz-adv-x="228" 
d="M45 476l69 224h64l-48 -224h-85z" />
    <glyph glyph-name="quoteright" unicode="&#x2019;" horiz-adv-x="228" 
d="M50 476l48 224h85l-69 -224h-64z" />
    <glyph glyph-name="quotesinglbase" unicode="&#x201a;" horiz-adv-x="238" 
d="M35 -114l48 224h85l-69 -224h-64z" />
    <glyph glyph-name="quotedblleft" unicode="&#x201c;" horiz-adv-x="435" 
d="M252 476l69 224h64l-48 -224h-85zM45 476l69 224h64l-48 -224h-85z" />
    <glyph glyph-name="quotedblright" unicode="&#x201d;" horiz-adv-x="435" 
d="M50 476l48 224h85l-69 -224h-64zM257 476l48 224h85l-69 -224h-64z" />
    <glyph glyph-name="quotedblbase" unicode="&#x201e;" horiz-adv-x="445" 
d="M35 -114l48 224h85l-69 -224h-64zM242 -114l48 224h85l-69 -224h-64z" />
    <glyph glyph-name="dagger" unicode="&#x2020;" horiz-adv-x="492" 
d="M215 -100v569h-144v52h144v179h62v-179h144v-52h-144v-569h-62z" />
    <glyph glyph-name="daggerdbl" unicode="&#x2021;" horiz-adv-x="502" 
d="M220 131v338h-144v52h144v179h62v-179h144v-52h-144v-338h144v-52h-144v-179h-62v179h-144v52h144z" />
    <glyph glyph-name="bullet" unicode="&#x2022;" horiz-adv-x="418" 
d="M209 472c74 0 118 -50 118 -116s-44 -116 -118 -116s-118 50 -118 116s44 116 118 116z" />
    <glyph glyph-name="ellipsis" unicode="&#x2026;" horiz-adv-x="714" 
d="M68 43c0 29 21 49 51 49s51 -20 51 -49s-22 -49 -51 -49s-51 20 -51 49zM306 43c0 29 21 49 51 49s51 -20 51 -49s-22 -49 -51 -49s-51 20 -51 49zM544 43c0 29 21 49 51 49s51 -20 51 -49s-22 -49 -51 -49s-51 20 -51 49z" />
    <glyph glyph-name="perthousand" unicode="&#x2030;" horiz-adv-x="1231" 
d="M212 321c-93 0 -151 62 -151 150v87c0 88 58 150 151 150s151 -62 151 -150v-87c0 -88 -58 -150 -151 -150zM212 369c61 0 94 40 94 98v95c0 58 -33 98 -94 98s-94 -40 -94 -98v-95c0 -58 33 -98 94 -98zM642 -8c-93 0 -151 62 -151 150v87c0 88 58 150 151 150
s151 -62 151 -150v-87c0 -88 -58 -150 -151 -150zM642 40c61 0 94 40 94 98v95c0 58 -33 98 -94 98s-94 -40 -94 -98v-95c0 -58 33 -98 94 -98zM217 0l363 700h58l-363 -700h-58zM1024 -8c-93 0 -151 62 -151 150v87c0 88 58 150 151 150s151 -62 151 -150v-87
c0 -88 -58 -150 -151 -150zM1024 40c61 0 94 40 94 98v95c0 58 -33 98 -94 98s-94 -40 -94 -98v-95c0 -58 33 -98 94 -98z" />
    <glyph glyph-name="guilsinglleft" unicode="&#x2039;" horiz-adv-x="351" 
d="M208 60l-172 212l172 212h87l-172 -212l172 -212h-87z" />
    <glyph glyph-name="guilsinglright" unicode="&#x203a;" horiz-adv-x="351" 
d="M315 272l-172 -212h-87l172 212l-172 212h87z" />
    <glyph glyph-name="fraction" unicode="&#x2044;" horiz-adv-x="371" 
d="M-25 0l363 700h58l-363 -700h-58z" />
    <glyph glyph-name="Euro" unicode="&#x20ac;" horiz-adv-x="670" 
d="M46 411v56h85v15c0 131 84 232 239 232c142 0 229 -96 234 -217h-68c-6 90 -67 157 -165 157c-111 0 -166 -67 -166 -169v-18h200v-56h-200v-122h200v-56h-200v-18c0 -102 55 -169 166 -169c98 0 159 67 165 157h68c-5 -121 -92 -217 -234 -217c-155 0 -239 101 -239 232
v15h-85v56h85v122h-85z" />
    <glyph glyph-name="published" unicode="&#x2117;" horiz-adv-x="862" 
d="M463 295h-94v-124h-46v354h140c74 0 122 -50 122 -115c0 -67 -48 -115 -122 -115zM369 333h86c57 0 84 35 84 76s-27 78 -84 78h-86v-154zM431 -12c-219 0 -361 166 -361 362s142 362 361 362s361 -166 361 -362s-142 -362 -361 -362zM431 14c206 0 332 156 332 336
s-126 336 -332 336s-332 -156 -332 -336s126 -336 332 -336z" />
    <glyph glyph-name="trademark" unicode="&#x2122;" horiz-adv-x="654" 
d="M142 412v255h-89v33h218v-33h-89v-255h-40zM326 412v288h37l92 -181l91 181h37v-288h-38v215l-71 -140h-39l-71 140v-215h-38z" />
    <glyph glyph-name="partialdiff" unicode="&#x2202;" horiz-adv-x="588" 
d="M289 -14c-142 0 -230 102 -230 225v31c0 129 85 222 218 222c92 0 155 -45 176 -86c-22 154 -114 259 -316 259h-16v63h21c284 0 385 -189 385 -426v-46c0 -128 -92 -242 -238 -242zM291 45c97 0 162 70 162 165v35c0 89 -70 160 -160 160c-100 0 -160 -64 -160 -162v-36
c0 -101 64 -162 158 -162z" />
    <glyph glyph-name="Delta" unicode="&#x2206;" horiz-adv-x="670" 
d="M371 700l239 -643v-57h-550v57l239 643h72zM131 62h408l-204 569z" />
    <glyph glyph-name="product" unicode="&#x220f;" horiz-adv-x="801" 
d="M189 -174v812h-133v62h689v-62h-133v-812h-76v812h-271v-812h-76z" />
    <glyph glyph-name="summation" unicode="&#x2211;" horiz-adv-x="610" 
d="M76 -174v62l238 375l-238 375v62h468v-62h-386l235 -375l-235 -375h386v-62h-468z" />
    <glyph glyph-name="minus" unicode="&#x2212;" horiz-adv-x="598" 
d="M80 329v62h438v-62h-438z" />
    <glyph glyph-name="radical" unicode="&#x221a;" horiz-adv-x="706" 
d="M327 -100l-131 367h-131v66h179l126 -364l196 781h70l-218 -850h-91z" />
    <glyph glyph-name="infinity" unicode="&#x221e;" horiz-adv-x="884" 
d="M814 360c0 -105 -72 -173 -173 -173c-98 0 -169 60 -199 116c-30 -56 -101 -116 -199 -116c-101 0 -173 68 -173 173s72 173 173 173c98 0 169 -60 199 -116c30 56 101 116 199 116c101 0 173 -68 173 -173zM631 474c-86 0 -132 -65 -155 -114c23 -49 69 -114 155 -114
c70 0 117 45 117 114s-47 114 -117 114zM253 474c-70 0 -117 -45 -117 -114s47 -114 117 -114c86 0 132 65 155 114c-23 49 -69 114 -155 114z" />
    <glyph glyph-name="integral" unicode="&#x222b;" horiz-adv-x="438" 
d="M251 -27c0 -96 -44 -147 -144 -147h-51v62h35c62 0 86 20 86 80v585c0 96 44 147 144 147h51v-62h-35c-62 0 -86 -20 -86 -80v-585z" />
    <glyph glyph-name="approxequal" unicode="&#x2248;" horiz-adv-x="612" 
d="M421 196c-43 0 -78 18 -115 36s-65 33 -99 33c-41 0 -66 -25 -91 -52l-41 38c35 42 72 73 135 73c43 0 77 -16 115 -36c36 -19 60 -33 96 -33c37 0 61 14 85 39l36 -38c-26 -31 -69 -60 -121 -60zM421 397c-43 0 -78 18 -115 36s-65 33 -99 33c-41 0 -66 -25 -91 -52
l-41 38c35 42 72 73 135 73c43 0 77 -16 115 -36c36 -19 60 -33 96 -33c37 0 61 14 85 39l36 -38c-26 -31 -69 -60 -121 -60z" />
    <glyph glyph-name="notequal" unicode="&#x2260;" horiz-adv-x="624" 
d="M95 449v60h258l61 122h67l-61 -122h109v-60h-139l-89 -178h228v-60h-258l-61 -122h-66l61 122h-110v60h140l88 178h-228z" />
    <glyph glyph-name="lessequal" unicode="&#x2264;" horiz-adv-x="611" 
d="M521 163l-446 186v60l446 185v-67l-359 -148l359 -149v-67zM75 0v63h446v-63h-446z" />
    <glyph glyph-name="greaterequal" unicode="&#x2265;" horiz-adv-x="611" 
d="M536 349l-446 -186v67l359 149l-359 148v67l446 -185v-60zM536 63v-63h-446v63h446z" />
    <glyph glyph-name="lozenge" unicode="&#x25ca;" horiz-adv-x="616" 
d="M571 350l-230 -350h-66l-230 350l230 350h66zM308 62l185 288l-185 288l-185 -288z" />
    <glyph glyph-name="apple" unicode="&#xf8ff;" horiz-adv-x="853" 
d="M111 163v362c0 99 76 175 175 175h350c99 0 175 -75 175 -174s-76 -174 -175 -174h-175v-189c0 -99 -76 -175 -175 -175s-175 76 -175 175z" />
    <glyph glyph-name="fi" unicode="&#xfb01;" horiz-adv-x="600" 
d="M117 0v450h-75v62h75v68c0 99 44 150 148 150h72v-62h-66c-54 0 -78 -25 -78 -82v-74h126v-62h-126v-450h-76zM438 0v512h76v-512h-76zM428 647c0 27 19 46 48 46s48 -19 48 -46s-19 -46 -48 -46s-48 19 -48 46z" />
    <glyph glyph-name="fl" unicode="&#xfb02;" horiz-adv-x="600" 
d="M117 0v450h-75v62h75v68c0 99 44 150 148 150h72v-62h-66c-54 0 -78 -25 -78 -82v-74h126v-62h-126v-450h-76zM438 0v730h76v-730h-76z" />
    <glyph glyph-name="acute.case" horiz-adv-x="346" 
d="M167 760h-76l72 126h92z" />
    <glyph glyph-name="breve.case" horiz-adv-x="504" 
d="M252 760c-100 0 -161 51 -161 126h59c0 -46 35 -78 102 -78s102 32 102 78h59c0 -75 -61 -126 -161 -126z" />
    <glyph glyph-name="caron.case" horiz-adv-x="488" 
d="M207 760l-116 126h74l79 -85l79 85h74l-116 -126h-74z" />
    <glyph glyph-name="circumflex.case" horiz-adv-x="488" 
d="M91 760l116 126h74l116 -126h-74l-79 85l-79 -85h-74z" />
    <glyph glyph-name="dieresis.case" horiz-adv-x="478" 
d="M80 828c0 27 19 46 48 46s48 -19 48 -46s-19 -46 -48 -46s-48 19 -48 46zM302 828c0 27 19 46 48 46s48 -19 48 -46s-19 -46 -48 -46s-48 19 -48 46z" />
    <glyph glyph-name="dotaccent.case" horiz-adv-x="258" 
d="M81 822c0 27 19 46 48 46s48 -19 48 -46s-19 -46 -48 -46s-48 19 -48 46z" />
    <glyph glyph-name="grave.case" horiz-adv-x="346" 
d="M179 760l-88 126h92l72 -126h-76z" />
    <glyph glyph-name="hungarumlaut.case" horiz-adv-x="526" 
d="M159 760h-68l53 126h81zM369 760h-68l53 126h81z" />
    <glyph glyph-name="macron.case" horiz-adv-x="504" 
d="M91 796v59h322v-59h-322z" />
    <glyph glyph-name="ring.case" horiz-adv-x="366" 
d="M183 760c-57 0 -92 38 -92 84s35 84 92 84s92 -38 92 -84s-35 -84 -92 -84zM183 796c32 0 50 20 50 48s-18 48 -50 48s-50 -20 -50 -48s18 -48 50 -48z" />
    <glyph glyph-name="tilde.case" horiz-adv-x="560" 
d="M143 760l-52 9c10 67 40 112 102 112c61 0 143 -62 177 -62c32 0 38 33 48 66l51 -15c-14 -56 -37 -105 -97 -105c-53 0 -128 62 -177 62c-35 0 -45 -30 -52 -67z" />
    <glyph glyph-name="J.salt" horiz-adv-x="606" 
d="M290 -14c-139 0 -230 80 -230 201v7h74v-8c0 -85 62 -135 155 -135c97 0 152 51 152 139v446h-329v64h407v-512c0 -117 -92 -202 -229 -202z" />
    <glyph glyph-name="IJ.salt" horiz-adv-x="876" 
d="M96 0v700h78v-700h-78zM560 -14c-139 0 -230 80 -230 201v7h74v-8c0 -85 62 -135 155 -135c97 0 152 51 152 139v446h-329v64h407v-512c0 -117 -92 -202 -229 -202z" />
    <glyph glyph-name="Jcircumflex.salt" horiz-adv-x="605" 
d="M177 760l116 126h74l116 -126h-74l-79 85l-79 -85h-74zM289 -14c-139 0 -230 80 -230 201v7h74v-8c0 -85 62 -135 155 -135c97 0 152 51 152 139v446h-329v64h407v-512c0 -117 -92 -202 -229 -202z" />
    <glyph glyph-name="ornm01.ornm" horiz-adv-x="1044" 
d="M101 319v62h555v-62h-555zM535 700h88l350 -350l-350 -350h-88l350 350z" />
    <glyph glyph-name="ornm02.ornm" horiz-adv-x="1044" 
d="M71 350l350 350h88l-350 -350l350 -350h-88zM388 381h555v-62h-555v62z" />
    <glyph glyph-name="ornm03.ornm" horiz-adv-x="863" 
d="M665 638h-494l62 62h499v-494l-67 -63v495zM526 452l-379 -379l-46 47l378 379z" />
    <glyph glyph-name="ornm04.ornm" horiz-adv-x="863" 
d="M762 120l-47 -47l-379 379l48 47zM629 700l63 -62h-495v-495l-66 63v494h498z" />
    <glyph glyph-name="ornm05.ornm" horiz-adv-x="863" 
d="M101 580l46 47l379 -379l-47 -47zM233 0l-62 62h494v495l67 -63v-494h-499z" />
    <glyph glyph-name="ornm06.ornm" horiz-adv-x="863" 
d="M197 62h495l-63 -62h-498v494l66 63v-495zM336 248l379 379l47 -47l-378 -379z" />
    <glyph glyph-name="ornm07.ornm" horiz-adv-x="902" 
d="M485 -141h-68v536h68v-536zM801 364v-88l-350 350l-350 -350v88l350 350z" />
    <glyph glyph-name="ornm08.ornm" horiz-adv-x="902" 
d="M451 -66l350 350v-88l-350 -350l-350 350v88zM417 165v535h68v-535h-68z" />
    <glyph glyph-name="ornm09.ornm" horiz-adv-x="914" 
d="M91 267v62h446v-62h-446zM488 575h88l277 -277l-277 -277h-88l277 277z" />
    <glyph glyph-name="ornm10.ornm" horiz-adv-x="914" 
d="M61 298l277 277h88l-277 -277l277 -277h-88zM377 329h446v-62h-446v62z" />
    <glyph glyph-name="ornm11.ornm" horiz-adv-x="774" 
d="M134 -47l-43 43l315 315l43 -43zM197 452l62 60h394v-390l-64 -62v392h-392z" />
    <glyph glyph-name="ornm12.ornm" horiz-adv-x="774" 
d="M121 512h394l62 -60h-392v-392l-64 62v390zM368 311l315 -315l-43 -43l-315 315z" />
    <glyph glyph-name="ornm13.ornm" horiz-adv-x="774" 
d="M653 0h-394l-62 59h392v393l64 -63v-389zM406 201l-315 315l43 43l315 -315z" />
    <glyph glyph-name="ornm14.ornm" horiz-adv-x="774" 
d="M640 559l43 -43l-315 -315l-43 43zM577 59l-62 -59h-394v389l64 63v-393h392z" />
    <glyph glyph-name="ornm15.ornm" horiz-adv-x="756" 
d="M378 598l277 -278v-88l-277 278l-277 -278v88zM411 281v-409h-66v409h66z" />
    <glyph glyph-name="ornm16.ornm" horiz-adv-x="756" 
d="M345 588h66v-410h-66v410zM655 227v-88l-277 -277l-277 277v88l277 -277z" />
    <glyph glyph-name="ornm17.ornm" horiz-adv-x="786" 
d="M257 742h21c18 -16 18 -58 23 -78c23 -12 63 -12 81 -29c24 21 65 15 91 4c-6 -11 -6 -12 10 -12c0 -9 3 -18 6 -23c9 2 5 21 23 14c15 -14 36 -22 49 -37c27 0 35 19 56 25c9 -31 63 0 81 -25c9 0 30 5 38 0c-26 -30 -65 -30 -95 -50c-30 -18 -41 -46 -64 -70
c-26 -25 -59 -40 -74 -68c0 -23 7 -42 5 -67c-19 -18 -48 -24 -50 -56c8 -9 17 -15 20 -26c-18 -24 -5 -54 -12 -85c35 -26 78 -47 101 -84c16 20 42 -3 46 -17c-4 -18 -4 -38 -2 -58h-481c0 75 0 159 6 233c-17 9 -29 20 -35 41c8 10 24 12 26 28c9 32 -11 57 -16 91
c-4 37 5 80 -2 123c-2 26 -20 53 -23 75c-2 42 15 82 -6 109c61 2 122 -5 175 -2c6 10 2 28 2 44z" />
    <glyph glyph-name="ornm18.ornm" horiz-adv-x="925" 
d="M69 111c-9 -1 -11 9 -5 13c24 7 49 19 66 34l16 15c13 19 21 35 28 52c6 19 13 35 16 50c-1 41 -2 58 -2 58c-1 12 -3 25 -3 41c0 88 81 116 111 128c36 12 79 23 138 23c17 0 46 -2 69 -4c34 -4 60 -4 60 -4s9 0 21 2c24 6 39 61 44 75c7 24 19 43 41 68c3 5 2 31 7 38
c6 1 25 0 28 -2c3 0 18 -3 28 -5c6 0 12 0 14 -3c4 -3 5 -7 10 -11c5 -1 9 -3 12 -6c1 -3 9 -11 13 -15c2 -2 8 -12 8 -16c0 -5 17 -16 25 -21c12 -9 22 -14 36 -23c10 -5 16 -11 14 -18c-4 -10 -37 -18 -47 -18c-3 0 -19 2 -24 3c-16 4 -47 6 -55 1c-4 -1 -14 -24 -15 -30
c-1 -11 -5 -41 -7 -50c-10 -39 -22 -74 -25 -88c-3 -16 -4 -38 -11 -58c-10 -17 -17 -27 -19 -34c-8 -10 -21 -106 -23 -128c-3 -29 -4 -72 -3 -109c0 -10 16 -33 27 -31c12 0 16 -6 16 -6c2 -3 2 -15 -2 -17l-4 -2l-20 1s9 -6 6 -10c-1 -1 -2 -3 -4 -4h-42
c-6 2 -10 11 -12 15c-1 2 -7 32 -9 40c-3 8 -9 7 -10 12c0 8 3 14 3 37c0 4 -4 4 -8 12c-2 7 0 78 -2 101c0 7 -4 39 -5 55c-3 14 3 18 3 24c-2 9 -18 4 -30 4c-18 0 -61 9 -95 34c-31 23 -50 62 -74 62c-14 0 -32 -7 -41 -17c-10 -9 -13 -25 -16 -35c-1 -4 -1 -11 -1 -21
c-2 -21 -8 -40 -10 -48c-2 -9 -10 -32 -14 -43c-5 -13 -25 -38 -25 -38c-10 -13 -24 -24 -25 -30c-7 -10 -10 -29 -10 -29s-1 -54 0 -62c0 -10 3 -13 3 -16c6 -3 7 -6 14 -10c4 -1 12 -1 13 -6s0 -13 -4 -14h-26c-3 1 -8 3 -14 7l-10 9c-2 2 -6 61 -7 65c0 1 -4 33 -1 53
c0 7 -2 9 -3 9c-2 0 -3 -2 -5 -5c-6 -9 -12 -15 -17 -22c-2 -4 -21 -62 -22 -74c-1 -7 0 -41 0 -41l8 -8s8 -3 8 -10s-4 -10 -7 -12h-19c-8 0 -12 5 -19 14c-2 4 -1 35 0 51c0 10 2 18 2 33c0 18 1 30 2 38c-18 -13 -38 -21 -58 -23z" />
    </font>
</defs>
</svg>
