<?xml version="1.0" encoding="UTF-8"?>
<svg width="41px" height="19px" viewBox="0 0 41 19" version="1.1" xmlns="http://www.w3.org/2000/svg" xmlns:xlink="http://www.w3.org/1999/xlink">
    <!-- Generator: Sketch 41 (35326) - http://www.bohemiancoding.com/sketch -->
    <title>Email Sent</title>
    <desc>Created with Sketch.</desc>
    <defs></defs>
    <g id="Page-1" stroke="none" stroke-width="1" fill="none" fill-rule="evenodd">
        <g id="7---iMover-Inventory---Add-Items-Copy-9" transform="translate(-858.000000, -388.000000)" fill="#F99C3F">
            <g id="Email-Sent" transform="translate(858.000000, 388.000000)">
                <path d="M14.5880039,0 C13.4313656,0 12.4603443,0.971012766 12.4603443,2.12765957 L12.4603443,16.5957532 C12.4603443,17.7523915 13.4313656,18.7234128 14.5880039,18.7234128 L38.4177911,18.7234128 C39.5744294,18.7234128 40.5454507,17.7523915 40.5454507,16.5957532 L40.5454507,2.12765957 C40.5454507,0.971012766 39.5744294,4.83773778e-14 38.4177911,4.83773778e-14 L14.5880039,4.83773778e-14 L14.5880039,0 Z M17.1943868,2.55319149 L35.8114081,2.55319149 L26.5028975,10.6383064 L17.1943868,2.55319149 Z M1.82204641,2.9787234 C1.11702513,2.9787234 0.545450661,3.55025532 0.545450661,4.25531915 C0.545450661,4.96034043 1.11702513,5.53191489 1.82204641,5.53191489 L10.3326847,5.53191489 C11.0377485,5.53191489 11.6092804,4.96034043 11.6092804,4.25531915 C11.6092804,3.55025532 11.0377485,2.9787234 10.3326847,2.9787234 L1.82204641,2.9787234 Z M15.0135358,4.04255319 L20.9310677,9.17554043 L15.0135358,14.5612 L15.0135358,4.04255319 Z M37.9922592,4.04255319 L37.9922592,14.5612 L32.0747273,9.17554043 L37.9922592,4.04255319 Z M3.52417407,8.08510638 C2.81915279,8.08510638 2.24757832,8.65664681 2.24757832,9.36171064 C2.24757832,10.0667319 2.81915279,10.6383064 3.52417407,10.6383064 L10.3326847,10.6383064 C11.0377485,10.6383064 11.6092804,10.0667319 11.6092804,9.36171064 C11.6092804,8.65664681 11.0377485,8.08510638 10.3326847,8.08510638 L3.52417407,8.08510638 Z M22.8725996,10.8776681 L25.6651102,13.2978809 C26.1455142,13.7156484 26.8602807,13.7156484 27.3406847,13.2978809 L30.1331953,10.8776681 L35.957706,16.1702213 L17.048089,16.1702213 L22.8725996,10.8776681 L22.8725996,10.8776681 Z M5.22630172,13.1914979 C4.52128045,13.1914979 3.94970598,13.7630298 3.94970598,14.4680936 C3.94970598,15.1731149 4.52128045,15.7446894 5.22630172,15.7446894 L10.3326847,15.7446894 C11.0377485,15.7446894 11.6092804,15.1731149 11.6092804,14.4680936 C11.6092804,13.7630298 11.0377485,13.1914979 10.3326847,13.1914979 L5.22630172,13.1914979 Z" id="mail-icon"></path>
            </g>
        </g>
    </g>
</svg>