<?xml version="1.0" encoding="UTF-8"?>
<svg width="14px" height="14px" viewBox="0 0 14 14" version="1.1" xmlns="http://www.w3.org/2000/svg" xmlns:xlink="http://www.w3.org/1999/xlink">
    <!-- Generator: Sketch 41 (35326) - http://www.bohemiancoding.com/sketch -->
    <title>Fill 3</title>
    <desc>Created with Sketch.</desc>
    <defs></defs>
    <g id="Page-1" stroke="none" stroke-width="1" fill="none" fill-rule="evenodd">
        <g id="7---iMover-Inventory---Add-Items-Copy-7" transform="translate(-873.000000, -241.000000)" fill="#535353">
            <path d="M874.14381,246.42935 C874.14381,244.066303 876.066303,242.14381 878.42935,242.14381 C880.792396,242.14381 882.714889,244.066303 882.714889,246.42935 C882.714889,248.792396 880.792396,250.714889 878.42935,250.714889 C876.066303,250.714889 874.14381,248.792396 874.14381,246.42935 M886.715583,253.335925 L882.893453,249.514081 C883.500286,248.637545 883.8577,247.575874 883.8577,246.42935 C883.8577,243.431187 881.427513,241.001 878.42935,241.001 C875.431187,241.001 873.001,243.431187 873.001,246.42935 C873.001,249.427513 875.431187,251.8577 878.42935,251.8577 C879.575874,251.8577 880.637545,251.500286 881.514081,250.893453 L885.335925,254.715583 C885.716481,255.096139 886.333313,255.096139 886.713869,254.715583 L886.715583,254.713869 C887.096139,254.333313 887.096139,253.716481 886.715583,253.335925" id="Fill-3"></path>
        </g>
    </g>
</svg>